<?xml version="1.0" encoding="UTF-8" standalone="no"?>
<!DOCTYPE svg PUBLIC "-//W3C//DTD SVG 1.1//EN" "http://www.w3.org/Graphics/SVG/1.1/DTD/svg11.dtd">
<svg width="100%" height="100%" viewBox="0 0 35 18" version="1.1" xmlns="http://www.w3.org/2000/svg" xmlns:xlink="http://www.w3.org/1999/xlink" xml:space="preserve" xmlns:serif="http://www.serif.com/" style="fill-rule:evenodd;clip-rule:evenodd;stroke-linejoin:round;stroke-miterlimit:1.41421;">
    <path d="M4.783,4.129c2.41,-1.587 4.691,-2.303 6.175,-2.647c-1.969,1.76 -3.207,4.315 -3.207,7.158c0,2.843 1.238,5.398 3.207,7.158c-1.484,-0.344 -3.765,-1.06 -6.175,-2.647c-2.35,-1.546 -3.883,-3.304 -4.783,-4.511c0.9,-1.207 2.433,-2.965 4.783,-4.511Zm25.234,0c-2.41,-1.587 -4.691,-2.303 -6.175,-2.647c1.969,1.76 3.207,4.315 3.207,7.158c0,2.843 -1.238,5.398 -3.207,7.158c1.484,-0.344 3.765,-1.06 6.175,-2.647c2.35,-1.546 3.883,-3.304 4.783,-4.511c-0.9,-1.207 -2.433,-2.965 -4.783,-4.511Zm-14.869,3.215l4.131,-7.132c-0.603,-0.134 -1.231,-0.212 -1.877,-0.212c-2.081,0 -3.984,0.73 -5.48,1.948l3.178,5.482l0.048,-0.086Zm10.525,-1.283c-0.797,-2.526 -2.731,-4.544 -5.198,-5.477l-3.173,5.477l8.371,0Zm0.226,0.842l-6.494,0l0.251,0.437l4.131,7.13c1.414,-1.538 2.285,-3.585 2.285,-5.835c0,-0.592 -0.061,-1.19 -0.173,-1.732Zm-11.502,1.749l-3.381,-5.838c-1.413,1.538 -2.284,3.59 -2.284,5.841c0,0.592 0.06,1.135 0.173,1.737l6.494,0l-1.002,-1.74Zm-5.267,2.582c0.798,2.526 2.732,4.545 5.198,5.478l3.174,-5.478l-8.372,0Zm9.772,-0.002l-3.382,5.836c0.607,0.134 1.236,0.212 1.882,0.212c2.081,0 3.984,-0.73 5.479,-1.948l-3.177,-5.482l-0.802,1.382Z" style=";fill-rule:nonzero;"/>
</svg>
