<?xml version="1.0" encoding="utf-8"?>
<!-- Generator: Adobe Illustrator 15.1.0, SVG Export Plug-In . SVG Version: 6.00 Build 0)  -->
<!DOCTYPE svg PUBLIC "-//W3C//DTD SVG 1.1//EN" "http://www.w3.org/Graphics/SVG/1.1/DTD/svg11.dtd">
<svg version="1.1" id="Слой_1" 
	xmlns="http://www.w3.org/2000/svg" 
	xmlns:xlink="http://www.w3.org/1999/xlink" x="0px" y="0px" width="100%" height="100%" viewBox="0 0 1024 1024" style="enable-background:new 0 0 1024 1024;" xml:space="preserve">
	<path d="M834.92,225.928L681.44,72.45c-16.462-16.464-38.781-25.793-62.013-25.793H246.066
	c-48.476,0.184-87.806,39.513-87.806,87.99v760.99c0,48.479,39.33,87.808,87.806,87.808h526.84
	c48.477,0,87.807-39.329,87.807-87.808V288.125C860.713,264.893,851.383,242.392,834.92,225.928z M765.772,280.99H626.562V141.78
	L765.772,280.99z M246.066,895.636v-760.99h292.69v190.248c0,24.33,19.573,43.903,43.903,43.903h190.247v526.839H246.066z
	 M633.88,456.604h-52.685c-8.049,0-15.367,4.39-19.208,11.524c-32.928,60.55-40.611,77.563-52.317,105.551
	c-25.428-53.233-12.624-31.646-52.319-105.551c-3.841-7.134-11.342-11.524-19.391-11.524h-52.867
	c-17.012,0-27.439,18.292-19.024,32.927l84.696,142.686l-84.696,142.687c-8.599,14.633,2.012,32.928,19.024,32.928h52.867
	c8.049,0,15.366-4.391,19.208-11.525c39.695-73.172,42.072-82.318,52.317-105.552c27.256,55.246,10.793,29.086,52.319,105.552
	c3.841,7.135,11.342,11.525,19.391,11.525h52.685c17.012,0,27.438-18.295,19.023-32.928l-84.879-142.687
	c1.28-2.012,55.427-92.38,84.696-142.686C661.318,474.896,650.709,456.604,633.88,456.604z"/>
</svg>
