<svg width="100%" height="100%" viewBox="0 0 13 15" fill="none" 
    xmlns="http://www.w3.org/2000/svg">
    <path d="M8.575 9.10206C7.79023 9.10206 7.41289 9.54113 6.125 9.54113C4.83711 9.54113 4.4625 9.10206 3.675 9.10206C1.64609 9.10206 0 10.7541 0 12.7902V13.4927C0 14.22 0.587891 14.81 1.3125 14.81H10.9375C11.6621 14.81 12.25 14.22 12.25 13.4927V12.7902C12.25 10.7541 10.6039 9.10206 8.575 9.10206ZM10.9375 13.4927H1.3125V12.7902C1.3125 11.484 2.37344 10.4193 3.675 10.4193C4.07422 10.4193 4.72227 10.8583 6.125 10.8583C7.53867 10.8583 8.17305 10.4193 8.575 10.4193C9.87656 10.4193 10.9375 11.484 10.9375 12.7902V13.4927ZM6.125 8.663C8.29883 8.663 10.0625 6.893 10.0625 4.71138C10.0625 2.52976 8.29883 0.759766 6.125 0.759766C3.95117 0.759766 2.1875 2.52976 2.1875 4.71138C2.1875 6.893 3.95117 8.663 6.125 8.663ZM6.125 2.07697C7.57148 2.07697 8.75 3.25971 8.75 4.71138C8.75 6.16305 7.57148 7.34579 6.125 7.34579C4.67852 7.34579 3.5 6.16305 3.5 4.71138C3.5 3.25971 4.67852 2.07697 6.125 2.07697Z" fill="#778F9B"/>
    <path d="M10.9375 13.4927H1.3125V12.7902C1.3125 11.484 2.37344 10.4193 3.675 10.4193C4.07422 10.4193 4.72227 10.8583 6.125 10.8583C7.53867 10.8583 8.17305 10.4193 8.575 10.4193C9.87656 10.4193 10.9375 11.484 10.9375 12.7902V13.4927Z" fill="#778F9B"/>
    <path d="M6.125 2.07697C7.57148 2.07697 8.75 3.25971 8.75 4.71138C8.75 6.16305 7.57148 7.34579 6.125 7.34579C4.67852 7.34579 3.5 6.16305 3.5 4.71138C3.5 3.25971 4.67852 2.07697 6.125 2.07697Z" fill="#778F9B"/>
</svg>
