<?xml version="1.0" encoding="utf-8"?>
<!-- Generator: Adobe Illustrator 15.1.0, SVG Export Plug-In . SVG Version: 6.00 Build 0)  -->
<!DOCTYPE svg PUBLIC "-//W3C//DTD SVG 1.1//EN" "http://www.w3.org/Graphics/SVG/1.1/DTD/svg11.dtd">
<svg version="1.1" id="Слой_1" xmlns:serif="http://www.serif.com/"
	 xmlns="http://www.w3.org/2000/svg" xmlns:xlink="http://www.w3.org/1999/xlink" x="0px" y="0px" width="100%" height="100%"
	 viewBox="0 0 512 512" enable-background="new 0 0 512 512" xml:space="preserve">
<g>
	<path fill="#73AF00" d="M21.481,304.839h469.741v89.479c0,4.236-3.629,7.669-8.102,7.669H29.581c-4.473,0-8.1-3.433-8.1-7.669
		V304.839z"/>
	<path fill="#FF4B55" d="M29.581,110.542h453.542c4.473,0,8.1,3.435,8.1,7.67v89.478H21.481v-89.479
		C21.481,113.976,25.108,110.542,29.581,110.542z"/>
	<rect x="21.481" y="207.688" fill="#F5F5F5" width="469.741" height="97.144"/>
	<g>
		<path fill="#FFCD5A" d="M229.808,283.662c3.367-1.606,5.337-4.253,6.392-6.165c6.032,3.732,11.201,2.466,13.895,1.271
			c2.628-1.166,4.792-3.066,6.237-5.005c1.445,1.938,3.607,3.839,6.236,5.005c2.691,1.195,7.861,2.459,13.895-1.271
			c1.053,1.912,3.023,4.559,6.393,6.165c1.939,0.928,4.08,1.393,6.402,1.393c2.385,0,4.961-0.489,7.713-1.466l-1.336-3.377
			c-4.377,1.555-8.092,1.64-11.033,0.249c-4.117-1.944-5.49-6.229-5.502-6.264l-0.803-2.663l-2.244,1.771
			c-3.963,3.125-8.063,3.891-11.869,2.198c-3.863-1.714-5.949-5.181-5.949-6.221v-15.558c0.824-1.717,2.643-2.918,4.76-2.918
			c0.727,0,1.443,0.15,2.133,0.445l2.357,1.008l-0.355-2.427c-0.746-5.095-5.389-8.939-10.799-8.939
			c-5.408,0-10.051,3.844-10.797,8.939l-0.357,2.427l2.357-1.008c0.688-0.294,1.409-0.445,2.136-0.445
			c2.116,0,3.935,1.202,4.758,2.918v15.558c0,1.04-2.084,4.507-5.949,6.221c-3.803,1.691-7.907,0.928-11.868-2.198l-2.229-1.747
			l-0.819,2.632c-0.013,0.042-1.388,4.327-5.506,6.271c-2.944,1.391-6.656,1.308-11.032-0.249l-1.337,3.377
			c2.751,0.976,5.33,1.466,7.713,1.466C225.727,285.054,227.867,284.59,229.808,283.662z M249.669,248.103
			c-0.228,0-0.454,0.008-0.681,0.028c1.274-2.69,4.124-4.535,7.342-4.535s6.068,1.845,7.344,4.535
			c-2.961-0.247-5.76,1.122-7.344,3.292C254.869,249.417,252.429,248.103,249.669,248.103z"/>
		<path fill="#FFCD5A" d="M223.37,295.124l1.207,3.419c8.093-2.558,19.669-4.023,31.756-4.023c12.086,0,23.66,1.466,31.754,4.023
			l1.207-3.419c-8.467-2.677-20.482-4.213-32.961-4.213C243.851,290.912,231.836,292.447,223.37,295.124z"/>
		<path fill="#FFCD5A" d="M256.332,287.309c1.984,0.005,3.732-1.112,4.916-2.614c-0.787-0.462-1.838-0.731-3.029-0.872
			c0-0.039,0.016-0.077,0.016-0.119c0-1.546-0.771-2.881-1.902-3.604c-1.134,0.724-1.904,2.059-1.904,3.604
			c0,0.041,0.015,0.079,0.017,0.119c-1.19,0.141-2.242,0.41-3.029,0.872C252.598,286.196,254.347,287.313,256.332,287.309z"/>
		<path fill="#FFCD5A" d="M238.861,289.011c1.944-0.37,3.423-1.796,4.265-3.493c-0.869-0.303-1.956-0.367-3.15-0.277
			c-0.009-0.042-0.002-0.08-0.011-0.121c-0.325-1.515-1.363-2.677-2.626-3.172c-0.957,0.926-1.43,2.379-1.104,3.892
			c0.01,0.042,0.03,0.076,0.04,0.115c-1.136,0.361-2.111,0.825-2.783,1.426C234.968,288.63,236.916,289.393,238.861,289.011z"/>
		<path fill="#FFCD5A" d="M275.324,281.945c-1.264,0.496-2.299,1.658-2.625,3.173c-0.008,0.04-0.002,0.079-0.01,0.12
			c-1.195-0.089-2.285-0.023-3.15,0.278c0.842,1.698,2.318,3.124,4.264,3.494c1.945,0.381,3.893-0.382,5.371-1.633
			c-0.674-0.601-1.648-1.063-2.783-1.426c0.01-0.039,0.031-0.073,0.037-0.114C276.756,284.325,276.281,282.872,275.324,281.945z"/>
		<path fill="#FFCD5A" d="M255.822,215.561l-1.281,3.641l-4.053,0.03c-0.524,0.003-0.742,0.638-0.321,0.933l3.261,2.28l-1.222,3.66
			c-0.157,0.473,0.411,0.865,0.839,0.577l3.296-2.232l3.298,2.232c0.428,0.289,0.996-0.104,0.838-0.577l-1.223-3.66l3.26-2.28
			c0.422-0.295,0.205-0.929-0.318-0.933l-4.053-0.03l-1.283-3.641C256.693,215.089,255.988,215.089,255.822,215.561z"/>
		<path fill="#FFCD5A" d="M232.625,221.568l-1.283,3.641l-4.052,0.03c-0.525,0.004-0.743,0.639-0.32,0.933l3.259,2.28l-1.224,3.66
			c-0.156,0.473,0.411,0.864,0.84,0.577l3.296-2.232l3.299,2.232c0.427,0.288,0.996-0.103,0.838-0.577l-1.224-3.66l3.26-2.28
			c0.422-0.294,0.205-0.929-0.32-0.933l-4.052-0.03l-1.283-3.641C233.493,221.097,232.79,221.097,232.625,221.568z"/>
		<path fill="#FFCD5A" d="M215.574,237.791l-1.285,3.641l-4.051,0.03c-0.524,0.004-0.743,0.638-0.32,0.933l3.259,2.28l-1.222,3.66
			c-0.158,0.473,0.411,0.865,0.838,0.576l3.299-2.232l3.296,2.232c0.429,0.29,0.996-0.102,0.839-0.576l-1.223-3.66l3.261-2.28
			c0.421-0.295,0.203-0.929-0.321-0.933l-4.052-0.03l-1.283-3.641C216.443,237.32,215.739,237.32,215.574,237.791z"/>
		<path fill="#FFCD5A" d="M209.308,259.722l-1.283,3.642l-4.051,0.029c-0.526,0.004-0.743,0.637-0.321,0.933l3.26,2.281
			l-1.223,3.658c-0.158,0.474,0.411,0.866,0.839,0.576l3.297-2.229l3.297,2.229c0.428,0.29,0.996-0.102,0.839-0.576l-1.223-3.658
			l3.259-2.281c0.423-0.296,0.206-0.929-0.32-0.933l-4.052-0.029l-1.282-3.642C210.177,259.25,209.474,259.25,209.308,259.722z"/>
		<path fill="#FFCD5A" d="M280.078,221.568l1.283,3.641l4.053,0.03c0.525,0.004,0.742,0.639,0.32,0.933l-3.262,2.28l1.227,3.66
			c0.158,0.473-0.414,0.864-0.84,0.577l-3.299-2.232l-3.297,2.232c-0.426,0.288-0.996-0.103-0.838-0.577l1.223-3.66l-3.26-2.28
			c-0.422-0.294-0.203-0.929,0.32-0.933l4.053-0.03l1.283-3.641C279.209,221.097,279.914,221.097,280.078,221.568z"/>
		<path fill="#FFCD5A" d="M297.129,237.791l1.285,3.641l4.051,0.03c0.525,0.004,0.744,0.638,0.32,0.933l-3.26,2.28l1.223,3.66
			c0.158,0.473-0.412,0.865-0.838,0.576l-3.297-2.232l-3.299,2.232c-0.426,0.29-0.996-0.102-0.838-0.576l1.223-3.66l-3.26-2.28
			c-0.42-0.295-0.203-0.929,0.32-0.933l4.053-0.03l1.283-3.641C296.26,237.32,296.963,237.32,297.129,237.791z"/>
		<path fill="#FFCD5A" d="M303.396,259.722l1.281,3.642l4.053,0.029c0.525,0.004,0.742,0.637,0.322,0.933l-3.262,2.281l1.221,3.658
			c0.158,0.474-0.41,0.866-0.838,0.576l-3.297-2.229l-3.297,2.229c-0.428,0.29-0.996-0.102-0.838-0.576l1.221-3.658l-3.258-2.281
			c-0.424-0.296-0.207-0.929,0.318-0.933l4.053-0.029l1.283-3.642C302.527,259.25,303.23,259.25,303.396,259.722z"/>
	</g>
</g>
</svg>
