<?xml version="1.0" encoding="utf-8"?>
<!-- Generator: Adobe Illustrator 15.1.0, SVG Export Plug-In . SVG Version: 6.00 Build 0)  -->
<!DOCTYPE svg PUBLIC "-//W3C//DTD SVG 1.1//EN" "http://www.w3.org/Graphics/SVG/1.1/DTD/svg11.dtd">
<svg version="1.1" id="Слой_1" xmlns="http://www.w3.org/2000/svg" xmlns:xlink="http://www.w3.org/1999/xlink" x="0px" y="0px"
	 width="100%" height="100%" viewBox="0 0 1024 1024" style="enable-background:new 0 0 1024 1024;" xml:space="preserve">
<path d="M965.328,544.376L652.536,842.229c-27.928,26.595-76.336,7.979-76.336-30.139V641.888H322.988
	c-24.763,0-44.684-18.971-44.684-42.55V429.136c0-23.581,19.921-42.551,44.684-42.551H576.2V216.384
	c0-37.94,48.222-56.734,76.336-30.14l312.792,297.853C982.644,500.762,982.644,527.71,965.328,544.376z M397.462,833.364v-70.917
	c0-11.703-10.054-21.275-22.342-21.275H218.724c-32.955,0-59.58-25.353-59.58-56.734V344.035c0-31.381,26.625-56.734,59.58-56.734
	H375.12c12.289,0,22.342-9.574,22.342-21.275v-70.917c0-11.701-10.054-21.274-22.342-21.274H218.724
	c-98.679,0-178.738,76.236-178.738,170.201v340.402c0,93.966,80.06,170.201,178.738,170.201H375.12
	C387.408,854.639,397.462,845.065,397.462,833.364z"/>
</svg>
