<?xml version="1.0" encoding="utf-8"?>
<!-- Generator: Adobe Illustrator 15.1.0, SVG Export Plug-In . SVG Version: 6.00 Build 0)  -->
<!DOCTYPE svg PUBLIC "-//W3C//DTD SVG 1.1//EN" "http://www.w3.org/Graphics/SVG/1.1/DTD/svg11.dtd">
<svg version="1.1" id="Слой_1" xmlns:serif="http://www.serif.com/"
	 xmlns="http://www.w3.org/2000/svg" xmlns:xlink="http://www.w3.org/1999/xlink" x="0px" y="0px" width="100%" height="100%"
	 viewBox="0 0 512 512" style="enable-background:new 0 0 512 512;" xml:space="preserve">
<path d="M348.751,88.672h16.718v66.867h-16.718c-9.231,0-16.716,7.484-16.716,16.717v33.434c0,9.232,7.484,16.717,16.716,16.717
	h100.302c9.232,0,16.716-7.484,16.716-16.717v-33.434c0-9.232-7.483-16.717-16.716-16.717h-16.717V38.521
	c0-9.232-7.484-16.717-16.718-16.717h-50.149c-6.321,0.005-12.099,3.575-14.931,9.226l-16.717,33.434
	c-4.137,8.253-0.8,18.299,7.453,22.436C343.596,88.063,346.156,88.67,348.751,88.672z M376.073,258.88
	c-27.696,7.586-49.458,29.021-57.464,56.598c-14.889,53.337,22.16,102.149,71.935,107.122c-6.563,5.537-13.903,10.082-21.784,13.489
	c-7.909,3.553-11.284,13.028-8.547,21.252l10.344,20.896c2.998,9.016,13.092,14.094,21.836,10.354
	c60.598-25.869,90.113-64.37,90.113-137.914v-11.252c-0.02-53.504-50.567-95.432-106.412-80.544H376.073z M398.901,360.32
	c-11.54,0-20.896-9.355-20.896-20.896s9.355-20.896,20.896-20.896c11.541,0,20.896,9.355,20.896,20.896
	S410.442,360.32,398.901,360.32z M215.017,356.141h-50.15V38.521c0-9.232-7.484-16.717-16.716-16.717h-33.434
	C105.484,21.805,98,29.289,98,38.521v317.619h-50.15c-14.825,0-22.317,18.013-11.796,28.534l83.584,100.3
	c6.528,6.523,17.106,6.523,23.634,0l83.584-100.3C237.324,374.174,229.875,356.141,215.017,356.141z"/>
</svg>
