<?xml version="1.0" encoding="utf-8"?>
<!-- Generator: Adobe Illustrator 15.1.0, SVG Export Plug-In . SVG Version: 6.00 Build 0)  -->
<!DOCTYPE svg PUBLIC "-//W3C//DTD SVG 1.1//EN" "http://www.w3.org/Graphics/SVG/1.1/DTD/svg11.dtd">
<svg version="1.1" id="Слой_1" xmlns:serif="http://www.serif.com/"
	 xmlns="http://www.w3.org/2000/svg" xmlns:xlink="http://www.w3.org/1999/xlink" x="0px" y="0px" width="100%" height="100%"
	 viewBox="0 0 512 512" style="enable-background:new 0 0 512 512;" xml:space="preserve">
<path d="M375.862,259.833c-27.89,7.638-49.805,29.223-57.866,56.992c-15.013,53.711,22.294,102.865,72.417,107.872
	c-6.608,5.577-14,10.152-21.937,13.584c-7.965,3.577-11.363,13.12-8.606,21.4l10.416,21.042c3.02,9.079,13.184,14.192,21.989,10.426
	c61.021-26.051,90.744-64.82,90.744-138.879v-11.33C482.998,287.062,432.098,244.84,375.862,259.833L375.862,259.833z
	 M398.83,361.982c-11.621,0-21.042-9.421-21.042-21.042c0-11.623,9.421-21.043,21.042-21.043s21.042,9.42,21.042,21.043
	C419.872,352.562,410.451,361.982,398.83,361.982z M348.329,88.433h16.834v67.335h-16.834c-9.298,0-16.834,7.537-16.834,16.834
	v33.667c0,9.297,7.536,16.833,16.834,16.833h101.002c9.298,0,16.834-7.537,16.834-16.833v-33.667
	c0-9.297-7.536-16.834-16.834-16.834h-16.834V37.932c0-9.297-7.536-16.834-16.833-16.834h-50.501
	c-6.365,0.005-12.183,3.601-15.036,9.29l-16.833,33.668c-4.166,8.311-0.805,18.426,7.505,22.592
	C343.136,87.82,345.715,88.431,348.329,88.433z M141.389,26.032c-6.573-6.569-17.226-6.569-23.799,0L33.421,127.035
	c-10.563,10.574-3.062,28.733,11.899,28.733h50.501v319.841c0,9.299,7.537,16.834,16.834,16.834h33.667
	c9.297,0,16.834-7.535,16.834-16.834V155.768h50.501c14.95,0,22.494-18.139,11.9-28.733L141.389,26.032z"/>
</svg>
