<svg width="100%" height="100%" viewBox="0 0 16 14" fill="none" 
    xmlns="http://www.w3.org/2000/svg">
    <path d="M5.85306 11.3535L3.35356 13.8536C3.15831 14.0488 2.84159 14.0488 2.64647 13.8536L0.147034 11.3535C-0.167653 11.0389 0.0564717 10.5 0.500596 10.5H2V0.499999C2 0.223843 2.22384 0 2.5 0H3.5C3.77615 0 4 0.223843 4 0.499999V10.5H5.4995C5.94453 10.5 6.16709 11.0395 5.85306 11.3535ZM7.49999 2H15.5C15.7761 2 16 1.77615 16 1.5V0.499999C16 0.223843 15.7761 0 15.5 0H7.49999C7.22384 0 6.99999 0.223843 6.99999 0.499999V1.5C6.99999 1.77615 7.22384 2 7.49999 2ZM6.99999 5.49999V4.49999C6.99999 4.22384 7.22384 4 7.49999 4H13.5C13.7761 4 14 4.22384 14 4.49999V5.49999C14 5.77615 13.7761 5.99999 13.5 5.99999H7.49999C7.22384 5.99999 6.99999 5.77615 6.99999 5.49999ZM6.99999 13.5V12.5C6.99999 12.2238 7.22384 12 7.49999 12H9.49999C9.77615 12 9.99999 12.2238 9.99999 12.5V13.5C9.99999 13.7761 9.77615 14 9.49999 14H7.49999C7.22384 14 6.99999 13.7761 6.99999 13.5ZM7.49999 7.99999L6.99999 8.49999C6.99999 8.22383 7.22384 7.99999 7.49999 7.99999H11.5C11.7761 7.99999 12 8.22383 12 8.49999V9.49999C12 9.77615 11.7761 9.99999 11.5 9.99999H7.49999C7.22384 9.99999 7.49999 8.27615 7.49999 7.99999Z" fill="#778F9B"/>
</svg>
