<?xml version="1.0" encoding="utf-8"?>
<!-- Generator: Adobe Illustrator 15.1.0, SVG Export Plug-In . SVG Version: 6.00 Build 0)  -->
<!DOCTYPE svg PUBLIC "-//W3C//DTD SVG 1.1//EN" "http://www.w3.org/Graphics/SVG/1.1/DTD/svg11.dtd">
<svg version="1.1" id="Слой_1" xmlns="http://www.w3.org/2000/svg" xmlns:xlink="http://www.w3.org/1999/xlink" x="0px" y="0px"
	 width="100%" height="100%" viewBox="0 0 1024 1024" style="enable-background:new 0 0 1024 1024;" xml:space="preserve">
<path d="M509,983.66c64.773,0,117.315-52.54,117.315-117.369H391.687
	C391.687,931.12,444.228,983.66,509,983.66z M904.001,709.108c-35.431-38.071-101.726-95.343-101.726-282.95
	c0-142.493-99.91-256.561-234.627-284.546v-38.218c0-32.404-26.261-58.684-58.648-58.684c-32.387,0-58.647,26.28-58.647,58.684
	v38.219c-134.717,27.985-234.627,142.053-234.627,284.545c0,187.607-66.295,244.879-101.726,282.95
	c-11.003,11.828-15.882,25.969-15.79,39.813c0.202,30.076,23.804,58.685,58.868,58.685h703.845
	c35.064,0,58.685-28.608,58.868-58.685C919.883,735.077,915.005,720.919,904.001,709.108z"/>
</svg>
