<?xml version="1.0" encoding="UTF-8" standalone="no"?>
<!DOCTYPE svg PUBLIC "-//W3C//DTD SVG 1.1//EN" "http://www.w3.org/Graphics/SVG/1.1/DTD/svg11.dtd">
<svg width="100%" height="100%" viewBox="0 0 128 128" version="1.1" xmlns="http://www.w3.org/2000/svg" xmlns:xlink="http://www.w3.org/1999/xlink" xml:space="preserve" xmlns:serif="http://www.serif.com/" style="fill-rule:evenodd;clip-rule:evenodd;stroke-linejoin:round;stroke-miterlimit:2;">
    <path d="M105.326,22.147C94.29,11.084 79.593,5 63.974,5C31.734,5 5.5,31.234 5.5,63.473C5.5,73.772 8.187,83.833 13.297,92.71L5,123L36.001,114.861C44.535,119.523 54.149,121.973 63.947,121.973L63.974,121.973C96.187,121.973 123,95.739 123,63.5C123,47.88 116.363,33.209 105.326,22.147ZM63.974,112.122C55.229,112.122 46.669,109.778 39.215,105.353L37.45,104.299L19.065,109.119L23.964,91.182L22.805,89.338C17.933,81.595 15.378,72.666 15.378,63.473C15.378,36.686 37.187,14.877 64,14.877C76.985,14.877 89.18,19.934 98.346,29.127C107.513,38.319 113.149,50.514 113.123,63.5C113.123,90.313 90.761,112.122 63.974,112.122ZM90.629,75.721C89.18,74.983 81.99,71.454 80.646,70.98C79.303,70.479 78.329,70.242 77.354,71.717C76.379,73.192 73.587,76.458 72.718,77.459C71.875,78.434 71.006,78.566 69.558,77.828C60.971,73.535 55.334,70.163 49.671,60.444C48.17,57.863 51.173,58.047 53.965,52.463C54.439,51.489 54.202,50.646 53.833,49.908C53.464,49.171 50.541,41.98 49.329,39.057C48.144,36.212 46.932,36.607 46.037,36.554C45.194,36.502 44.219,36.502 43.245,36.502C42.27,36.502 40.69,36.871 39.346,38.319C38.003,39.794 34.237,43.324 34.237,50.514C34.237,57.705 39.478,64.658 40.189,65.633C40.927,66.608 50.488,81.358 65.159,87.705C74.43,91.709 78.065,92.051 82.701,91.367C85.519,90.945 91.34,87.837 92.552,84.413C93.763,80.989 93.763,78.065 93.395,77.459C93.052,76.801 92.078,76.432 90.629,75.721Z" style="fill-rule:nonzero;"/>
</svg>
