<svg height="100%" viewBox="0 0 64 64" width="100%" xmlns="http://www.w3.org/2000/svg"><path d="m49 61a4 4 0 0 0 4-4v-4h-15v2a2.006 2.006 0 0 1 -2 2h-16a2.006 2.006 0 0 1 -2-2v-2h-15v4a4 4 0 0 0 4 4z" fill="#9bc9ff"/><path d="m20.96 18h-11.96a1 1 0 0 0 -1 1v30h40v-16h-27v-15z" fill="#9bc9ff"/><path d="m25 25h4v4h-4z" fill="#9bc9ff"/><path d="m25 16h4v4h-4z" fill="#9bc9ff"/><path d="m25 7h4v4h-4z" fill="#9bc9ff"/><g fill="#57a4ff"><path d="m25 12h4a1 1 0 0 0 1-1v-4a1 1 0 0 0 -1-1h-4a1 1 0 0 0 -1 1v4a1 1 0 0 0 1 1zm1-4h2v2h-2z"/><path d="m25 30h4a1 1 0 0 0 1-1v-4a1 1 0 0 0 -1-1h-4a1 1 0 0 0 -1 1v4a1 1 0 0 0 1 1zm1-4h2v2h-2z"/><path d="m25 21h4a1 1 0 0 0 1-1v-4a1 1 0 0 0 -1-1h-4a1 1 0 0 0 -1 1v4a1 1 0 0 0 1 1zm1-4h2v2h-2z"/><path d="m32 8h2v2h-2z"/><path d="m36 8h22v2h-22z"/><path d="m32 17h2v2h-2z"/><path d="m36 17h22v2h-22z"/><path d="m32 26h2v2h-2z"/><path d="m36 26h22v2h-22z"/><path d="m23 52h10v2h-10z"/><path d="m8 56h2v2h-2z"/><path d="m12 56h2v2h-2z"/><path d="m42 56h2v2h-2z"/><path d="m46 56h2v2h-2z"/><path d="m61 2h-40a1 1 0 0 0 -1 1v11h-11a5.006 5.006 0 0 0 -5 5v33h-1a1 1 0 0 0 -1 1v4a5.006 5.006 0 0 0 5 5h42a5.006 5.006 0 0 0 5-5v-4a1 1 0 0 0 -1-1h-1v-18h9a1 1 0 0 0 1-1v-30a1 1 0 0 0 -1-1zm-40 32h26v14h-38v-29h11v14a1 1 0 0 0 1 1zm31 23a3 3 0 0 1 -3 3h-42a3 3 0 0 1 -3-3v-3h13v1a3 3 0 0 0 3 3h16a3 3 0 0 0 3-3v-1h13zm-2-5h-12a1 1 0 0 0 -1 1v2a1 1 0 0 1 -1 1h-16a1 1 0 0 1 -1-1v-2a1 1 0 0 0 -1-1h-12v-33a3 3 0 0 1 3-3h11v1h-11a2 2 0 0 0 -2 2v30a1 1 0 0 0 1 1h40a1 1 0 0 0 1-1v-15h1zm10-20h-38v-28h38z"/></g></svg>