<?xml version="1.0" encoding="utf-8"?>
<!-- Generator: Adobe Illustrator 15.1.0, SVG Export Plug-In . SVG Version: 6.00 Build 0)  -->
<!DOCTYPE svg PUBLIC "-//W3C//DTD SVG 1.1//EN" "http://www.w3.org/Graphics/SVG/1.1/DTD/svg11.dtd">
<svg version="1.1" id="Слой_1" xmlns="http://www.w3.org/2000/svg" xmlns:xlink="http://www.w3.org/1999/xlink" x="0px" y="0px"
	 width="100%" height="100%" viewBox="0 0 1024 1024" style="enable-background:new 0 0 1024 1024;" xml:space="preserve">
<path d="M702.291,100.5h-386.14c-45.682,0-82.744,37.063-82.744,82.744V900.36
	c0,45.682,37.063,82.744,82.744,82.744h386.14c45.682,0,82.744-37.063,82.744-82.744V183.244
	C785.035,137.563,747.973,100.5,702.291,100.5z M509.221,927.941c-30.512,0-55.162-24.65-55.162-55.162
	c0-30.513,24.65-55.163,55.162-55.163c30.513,0,55.163,24.65,55.163,55.163C564.384,903.291,539.733,927.941,509.221,927.941z
	 M702.291,741.768c0,11.377-9.309,20.686-20.687,20.686H336.837c-11.377,0-20.686-9.309-20.686-20.686V203.93
	c0-11.377,9.309-20.686,20.686-20.686h344.767c11.378,0,20.687,9.309,20.687,20.686V741.768z"/>
</svg>
