<?xml version="1.0" encoding="utf-8"?>
<!-- Generator: Adobe Illustrator 15.1.0, SVG Export Plug-In . SVG Version: 6.00 Build 0)  -->
<!DOCTYPE svg PUBLIC "-//W3C//DTD SVG 1.1//EN" "http://www.w3.org/Graphics/SVG/1.1/DTD/svg11.dtd">
<svg version="1.1" id="Слой_1" xmlns="http://www.w3.org/2000/svg" xmlns:xlink="http://www.w3.org/1999/xlink" x="0px" y="0px"
	 width="100%" height="100%" viewBox="0 0 1024 1024" style="enable-background:new 0 0 1024 1024;" xml:space="preserve">
<path d="M510,513.463c129.747,0,234.902-105.156,234.902-234.903c0-129.748-105.155-234.904-234.902-234.904
	c-129.748,0-234.903,105.156-234.903,234.904C275.097,408.307,380.252,513.463,510,513.463z M674.432,572.189h-30.647
	c-40.74,18.718-86.069,29.361-133.784,29.361s-92.861-10.644-133.785-29.361h-30.648c-136.17,0-246.648,110.477-246.648,246.647
	v76.344c0,48.633,39.457,88.089,88.088,88.089h645.985c48.633,0,88.089-39.456,88.089-88.089v-76.344
	C921.081,682.666,810.603,572.189,674.432,572.189z"/>
</svg>
