<svg viewBox="0 0 128 128" version="1.1">
    <path d="M64,5.404C31.631,5.404 5.404,31.631 5.404,64C5.404,96.369 31.631,122.596 64,122.596C96.369,122.596 122.596,96.369 122.596,64C122.596,31.631 96.369,5.404 64,5.404ZM92.778,45.547L83.162,90.864C82.453,94.078 80.539,94.857 77.869,93.345L63.22,82.547L56.156,89.352C55.376,90.132 54.714,90.793 53.202,90.793L54.242,75.885L81.39,51.359C82.571,50.32 81.13,49.729 79.57,50.769L46.02,71.892L31.56,67.379C28.417,66.386 28.346,64.236 32.221,62.724L88.714,40.94C91.337,39.995 93.629,41.578 92.778,45.547Z" style="fill-rule:nonzero;"></path>
</svg>