<svg width="100%" height="100%" viewBox="0 0 26 19" fill="none" 
    xmlns="http://www.w3.org/2000/svg">
    <path opacity="0.7" d="M7.71429 9.03226C10.2013 9.03226 12.2143 7.0121 12.2143 4.51613C12.2143 2.02016 10.2013 0 7.71429 0C5.22723 0 3.21429 2.02016 3.21429 4.51613C3.21429 7.0121 5.22723 9.03226 7.71429 9.03226ZM10.8 10.3226H10.4665C9.6308 10.7258 8.70268 10.9677 7.71429 10.9677C6.72589 10.9677 5.80179 10.7258 4.96205 10.3226H4.62857C2.07321 10.3226 0 12.4032 0 14.9677V16.129C0 17.1976 0.863839 18.0645 1.92857 18.0645H13.5C14.5647 18.0645 15.4286 17.1976 15.4286 16.129V14.9677C15.4286 12.4032 13.3554 10.3226 10.8 10.3226ZM19.2857 9.03226C21.4152 9.03226 23.1429 7.29839 23.1429 5.16129C23.1429 3.02419 21.4152 1.29032 19.2857 1.29032C17.1563 1.29032 15.4286 3.02419 15.4286 5.16129C15.4286 7.29839 17.1563 9.03226 19.2857 9.03226ZM21.2143 10.3226H21.0616C20.5031 10.5161 19.9125 10.6452 19.2857 10.6452C18.6589 10.6452 18.0683 10.5161 17.5098 10.3226H17.3571C16.5375 10.3226 15.7821 10.5605 15.1192 10.9435C16.0996 12.004 16.7143 13.4113 16.7143 14.9677V16.5161C16.7143 16.6048 16.6942 16.6895 16.6902 16.7742H23.7857C24.8504 16.7742 25.7143 15.9073 25.7143 14.8387C25.7143 12.3427 23.7013 10.3226 21.2143 10.3226Z" fill="#0B3B83"/>
</svg>
