<?xml version="1.0" encoding="utf-8"?>
<!-- Generator: Adobe Illustrator 15.1.0, SVG Export Plug-In . SVG Version: 6.00 Build 0)  -->
<!DOCTYPE svg PUBLIC "-//W3C//DTD SVG 1.1//EN" "http://www.w3.org/Graphics/SVG/1.1/DTD/svg11.dtd">
<svg version="1.1" id="Слой_1" xmlns="http://www.w3.org/2000/svg" xmlns:xlink="http://www.w3.org/1999/xlink" x="0px" y="0px"
	 width="100%" height="100%" viewBox="0 0 1024 1024" style="enable-background:new 0 0 1024 1024;" xml:space="preserve">
<path d="M977.819,488.617c0-38.473-21.085-71.703-52.1-89.743V149.982c0-14.246-11.365-52.116-52.1-52.116
	c-11.593,0-23.104,3.875-32.531,11.43L702.649,220.057c-69.536,55.584-156.838,86.209-245.83,86.209h-312.6
	c-57.554,0-104.2,46.646-104.2,104.2v156.3c0,57.555,46.646,104.2,104.2,104.2h54.868c-2.263,17.063-3.549,34.419-3.549,52.1
	c0,64.751,15.077,125.936,41.615,180.624c8.45,17.405,26.897,27.776,46.239,27.776h120.938c42.412,0,67.876-48.583,42.168-82.318
	c-26.701-35.037-42.575-78.736-42.575-126.082c0-18.088,2.637-35.478,7.18-52.1h45.717c88.992,0,176.294,30.624,245.813,86.209
	l138.439,110.762c9.234,7.389,20.704,11.419,32.529,11.43c40.574,0,52.102-37.089,52.102-52.101V578.375
	C956.734,560.319,977.819,527.09,977.819,488.617z M821.519,718.865l-53.808-43.046c-87.919-70.336-198.355-109.053-310.892-109.053
	v-156.3c112.536,0,222.973-38.716,310.892-109.052l53.808-43.048V718.865z"/>
</svg>
