<?xml version="1.0" encoding="utf-8"?>
<!-- Generator: Adobe Illustrator 15.1.0, SVG Export Plug-In . SVG Version: 6.00 Build 0)  -->
<!DOCTYPE svg PUBLIC "-//W3C//DTD SVG 1.1//EN" "http://www.w3.org/Graphics/SVG/1.1/DTD/svg11.dtd">
<svg version="1.1" id="Слой_1" xmlns="http://www.w3.org/2000/svg" xmlns:xlink="http://www.w3.org/1999/xlink" x="0px" y="0px"
	 width="100%" height="100%" viewBox="0 0 1024 1024" style="enable-background:new 0 0 1024 1024;" xml:space="preserve">
<path d="M974.275,490.279c-88.42-172.517-263.464-289.24-463.894-289.24S134.859,317.844,46.489,490.296
	c-7.563,14.963-7.563,32.629,0,47.593c88.419,172.517,263.463,289.239,463.893,289.239s375.523-116.804,463.894-289.256
	C981.839,522.909,981.839,505.242,974.275,490.279z M510.382,748.867c-129.667,0-234.783-105.116-234.783-234.784
	c0-129.666,105.116-234.783,234.783-234.783s234.783,105.117,234.783,234.783c0.063,129.605-104.95,234.722-234.555,234.784
	C510.534,748.867,510.458,748.867,510.382,748.867z M510.382,357.562c-13.971,0.195-27.852,2.273-41.266,6.18
	c25.537,34.704,18.105,83.539-16.599,109.077c-27.504,20.239-64.974,20.239-92.478,0c-22.592,83.235,26.568,169.025,109.803,191.618
	c83.235,22.593,169.026-26.569,191.618-109.803c22.592-83.236-26.568-169.026-109.803-191.618
	C538.204,359.362,524.321,357.529,510.382,357.562z"/>
</svg>
