<svg width="100%" height="100%" viewBox="0 0 17 14" fill="none" 
    xmlns="http://www.w3.org/2000/svg">
    <path d="M5.52503 9.625C5.46154 9.625 5.39806 9.63457 5.3375 9.6548C4.99325 9.76992 4.6312 9.84375 4.25003 9.84375C3.86886 9.84375 3.50682 9.76992 3.1623 9.6548C3.10174 9.63457 3.03852 9.625 2.97504 9.625C1.32657 9.625 -0.00872269 11.0053 4.2911e-05 12.7045C0.00376165 13.4225 0.577245 14 1.27504 14H7.22502C7.92282 14 8.4963 13.4225 8.50002 12.7045C8.50879 11.0053 7.17349 9.625 5.52503 9.625ZM4.25003 8.75C5.65837 8.75 6.80003 7.57477 6.80003 6.125C6.80003 4.67523 5.65837 3.5 4.25003 3.5C2.84169 3.5 1.70004 4.67523 1.70004 6.125C1.70004 7.57477 2.84169 8.75 4.25003 8.75ZM15.725 0H5.52503C4.82192 0 4.25003 0.608398 4.25003 1.35598V2.625C4.87212 2.625 5.448 2.81039 5.95003 3.11172V1.75H15.3V9.625H13.6V7.875H10.2V9.625H8.1749C8.68224 10.0814 9.05465 10.684 9.22916 11.375H15.725C16.4281 11.375 17 10.7666 17 10.019V1.35598C17 0.608398 16.4281 0 15.725 0Z" fill="#6C7377"/>
</svg>
