<?xml version="1.0" encoding="utf-8"?>
<!-- Generator: Adobe Illustrator 15.1.0, SVG Export Plug-In . SVG Version: 6.00 Build 0)  -->
<!DOCTYPE svg PUBLIC "-//W3C//DTD SVG 1.1//EN" "http://www.w3.org/Graphics/SVG/1.1/DTD/svg11.dtd">
<svg version="1.1" id="Слой_1" xmlns="http://www.w3.org/2000/svg" xmlns:xlink="http://www.w3.org/1999/xlink" x="0px" y="0px"
	 width="100%" height="100%" viewBox="0 0 1024 1024" style="enable-background:new 0 0 1024 1024;" xml:space="preserve">
<path d="M322.536,513.002c90.766,0,164.229-73.463,164.229-164.229c0-90.766-73.463-164.229-164.229-164.229
	c-90.765,0-164.229,73.462-164.229,164.229C158.308,439.539,231.771,513.002,322.536,513.002z M435.15,559.924h-12.171
	c-30.5,14.663-64.372,23.462-100.443,23.462c-36.072,0-69.797-8.799-100.444-23.462h-12.17c-93.258,0-168.92,75.662-168.92,168.922
	v42.229c0,38.858,31.526,70.384,70.383,70.384h422.303c38.857,0,70.384-31.525,70.384-70.384v-42.229
	C604.071,635.586,528.409,559.924,435.15,559.924z M744.838,513.002c77.715,0,140.767-63.052,140.767-140.768
	c0-77.715-63.052-140.767-140.767-140.767c-77.716,0-140.767,63.052-140.767,140.767
	C604.071,449.95,667.122,513.002,744.838,513.002z M815.222,559.924h-5.572c-20.381,7.038-41.937,11.731-64.812,11.731
	s-44.43-4.693-64.812-11.731h-5.572c-29.914,0-57.479,8.65-81.674,22.581c35.777,38.565,58.213,89.739,58.213,146.341v56.306
	c0,3.227-0.733,6.306-0.881,9.386h258.953c38.859,0,70.385-31.527,70.385-70.384C979.45,633.387,905.987,559.924,815.222,559.924z"
	/>
</svg>
