<?xml version="1.0" encoding="utf-8"?>
<!-- Generator: Adobe Illustrator 15.1.0, SVG Export Plug-In . SVG Version: 6.00 Build 0)  -->
<!DOCTYPE svg PUBLIC "-//W3C//DTD SVG 1.1//EN" "http://www.w3.org/Graphics/SVG/1.1/DTD/svg11.dtd">
<svg version="1.1" id="Слой_1" xmlns="http://www.w3.org/2000/svg" xmlns:xlink="http://www.w3.org/1999/xlink" x="0px" y="0px"
	 width="100%" height="100%" viewBox="0 0 1024 1024" style="enable-background:new 0 0 1024 1024;" xml:space="preserve">
<path d="M954.249,564.084H823.836v156.495l-52.164-34.723l-52.166,34.723V564.084H589.094
	c-14.347,0-26.083,11.736-26.083,26.082v312.991c0,14.345,11.736,26.082,26.083,26.082h365.155
	c14.346,0,26.082-11.737,26.082-26.082V590.166C980.331,575.82,968.595,564.084,954.249,564.084z M328.268,459.754h365.156
	c14.346,0,26.082-11.737,26.082-26.083v-312.99c0-14.346-11.736-26.083-26.082-26.083H563.011v156.496l-52.165-34.723
	l-52.165,34.723V94.598H328.268c-14.345,0-26.082,11.737-26.082,26.083v312.99C302.186,448.017,313.923,459.754,328.268,459.754z
	 M432.599,564.084H302.186v156.495l-52.165-34.723l-52.166,34.723V564.084H67.443c-14.345,0-26.082,11.736-26.082,26.082v312.991
	c0,14.345,11.737,26.082,26.082,26.082h365.156c14.346,0,26.083-11.737,26.083-26.082V590.166
	C458.681,575.82,446.944,564.084,432.599,564.084z"/>
</svg>
