<svg width="100%" height="100%" viewBox="0 0 14 14" fill="none" xmlns="http://www.w3.org/2000/svg">
<path d="M13.4249 4.81802L4.58613 13.6549L1.5434 13.9914C0.661542 14.089 -0.0890433 13.3453 0.00856647 12.4569L0.345152 9.41479L9.18388 0.577961C9.95466 -0.192654 11.2 -0.192654 11.9674 0.577961L13.4215 2.0317C14.1923 2.80231 14.1923 4.05078 13.4249 4.81802ZM10.0994 5.85785L8.14384 3.90271L1.89008 10.1585L1.64437 12.3559L3.84227 12.1103L10.0994 5.85785ZM12.2805 3.17584L10.8264 1.72211C10.6884 1.58413 10.4629 1.58413 10.3283 1.72211L9.28823 2.76193L11.2438 4.71707L12.2838 3.67725C12.4185 3.53591 12.4185 3.31381 12.2805 3.17584Z" fill="#778F9B"/>
</svg>
