<svg width="100%" height="100%" viewBox="0 0 11 14" fill="none" 
    xmlns="http://www.w3.org/2000/svg">
    <g clip-path="url(#clip0)">
        <path d="M10.1145 2.67676L7.82031 0.382617C7.57422 0.136523 7.24063 -0.00292969 6.89336 -0.00292969H1.3125C0.587891 -0.000195313 0 0.587695 0 1.3123V12.6873C0 13.4119 0.587891 13.9998 1.3125 13.9998H9.1875C9.91211 13.9998 10.5 13.4119 10.5 12.6873V3.60645C10.5 3.25918 10.3605 2.92285 10.1145 2.67676ZM9.08086 3.4998H7V1.41895L9.08086 3.4998ZM1.3125 12.6873V1.3123H5.6875V4.15605C5.6875 4.51973 5.98008 4.8123 6.34375 4.8123H9.1875V12.6873H1.3125ZM7.10938 6.1248H6.32188C6.20156 6.1248 6.09219 6.19043 6.03477 6.29707C5.54258 7.20215 5.42773 7.45645 5.25273 7.8748C4.87266 7.0791 5.06406 7.40176 4.4707 6.29707C4.41328 6.19043 4.30117 6.1248 4.18086 6.1248H3.39062C3.13633 6.1248 2.98047 6.39824 3.10625 6.61699L4.37227 8.7498L3.10625 10.8826C2.97773 11.1014 3.13633 11.3748 3.39062 11.3748H4.18086C4.30117 11.3748 4.41055 11.3092 4.46797 11.2025C5.06133 10.1088 5.09688 9.97207 5.25 9.6248C5.65742 10.4506 5.41133 10.0596 6.03203 11.2025C6.08945 11.3092 6.20156 11.3748 6.32188 11.3748H7.10938C7.36367 11.3748 7.51953 11.1014 7.39375 10.8826L6.125 8.7498C6.14414 8.71973 6.95352 7.36895 7.39102 6.61699C7.51953 6.39824 7.36094 6.1248 7.10938 6.1248Z" fill="white"/>
    </g>
    <defs>
        <clipPath id="clip0">
            <rect width="10.5" height="14" fill="white"/>
        </clipPath>
    </defs>
</svg>

