<?xml version="1.0" encoding="UTF-8" standalone="no"?>
<!DOCTYPE svg PUBLIC "-//W3C//DTD SVG 1.1//EN" "http://www.w3.org/Graphics/SVG/1.1/DTD/svg11.dtd">
<svg width="100%" height="100%" viewBox="0 0 512 512" version="1.1" xmlns="http://www.w3.org/2000/svg" xmlns:xlink="http://www.w3.org/1999/xlink" xml:space="preserve" xmlns:serif="http://www.serif.com/" style="fill-rule:evenodd;clip-rule:evenodd;stroke-linejoin:round;stroke-miterlimit:2;">
    <path d="M484.854,100.939L29.05,100.939C24.555,100.939 20.91,104.583 20.91,109.078L20.91,402.097C20.91,406.591 24.555,410.236 29.05,410.236L484.856,410.236C489.35,410.236 492.996,406.591 492.996,402.097L492.996,109.078C492.995,104.583 489.35,100.939 484.854,100.939Z" style="fill:rgb(130,195,210);fill-rule:nonzero;"/>
    <path d="M75.787,137.979C75.05,134.859 74.867,133.71 76.266,132.311C76.948,131.629 76.948,130.523 76.266,129.842C75.583,129.159 74.478,129.159 73.796,129.842C70.963,132.675 71.639,135.615 72.372,138.729C70.139,138 67.822,138.541 66.582,140.107C65.966,140.888 64.775,143.079 67.007,146.577C67.527,147.389 68.6,147.628 69.419,147.114C70.233,146.594 70.47,145.513 69.951,144.702C69.115,143.385 69.089,142.571 69.323,142.275C69.6,141.923 70.457,141.738 71.356,142.056C71.936,142.257 73.283,142.953 73.283,145.056C73.283,146.735 72.507,148.274 71.154,149.273C69.798,150.276 68.042,150.559 66.35,150.034C64.261,149.396 62.802,147.195 62.802,144.68C62.802,142.882 63.187,141.063 63.895,139.47C64.008,139.235 66.678,133.703 67.366,131.642C68.726,127.563 67.344,125.513 66.401,124.656C65.138,123.506 63.294,123.219 61.706,123.915C61.464,124.022 61.265,124.177 61.056,124.321C60.847,124.177 60.647,124.023 60.406,123.915C58.819,123.219 56.975,123.506 55.711,124.656C54.767,125.512 53.386,127.564 54.745,131.642C55.433,133.704 58.102,139.235 58.191,139.418C58.922,141.064 59.308,142.882 59.308,144.68C59.308,147.196 57.85,149.396 55.76,150.034C54.062,150.559 52.311,150.28 50.956,149.274C49.602,148.274 48.826,146.735 48.826,145.057C48.826,142.954 50.173,142.259 50.754,142.057C51.654,141.74 52.507,141.923 52.786,142.276C53.02,142.573 52.995,143.385 52.159,144.703C51.639,145.516 51.876,146.597 52.69,147.115C53.51,147.635 54.587,147.392 55.102,146.579C57.333,143.08 56.143,140.891 55.527,140.109C54.284,138.544 51.97,138.002 49.737,138.731C50.47,135.619 51.145,132.677 48.313,129.844C47.631,129.161 46.525,129.161 45.843,129.844C45.16,130.526 45.16,131.632 45.843,132.314C47.241,133.713 47.059,134.862 46.322,137.982C45.88,139.851 45.329,142.182 45.329,145.055C45.329,146.966 46.001,148.794 47.132,150.296L47.076,150.296C46.111,150.296 45.328,151.077 45.328,152.044C45.328,153.009 46.109,153.791 47.076,153.791L47.132,153.791C46.002,155.293 45.329,157.121 45.329,159.032C45.329,161.905 45.879,164.236 46.321,166.106C47.058,169.225 47.241,170.375 45.842,171.773C45.159,172.455 45.159,173.561 45.842,174.243C46.183,174.585 46.63,174.755 47.077,174.755C47.523,174.755 47.972,174.585 48.313,174.243C51.145,171.41 50.47,168.469 49.737,165.356C51.97,166.082 54.286,165.544 55.527,163.978C56.143,163.197 57.334,161.006 55.102,157.508C54.585,156.696 53.505,156.455 52.69,156.972C51.876,157.491 51.639,158.573 52.159,159.384C52.995,160.701 53.021,161.514 52.786,161.81C52.509,162.158 51.654,162.343 50.754,162.029C50.173,161.828 48.826,161.132 48.826,159.029C48.826,157.35 49.602,155.811 50.956,154.812C52.312,153.809 54.066,153.521 55.76,154.051C57.849,154.689 59.308,156.89 59.308,159.405C59.308,161.203 58.923,163.022 58.191,164.667L46.747,190.411C45.806,192.526 45.329,194.776 45.329,197.093C45.329,200.073 46.685,202.795 48.818,204.456C46.685,206.118 45.329,208.84 45.329,211.821C45.329,214.138 45.808,216.387 46.747,218.502L58.189,244.245C58.92,245.891 59.306,247.708 59.306,249.507C59.306,252.023 57.848,254.223 55.758,254.861C54.059,255.391 52.309,255.106 50.954,254.1C49.6,253.1 48.824,251.562 48.824,249.883C48.824,247.781 50.172,247.085 50.752,246.883C51.653,246.569 52.506,246.75 52.784,247.102C53.018,247.398 52.993,248.212 52.157,249.529C51.638,250.341 51.874,251.424 52.689,251.942C53.509,252.461 54.586,252.221 55.101,251.404C57.332,247.905 56.142,245.716 55.526,244.935C54.283,243.369 51.968,242.829 49.735,243.557C50.469,240.445 51.144,237.503 48.311,234.67C47.629,233.988 46.523,233.988 45.841,234.67C45.158,235.352 45.158,236.457 45.841,237.14C47.239,238.538 47.058,239.688 46.32,242.807C45.879,244.677 45.328,247.007 45.328,249.881C45.328,251.792 46,253.621 47.131,255.123L47.075,255.123C46.109,255.123 45.327,255.903 45.327,256.871C45.327,257.837 46.108,258.617 47.075,258.617L47.131,258.617C45.999,260.119 45.328,261.946 45.328,263.859C45.328,266.732 45.878,269.062 46.32,270.934C47.057,274.052 47.24,275.202 45.841,276.599C45.158,277.283 45.158,278.388 45.841,279.071C46.182,279.412 46.63,279.583 47.077,279.583C47.522,279.583 47.971,279.412 48.312,279.071C51.145,276.237 50.469,273.297 49.736,270.183C51.969,270.91 54.284,270.371 55.526,268.805C56.142,268.025 57.333,265.832 55.101,262.335C54.584,261.522 53.504,261.281 52.689,261.799C51.875,262.317 51.638,263.4 52.157,264.21C52.993,265.528 53.018,266.34 52.784,266.638C52.507,266.99 51.653,267.174 50.752,266.855C50.172,266.656 48.825,265.959 48.825,263.856C48.825,262.177 49.601,260.639 50.955,259.64C52.311,258.636 54.065,258.35 55.759,258.877C57.848,259.516 59.308,261.718 59.308,264.231C59.308,266.031 58.923,267.847 58.191,269.494L46.748,295.241C45.807,297.355 45.33,299.606 45.33,301.922C45.33,304.902 46.686,307.626 48.819,309.285C46.686,310.948 45.33,313.67 45.33,316.65C45.33,318.966 45.809,321.215 46.748,323.332L58.19,349.073C58.921,350.719 59.307,352.537 59.307,354.336C59.307,356.853 57.849,359.052 55.759,359.69C54.06,360.221 52.31,359.933 50.955,358.929C49.601,357.929 48.825,356.392 48.825,354.711C48.825,352.608 50.173,351.913 50.753,351.712C51.654,351.398 52.507,351.579 52.785,351.93C53.019,352.227 52.994,353.04 52.158,354.358C51.639,355.17 51.875,356.251 52.69,356.769C53.51,357.289 54.587,357.049 55.102,356.232C57.333,352.735 56.143,350.545 55.527,349.763C54.284,348.194 51.969,347.658 49.736,348.386C50.47,345.275 51.145,342.331 48.312,339.498C47.63,338.816 46.524,338.816 45.842,339.498C45.159,340.181 45.159,341.284 45.842,341.968C47.24,343.367 47.059,344.516 46.321,347.636C45.88,349.506 45.329,351.835 45.329,354.709C45.329,357.447 46.641,360.055 48.835,361.698C46.641,363.341 45.329,365.947 45.329,368.687C45.329,371.558 45.879,373.89 46.321,375.761C47.058,378.878 47.241,380.029 45.842,381.427C45.159,382.11 45.159,383.216 45.842,383.898C46.183,384.239 46.631,384.41 47.078,384.41C47.523,384.41 47.972,384.239 48.313,383.898C51.146,381.065 50.47,378.124 49.737,375.011C51.97,375.737 54.285,375.199 55.527,373.633C56.143,372.852 57.334,370.66 55.102,367.162C54.585,366.35 53.505,366.11 52.69,366.626C51.876,367.145 51.639,368.227 52.158,369.039C52.994,370.355 53.019,371.167 52.785,371.465C52.508,371.816 51.654,371.997 50.753,371.683C50.173,371.484 48.826,370.786 48.826,368.684C48.826,367.005 49.602,365.466 50.956,364.467C52.312,363.464 54.066,363.182 55.76,363.705C57.849,364.344 59.309,366.545 59.309,369.059C59.309,370.857 58.924,372.676 58.216,374.27C58.103,374.504 55.433,380.036 54.745,382.097C53.385,386.175 54.767,388.226 55.71,389.081C56.517,389.816 57.557,390.202 58.619,390.202C59.221,390.202 59.831,390.075 60.407,389.823C60.648,389.717 60.847,389.561 61.056,389.418C61.265,389.562 61.466,389.717 61.706,389.823C62.281,390.075 62.892,390.202 63.494,390.202C64.554,390.202 65.595,389.816 66.402,389.081C67.345,388.226 68.727,386.173 67.367,382.097C66.679,380.035 64.01,374.504 63.921,374.321C63.19,372.675 62.804,370.857 62.804,369.059C62.804,366.543 64.262,364.342 66.353,363.705C68.052,363.179 69.801,363.462 71.157,364.465C72.511,365.466 73.287,367.005 73.287,368.683C73.287,370.786 71.939,371.481 71.359,371.683C70.462,371.997 69.603,371.816 69.327,371.464C69.093,371.167 69.118,370.355 69.955,369.038C70.474,368.225 70.237,367.144 69.422,366.625C68.607,366.114 67.53,366.352 67.01,367.161C64.779,370.659 65.969,372.849 66.585,373.631C67.827,375.196 70.142,375.736 72.376,375.008C71.642,378.121 70.966,381.064 73.799,383.896C74.14,384.239 74.587,384.409 75.034,384.409C75.481,384.409 75.929,384.239 76.27,383.896C76.952,383.215 76.952,382.109 76.27,381.427C74.872,380.029 75.052,378.878 75.791,375.759C76.232,373.89 76.782,371.558 76.782,368.684C76.782,365.947 75.47,363.34 73.276,361.697C75.47,360.052 76.782,357.447 76.782,354.708C76.782,351.834 76.232,349.504 75.791,347.634C75.054,344.516 74.871,343.365 76.27,341.966C76.952,341.283 76.952,340.178 76.27,339.497C75.588,338.813 74.482,338.813 73.8,339.497C70.967,342.329 71.643,345.269 72.376,348.384C70.143,347.655 67.827,348.192 66.585,349.761C65.97,350.541 64.778,352.734 67.01,356.231C67.529,357.043 68.603,357.282 69.422,356.767C70.237,356.248 70.473,355.167 69.955,354.356C69.118,353.038 69.093,352.226 69.327,351.929C69.604,351.578 70.461,351.397 71.359,351.71C71.939,351.911 73.288,352.607 73.288,354.709C73.288,356.389 72.511,357.927 71.158,358.928C69.802,359.931 68.046,360.217 66.354,359.688C64.266,359.049 62.806,356.848 62.806,354.334C62.806,352.536 63.191,350.718 63.923,349.072L75.365,323.33C76.305,321.216 76.783,318.966 76.783,316.65C76.783,313.668 75.428,310.947 73.294,309.285C75.427,307.624 76.783,304.901 76.783,301.921C76.783,299.604 76.305,297.356 75.365,295.239L63.924,269.5C63.193,267.854 62.807,266.036 62.807,264.236C62.807,261.722 64.266,259.52 66.356,258.883C68.055,258.358 69.805,258.64 71.16,259.643C72.514,260.645 73.29,262.183 73.29,263.861C73.29,265.964 71.942,266.659 71.362,266.861C70.465,267.178 69.606,266.996 69.33,266.641C69.096,266.345 69.121,265.534 69.958,264.215C70.478,263.403 70.24,262.322 69.426,261.803C68.61,261.291 67.533,261.531 67.014,262.339C64.783,265.838 65.973,268.028 66.589,268.81C67.831,270.376 70.147,270.915 72.38,270.187C71.646,273.3 70.971,276.243 73.803,279.075C74.145,279.416 74.592,279.587 75.039,279.587C75.486,279.587 75.933,279.416 76.274,279.075C76.956,278.392 76.956,277.288 76.274,276.605C74.876,275.207 75.057,274.055 75.795,270.937C76.237,269.067 76.787,266.736 76.787,263.863C76.787,261.952 76.115,260.123 74.984,258.622L75.04,258.622C76.005,258.622 76.788,257.842 76.788,256.875C76.788,255.909 76.006,255.128 75.04,255.128L74.984,255.128C76.116,253.625 76.787,251.8 76.787,249.886C76.787,247.013 76.237,244.681 75.795,242.812C75.059,239.691 74.875,238.541 76.274,237.145C76.956,236.462 76.956,235.356 76.274,234.674C75.592,233.993 74.486,233.993 73.804,234.674C70.971,237.508 71.648,240.449 72.381,243.561C70.148,242.835 67.831,243.373 66.591,244.94C65.975,245.72 64.784,247.911 67.016,251.409C67.535,252.221 68.609,252.457 69.428,251.946C70.242,251.427 70.479,250.345 69.96,249.534C69.123,248.216 69.098,247.404 69.332,247.106C69.609,246.754 70.466,246.576 71.364,246.889C71.944,247.091 73.292,247.785 73.292,249.887C73.292,251.567 72.516,253.106 71.162,254.106C69.806,255.109 68.05,255.393 66.358,254.866C64.269,254.227 62.809,252.026 62.809,249.512C62.809,247.713 63.195,245.894 63.927,244.25L75.369,218.508C76.309,216.392 76.787,214.142 76.787,211.826C76.787,208.846 75.432,206.123 73.298,204.461C75.431,202.8 76.787,200.078 76.787,197.097C76.787,194.779 76.308,192.531 75.369,190.415L63.927,164.673C63.196,163.028 62.809,161.21 62.809,159.411C62.809,156.896 64.268,154.696 66.358,154.057C68.057,153.532 69.806,153.815 71.162,154.818C72.516,155.819 73.292,157.356 73.292,159.036C73.292,161.138 71.944,161.833 71.364,162.036C70.467,162.35 69.608,162.164 69.332,161.817C69.098,161.521 69.123,160.708 69.96,159.39C70.479,158.578 70.242,157.496 69.428,156.977C68.613,156.466 67.536,156.701 67.016,157.513C64.785,161.012 65.975,163.201 66.591,163.984C67.832,165.549 70.148,166.089 72.381,165.361C71.647,168.473 70.972,171.415 73.804,174.249C74.145,174.59 74.592,174.761 75.04,174.761C75.487,174.761 75.935,174.591 76.276,174.249C76.958,173.567 76.958,172.461 76.276,171.779C74.877,170.38 75.059,169.23 75.796,166.111C76.238,164.241 76.788,161.91 76.788,159.037C76.788,157.126 76.116,155.298 74.985,153.796L75.041,153.796C76.006,153.796 76.789,153.015 76.789,152.048C76.789,151.082 76.007,150.301 75.041,150.301L74.98,150.301C76.111,148.799 76.783,146.973 76.783,145.059C76.777,142.179 76.228,139.849 75.787,137.979ZM58.056,130.533C57.434,128.67 57.652,127.609 58.061,127.236C58.328,126.984 58.734,126.994 58.991,127.11C59.306,127.25 59.306,127.472 59.306,127.581C59.306,128.546 60.087,129.328 61.054,129.328C62.019,129.328 62.802,128.547 62.802,127.581C62.802,127.472 62.802,127.25 63.117,127.11C63.369,126.994 63.772,126.984 64.048,127.236C64.457,127.609 64.673,128.67 64.053,130.533C63.601,131.884 61.966,135.4 61.054,137.309C60.163,135.445 58.51,131.893 58.056,130.533ZM61.053,202.623C61.555,203.305 62.121,203.938 62.812,204.455C62.122,204.973 61.555,205.606 61.053,206.288C60.552,205.606 59.985,204.972 59.295,204.455C59.985,203.937 60.552,203.305 61.053,202.623ZM61.053,307.451C61.555,308.133 62.121,308.766 62.812,309.283C62.122,309.8 61.555,310.433 61.053,311.115C60.552,310.433 59.985,309.8 59.295,309.283C59.985,308.766 60.552,308.135 61.053,307.451ZM64.05,383.206C64.67,385.069 64.454,386.13 64.044,386.503C63.77,386.751 63.366,386.741 63.114,386.629C62.799,386.488 62.799,386.267 62.799,386.157C62.799,385.191 62.018,384.41 61.052,384.41C60.085,384.41 59.304,385.191 59.304,386.157C59.304,386.266 59.304,386.488 58.989,386.629C58.733,386.741 58.327,386.752 58.059,386.503C57.649,386.13 57.433,385.069 58.054,383.206C58.506,381.854 60.14,378.338 61.051,376.43C61.943,378.294 63.596,381.845 64.05,383.206ZM62.795,361.697C62.134,362.213 61.548,362.829 61.053,363.523C60.56,362.829 59.972,362.212 59.311,361.697C59.972,361.183 60.558,360.566 61.053,359.872C61.547,360.566 62.133,361.184 62.795,361.697ZM72.165,321.909L61.053,346.911L49.94,321.909C49.209,320.263 48.822,318.445 48.822,316.647C48.822,314.131 50.281,311.931 52.372,311.293C54.07,310.767 55.822,311.05 57.175,312.054C58.529,313.055 59.305,314.593 59.305,316.272C59.305,318.375 57.958,319.069 57.377,319.272C56.477,319.585 55.62,319.405 55.345,319.053C55.111,318.756 55.136,317.944 55.972,316.626C56.492,315.813 56.255,314.73 55.44,314.213C54.624,313.7 53.548,313.941 53.028,314.75C50.797,318.248 51.987,320.438 52.604,321.22C53.869,322.818 56.249,323.366 58.524,322.572C58.783,322.482 59.045,322.371 59.305,322.239L59.305,326.657C59.305,326.656 59.303,326.655 59.303,326.655C59.25,325.734 58.489,325.009 57.559,325.009C56.594,325.009 55.811,325.788 55.811,326.755C55.811,327.895 56.608,329.871 59.305,330.484L59.305,333.744C59.305,334.709 60.085,335.491 61.052,335.491C62.018,335.491 62.8,334.712 62.8,333.744L62.8,330.484C65.497,329.872 66.294,327.895 66.294,326.755C66.294,325.79 65.515,324.951 64.551,324.951C63.586,324.951 62.807,325.675 62.807,326.639C62.806,326.642 62.8,326.647 62.799,326.649L62.799,322.24C63.058,322.372 63.321,322.482 63.58,322.572C65.855,323.366 68.234,322.817 69.5,321.221C70.116,320.44 71.307,318.249 69.074,314.75C68.555,313.939 67.477,313.699 66.662,314.214C65.848,314.735 65.611,315.815 66.13,316.627C66.967,317.944 66.992,318.756 66.758,319.053C66.481,319.405 65.625,319.585 64.726,319.272C64.146,319.071 62.798,318.376 62.798,316.272C62.798,314.593 63.574,313.055 64.929,312.056C66.284,311.052 68.04,310.765 69.732,311.295C71.821,311.933 73.28,314.133 73.28,316.648C73.283,318.445 72.897,320.266 72.165,321.909ZM72.165,296.657C72.896,298.303 73.283,300.121 73.283,301.92C73.283,304.437 71.825,306.636 69.734,307.274C68.038,307.802 66.283,307.515 64.931,306.511C63.577,305.512 62.801,303.974 62.801,302.295C62.801,300.191 64.149,299.497 64.729,299.295C65.628,298.981 66.486,299.16 66.761,299.513C66.995,299.811 66.97,300.622 66.133,301.942C65.614,302.754 65.851,303.835 66.666,304.352C67.486,304.872 68.563,304.631 69.078,303.816C71.309,300.319 70.119,298.128 69.503,297.346C68.237,295.749 65.858,295.205 63.583,295.995C63.324,296.084 63.062,296.196 62.802,296.326L62.802,291.908L62.805,291.913C62.858,292.832 63.619,293.559 64.549,293.559C65.514,293.559 66.296,292.777 66.296,291.811C66.296,290.671 65.499,288.695 62.802,288.082L62.802,284.823C62.802,283.858 62.021,283.076 61.054,283.076C60.087,283.076 59.307,283.858 59.307,284.823L59.307,288.082C56.61,288.695 55.813,290.672 55.813,291.811C55.813,292.777 56.592,293.616 57.557,293.616C58.522,293.616 59.3,292.892 59.3,291.927C59.301,291.925 59.307,291.919 59.307,291.919L59.308,296.326C59.049,296.195 58.786,296.083 58.527,295.994C56.252,295.205 53.872,295.749 52.607,297.345C51.991,298.125 50.8,300.317 53.032,303.816C53.551,304.628 54.629,304.864 55.444,304.352C56.258,303.833 56.495,302.752 55.975,301.939C55.139,300.622 55.113,299.81 55.348,299.513C55.622,299.16 56.48,298.981 57.379,299.293C57.96,299.496 59.308,300.19 59.308,302.294C59.308,303.972 58.532,305.512 57.178,306.511C55.822,307.515 54.071,307.801 52.375,307.272C50.286,306.634 48.826,304.433 48.826,301.918C48.826,300.119 49.211,298.301 49.943,296.656L61.056,271.653L72.165,296.657ZM62.795,256.87C62.134,257.386 61.548,258.001 61.053,258.696C60.56,258.001 59.972,257.385 59.311,256.87C59.972,256.356 60.558,255.74 61.053,255.043C61.547,255.74 62.133,256.355 62.795,256.87ZM72.165,217.082L61.053,242.083L49.94,217.082C49.209,215.437 48.822,213.618 48.822,211.82C48.822,209.304 50.281,207.104 52.372,206.466C54.07,205.94 55.822,206.223 57.175,207.226C58.529,208.227 59.305,209.765 59.305,211.444C59.305,213.546 57.958,214.241 57.377,214.444C56.477,214.761 55.62,214.577 55.345,214.226C55.111,213.929 55.136,213.116 55.972,211.798C56.492,210.986 56.255,209.905 55.44,209.386C54.624,208.872 53.548,209.11 53.028,209.923C50.797,213.421 51.987,215.611 52.604,216.393C53.869,217.99 56.249,218.535 58.524,217.743C58.783,217.654 59.045,217.542 59.305,217.411L59.305,221.828L59.303,221.823C59.25,220.906 58.489,220.179 57.559,220.179C56.594,220.179 55.811,220.96 55.811,221.926C55.811,223.066 56.608,225.043 59.305,225.655L59.305,228.915C59.305,229.88 60.085,230.661 61.052,230.661C62.018,230.661 62.8,229.881 62.8,228.915L62.8,225.655C65.497,225.043 66.294,223.066 66.294,221.926C66.294,220.961 65.515,220.121 64.551,220.121C63.586,220.121 62.807,220.844 62.807,221.81C62.806,221.812 62.8,221.816 62.8,221.816L62.799,217.41C63.058,217.542 63.321,217.652 63.58,217.743C65.855,218.534 68.234,217.988 69.5,216.392C70.116,215.611 71.307,213.42 69.074,209.921C68.555,209.105 67.477,208.867 66.662,209.384C65.848,209.904 65.611,210.985 66.13,211.796C66.967,213.113 66.992,213.926 66.758,214.223C66.481,214.574 65.625,214.759 64.726,214.441C64.146,214.24 62.798,213.544 62.798,211.441C62.798,209.762 63.574,208.223 64.929,207.224C66.284,206.221 68.04,205.938 69.732,206.463C71.821,207.101 73.28,209.302 73.28,211.817C73.283,213.618 72.897,215.437 72.165,217.082ZM72.165,191.83C72.896,193.474 73.283,195.293 73.283,197.092C73.283,199.607 71.825,201.807 69.734,202.446C68.038,202.975 66.283,202.688 64.931,201.685C63.577,200.685 62.801,199.147 62.801,197.468C62.801,195.365 64.149,194.671 64.729,194.468C65.628,194.155 66.486,194.335 66.761,194.687C66.995,194.983 66.97,195.796 66.133,197.113C65.614,197.926 65.851,199.006 66.666,199.525C67.486,200.04 68.563,199.805 69.078,198.989C71.309,195.49 70.119,193.301 69.503,192.519C68.237,190.922 65.858,190.376 63.583,191.168C63.324,191.258 63.062,191.369 62.802,191.501L62.802,187.083L62.805,187.086C62.858,188.006 63.619,188.732 64.549,188.732C65.514,188.732 66.296,187.951 66.296,186.984C66.296,185.844 65.499,183.867 62.802,183.255L62.802,179.995C62.802,179.029 62.021,178.248 61.054,178.248C60.087,178.248 59.307,179.029 59.307,179.995L59.307,183.255C56.61,183.867 55.813,185.844 55.813,186.984C55.813,187.949 56.592,188.789 57.557,188.789C58.522,188.789 59.3,188.066 59.3,187.101C59.301,187.098 59.307,187.093 59.308,187.091L59.308,191.501C59.049,191.369 58.786,191.257 58.527,191.168C56.252,190.377 53.872,190.923 52.607,192.519C51.991,193.3 50.8,195.491 53.032,198.989C53.551,199.801 54.629,200.037 55.444,199.525C56.258,199.006 56.495,197.924 55.975,197.113C55.139,195.796 55.113,194.983 55.348,194.686C55.622,194.335 56.48,194.154 57.379,194.467C57.96,194.668 59.308,195.364 59.308,197.467C59.308,199.146 58.532,200.685 57.178,201.684C55.822,202.687 54.071,202.974 52.375,202.444C50.286,201.806 48.826,199.606 48.826,197.091C48.826,195.291 49.211,193.473 49.943,191.828L61.056,166.826L72.165,191.83ZM59.311,152.042C59.972,151.527 60.559,150.911 61.053,150.215C61.547,150.911 62.134,151.526 62.795,152.042C62.134,152.556 61.548,153.172 61.053,153.868C60.559,153.172 59.973,152.556 59.311,152.042Z" style="fill:rgb(255,225,90);fill-rule:nonzero;"/>
    <path d="M369.467,247.321C368.237,246.802 366.827,247.395 366.314,248.619L366.314,248.626C366.304,248.648 366.256,248.762 366.175,248.957C364.352,253.212 360.58,259.436 356.772,265.29C360.32,253.873 363.562,241.679 363.789,240.82C364.127,239.54 363.37,238.226 362.091,237.878C360.809,237.534 359.493,238.28 359.135,239.554C357.48,245.485 354.095,253.289 350.972,259.897C351.543,252.529 351.653,245.706 351.66,245.211C351.681,243.907 350.656,242.827 349.352,242.766C348.124,242.804 346.941,243.7 346.845,245.003C343.755,287.48 302.883,306.481 298.904,308.23C296.822,308.437 287.122,309.53 278.32,312.586C277.323,312.933 276.472,313.28 275.625,313.624C275.312,313.508 274.975,313.441 274.619,313.463C247.602,315.416 226.059,304.334 210.577,280.59C198.879,262.65 195.21,243.816 195.174,243.629C194.926,242.32 193.673,241.476 192.358,241.708C191.048,241.957 190.189,243.214 190.436,244.523C190.533,245.044 192.144,253.263 196.577,264.083C190.646,254.72 186.513,243.377 185.057,237.469C185.027,237.349 184.952,237.261 184.908,237.152C184.84,236.985 184.783,236.816 184.682,236.673C184.611,236.569 184.518,236.495 184.434,236.406C184.302,236.266 184.176,236.13 184.014,236.025C183.922,235.965 183.819,235.936 183.718,235.889C183.54,235.806 183.366,235.724 183.168,235.686C183.031,235.661 182.89,235.676 182.748,235.675C182.603,235.673 182.467,235.634 182.318,235.662C182.286,235.667 182.261,235.689 182.229,235.695C182.197,235.703 182.168,235.692 182.137,235.7C182.007,235.73 181.909,235.81 181.791,235.861C181.641,235.927 181.487,235.977 181.354,236.068C181.225,236.157 181.128,236.274 181.02,236.385C180.912,236.496 180.8,236.592 180.715,236.721C180.629,236.851 180.583,236.997 180.522,237.143C180.464,237.284 180.396,237.416 180.366,237.568C180.335,237.724 180.349,237.884 180.35,238.047C180.35,238.177 180.313,238.301 180.337,238.435C180.346,238.493 180.365,238.55 180.375,238.604L180.375,238.613C180.377,238.623 180.382,238.637 180.385,238.649C181.876,247.438 185.432,256.549 188.647,263.498C183.542,257.704 179.275,251.031 177.763,247.079C177.72,246.963 177.633,246.883 177.574,246.78C177.484,246.62 177.406,246.458 177.285,246.325C177.199,246.231 177.095,246.17 176.997,246.092C176.851,245.973 176.712,245.854 176.542,245.774C176.433,245.722 176.315,245.707 176.2,245.67C176.022,245.617 175.85,245.557 175.66,245.545C175.512,245.535 175.364,245.574 175.214,245.592C175.074,245.61 174.937,245.592 174.798,245.636C174.772,245.644 174.754,245.665 174.728,245.675C174.703,245.682 174.677,245.677 174.651,245.687C174.52,245.738 174.427,245.834 174.31,245.903C174.173,245.984 174.026,246.052 173.91,246.156C173.789,246.264 173.706,246.398 173.612,246.526C173.523,246.647 173.423,246.754 173.357,246.889C173.288,247.03 173.262,247.182 173.223,247.335C173.183,247.483 173.13,247.623 173.12,247.776C173.108,247.932 173.147,248.09 173.167,248.248C173.185,248.384 173.167,248.519 173.209,248.654C175.833,257.118 182.144,267.189 187.087,274.282C182.967,271.108 179.939,267.675 179.061,266.637C178.966,266.526 178.873,266.411 178.778,266.298C177.928,265.276 176.426,265.132 175.396,265.963C174.369,266.802 174.208,268.311 175.038,269.341C175.083,269.398 175.264,269.624 175.566,269.978C179.184,274.282 183.126,278.299 186.696,281.692L181.811,279.61C180.697,279.13 179.388,279.563 178.778,280.624C178.168,281.683 178.444,283.024 179.421,283.759C179.897,284.113 188.548,290.574 196.037,294.395C195.33,294.437 194.502,294.386 193.574,294.316C192.442,294.207 191.328,295.017 191.053,296.167C190.782,297.319 191.385,298.499 192.481,298.949C192.665,299.025 194.947,299.968 197.765,300.97C197.108,301.237 196.585,301.789 196.369,302.504C196.044,303.573 196.501,304.733 197.471,305.288C197.724,305.434 201.132,307.39 205.351,309.121C205.239,309.296 205.146,309.485 205.077,309.691C204.747,310.705 205.124,311.815 206.002,312.424C206.734,312.926 223.115,324.043 242.245,324.043C243.501,324.043 244.77,323.996 246.046,323.892C247.372,323.788 248.364,322.625 248.257,321.296C248.152,319.968 247.001,318.964 245.66,319.087C233.642,320.067 222.064,315.555 215.178,312.107C216.087,311.886 216.61,311.682 216.74,311.631C217.803,311.196 218.415,310.081 218.207,308.954C218,307.83 217.03,307.004 215.882,306.981C213.087,306.923 209.215,305.562 205.88,304.101C207.14,303.471 207.876,302.868 207.94,302.815C208.666,302.208 208.972,301.237 208.725,300.326C208.476,299.416 207.716,298.731 206.785,298.582C205.761,298.413 204.483,298.083 203.146,297.678C204.446,296.929 204.999,296.104 205.211,295.684C205.546,295.017 205.553,294.235 205.232,293.563C204.91,292.887 204.295,292.401 203.564,292.246C202.934,292.11 202.219,291.88 201.447,291.578C201.589,291.436 201.718,291.277 201.824,291.093C202.438,290.052 202.185,288.715 201.231,287.965C201.181,287.928 199.31,286.46 196.475,284.015C196.925,283.849 197.323,283.542 197.61,283.129C198.217,282.253 198.176,281.08 197.508,280.25C197.454,280.184 195.58,277.827 192.996,274.248C193.85,274.909 194.702,275.586 195.553,276.134C195.954,276.389 196.408,276.515 196.857,276.515C197.468,276.515 198.069,276.285 198.534,275.837C198.725,275.652 198.874,275.441 198.992,275.215C200.455,276.778 201.992,278.198 203.607,279.407C203.817,279.565 204.072,279.562 204.309,279.641C204.993,280.788 205.705,281.937 206.452,283.085C221.097,305.618 241.745,317.689 266.511,318.412C264.232,319.798 261.757,321.227 257.837,322.755C256.982,323.089 256.225,323.422 255.464,323.758C255.097,323.829 254.754,323.96 254.467,324.191C247.626,327.358 244.793,330.486 243.644,332.677C242.497,334.851 243.486,337.083 244.886,338.242C245.321,338.6 245.876,338.784 246.431,338.784C246.813,338.784 247.195,338.699 247.54,338.525C248.393,338.1 248.963,337.2 248.925,336.254C249.024,336.148 249.443,335.798 250.757,335.756C251.715,335.675 253.732,335.892 256.085,336.08C258.323,336.264 261.009,336.474 263.863,336.62C262.076,338.701 260.001,341.114 260.001,341.114C259.378,341.841 259.24,342.867 259.654,343.727C260.072,344.595 260.97,345.131 261.912,345.098C263.818,345.032 265.111,344.994 265.963,344.976C266.703,345.948 267.614,346.333 268.199,346.483C269.859,346.908 271.512,346.243 272.756,345.458C273.699,346.136 274.641,346.424 275.389,346.531C277.073,346.762 278.631,346.272 279.76,345.716C280.928,346.471 282.073,346.662 282.943,346.662L282.982,346.662C284.865,346.654 286.513,345.745 287.676,344.855C288.706,345.467 289.69,345.663 290.451,345.697C292.177,345.76 293.608,345.095 294.56,344.473C297.958,345.155 300.888,343.555 302.824,341.787C303.708,342.3 304.548,342.429 305.216,342.393C306.939,342.333 308.25,341.286 309.091,340.349C312.945,340.816 315.709,340.105 317.307,338.206C318.18,337.175 318.534,336.013 318.629,334.952C329.319,334.891 330.286,329.054 330.365,328.335C330.435,327.678 330.235,327.024 329.808,326.521C329.384,326.018 328.77,325.707 328.113,325.668L300.088,323.982C298.915,323.896 297.868,324.683 297.597,325.828C297.592,325.847 297.114,327.628 295.618,329.051C293.606,330.972 290.369,331.986 286.845,332.525C286.858,332.202 286.813,331.874 286.689,331.552C286.209,330.31 284.81,329.704 283.572,330.172C277.786,332.419 268.418,332.136 261.088,331.625C262.213,330.707 263.567,329.799 264.65,329.203C265.563,328.7 266.053,327.668 265.86,326.642C265.72,325.895 265.18,325.375 264.528,325.043C266.567,324.014 268.237,323.02 269.823,322.054C272.574,320.367 275.173,318.78 279.907,317.136C289.044,313.963 299.619,312.995 299.725,312.986C299.964,312.966 300.202,312.907 300.423,312.817C300.799,312.661 330.628,300.166 344.681,271.334C344.497,272.204 344.298,273.002 344.084,273.697C343.717,274.885 344.311,276.152 345.455,276.632C346.34,277.003 347.346,276.812 348.027,276.181C347.138,278.521 346.335,280.363 345.679,281.452C345.011,282.558 345.333,283.996 346.409,284.71C346.662,284.876 346.932,284.988 347.209,285.054C346.122,286.647 345.019,288.155 343.92,289.533C343.187,290.451 343.23,291.762 343.995,292.63C342.105,294.607 340.432,296.236 339.16,297.274C338.329,297.948 338.056,299.073 338.438,300.035C337.211,300.736 336.205,301.231 335.505,301.444C334.332,301.797 333.611,302.977 333.832,304.184C333.947,304.82 334.306,305.356 334.8,305.709C333.325,306.105 331.712,306.486 329.96,306.834C328.975,307.031 328.213,307.819 328.051,308.812C327.891,309.806 328.363,310.795 329.235,311.294C329.31,311.336 330.134,311.803 331.396,312.339C326.729,314.219 318.401,316.673 304.731,318.021C303.407,318.152 302.437,319.335 302.569,320.659C302.698,321.983 303.842,322.901 305.206,322.826C331.155,320.26 339.168,313.763 339.495,313.485C340.243,312.859 340.541,311.837 340.243,310.905C340.047,310.287 339.614,309.788 339.055,309.501C347.347,306.892 350.906,304.003 351.091,303.849C352,303.095 352.231,301.791 351.63,300.769C351.027,299.746 349.773,299.302 348.677,299.746C348.369,299.864 347.878,299.986 347.254,300.107C352.818,296.298 358.724,291.761 361.322,289.737C361.776,289.398 362.192,289.072 362.558,288.766C363.566,287.917 363.707,286.418 362.874,285.399C362.048,284.381 360.542,284.211 359.511,285.025C359.135,285.323 358.742,285.629 358.338,285.945C357.14,286.835 355.607,287.843 353.933,288.879C360.248,281.709 366.604,273.938 368.419,271.704C368.585,271.502 368.747,271.302 368.911,271.099C369.745,270.062 369.584,268.545 368.546,267.71C367.508,266.863 365.988,267.038 365.156,268.069L365.151,268.075L365.149,268.08C365.104,268.133 364.901,268.386 364.556,268.809C362.654,271.131 360.651,273.379 358.675,275.479C365.107,263.821 369.977,252.348 370.693,250.646C370.717,250.586 370.742,250.525 370.766,250.462C371.278,249.243 370.697,247.829 369.467,247.321ZM256.434,328.614L257.092,328.699C256.284,329.455 255.627,330.302 255.105,331.175C253.959,331.082 252.92,331.002 252.107,330.966C253.229,330.232 254.673,329.437 256.434,328.614ZM267.396,289.874C267.396,288.132 268.808,286.72 270.551,286.72C272.292,286.72 273.705,288.132 273.705,289.874C273.705,291.617 270.551,299.337 270.551,299.337C270.551,299.337 267.396,291.618 267.396,289.874ZM256.997,288.23C257.337,286.52 258.996,285.412 260.703,285.751C262.414,286.092 263.523,287.751 263.182,289.459C262.843,291.169 258.244,298.125 258.244,298.125C258.244,298.125 256.657,289.938 256.997,288.23ZM277.917,289.459C277.577,287.751 278.687,286.091 280.396,285.751C282.107,285.412 283.765,286.521 284.105,288.23C284.445,289.938 282.857,298.125 282.857,298.125C282.857,298.125 278.258,291.169 277.917,289.459ZM288.155,287C287.489,285.392 288.254,283.547 289.864,282.879C291.473,282.213 293.317,282.978 293.984,284.587C294.65,286.197 294.691,294.536 294.691,294.536C294.691,294.536 288.821,288.609 288.155,287ZM247.117,284.586C247.784,282.977 249.629,282.213 251.238,282.879C252.848,283.545 253.611,285.392 252.946,287C252.279,288.609 246.412,294.535 246.412,294.535C246.412,294.535 246.451,286.195 247.117,284.586ZM297.717,282.591C296.75,281.143 297.139,279.185 298.586,278.216C300.033,277.249 301.993,277.639 302.961,279.086C303.928,280.534 305.596,288.706 305.596,288.706C305.596,288.706 298.684,284.039 297.717,282.591ZM238.138,279.086C239.105,277.638 241.064,277.248 242.513,278.216C243.962,279.184 244.35,281.143 243.383,282.591C242.415,284.039 235.503,288.706 235.503,288.706C235.503,288.706 237.171,280.534 238.138,279.086ZM230.406,271.939C231.637,270.707 233.634,270.707 234.867,271.939C236.099,273.17 236.098,275.168 234.867,276.4C233.635,277.633 225.946,280.86 225.946,280.86C225.946,280.86 229.175,273.173 230.406,271.939ZM306.234,276.4C305.003,275.169 305.003,273.172 306.234,271.939C307.466,270.707 309.462,270.707 310.695,271.939C311.926,273.17 315.156,280.86 315.156,280.86C315.156,280.86 307.467,277.633 306.234,276.4ZM270.544,194.202C293.752,194.202 312.594,213.044 312.594,236.252C312.594,259.46 293.752,278.302 270.544,278.302C247.336,278.302 228.494,259.46 228.494,236.252C228.494,213.044 247.336,194.202 270.544,194.202ZM224.216,263.423C225.664,262.456 227.623,262.845 228.591,264.292C229.558,265.74 229.169,267.699 227.721,268.667C226.273,269.635 218.101,271.303 218.101,271.303C218.101,271.303 222.767,264.39 224.216,263.423ZM313.379,268.667C311.932,267.7 311.543,265.74 312.511,264.292C313.48,262.844 315.438,262.455 316.886,263.423C318.335,264.39 323,271.303 323,271.303C323,271.303 314.827,269.635 313.379,268.667ZM219.807,253.861C221.417,253.194 223.261,253.958 223.927,255.568C224.594,257.177 223.83,259.023 222.22,259.69C220.61,260.355 212.271,260.397 212.271,260.397C212.271,260.397 218.197,254.528 219.807,253.861ZM318.881,259.689C317.271,259.022 316.507,257.176 317.174,255.567C317.84,253.957 319.685,253.193 321.295,253.86C322.903,254.526 328.828,260.394 328.828,260.394C328.828,260.394 320.489,260.355 318.881,259.689ZM217.347,243.624C219.055,243.284 220.716,244.394 221.055,246.103C221.395,247.811 220.285,249.471 218.576,249.811C216.868,250.151 208.681,248.563 208.681,248.563C208.681,248.563 215.638,243.963 217.347,243.624ZM322.522,249.811C320.813,249.471 319.704,247.812 320.044,246.103C320.384,244.394 322.043,243.284 323.752,243.624C325.46,243.965 332.417,248.563 332.417,248.563C332.417,248.563 324.231,250.15 322.522,249.811ZM216.933,233.103C218.674,233.103 220.087,234.516 220.087,236.257C220.087,237.998 218.674,239.412 216.933,239.412C215.19,239.412 207.47,236.257 207.47,236.257C207.47,236.257 215.19,233.103 216.933,233.103ZM324.169,239.411C322.426,239.411 321.013,237.998 321.013,236.256C321.013,234.513 322.426,233.103 324.169,233.103C325.909,233.103 333.63,236.256 333.63,236.256C333.63,236.256 325.909,239.411 324.169,239.411ZM323.754,228.889C322.045,229.229 320.385,228.12 320.045,226.41C319.705,224.7 320.814,223.041 322.524,222.702C324.233,222.361 332.42,223.95 332.42,223.95C332.42,223.95 325.461,228.549 323.754,228.889ZM218.577,222.702C220.285,223.042 221.396,224.701 221.056,226.41C220.716,228.119 219.056,229.229 217.348,228.889C215.639,228.549 208.682,223.95 208.682,223.95C208.682,223.95 216.869,222.362 218.577,222.702ZM321.295,218.652C319.685,219.319 317.84,218.554 317.174,216.944C316.506,215.334 317.271,213.49 318.881,212.824C320.49,212.157 328.828,212.116 328.828,212.116C328.828,212.116 322.904,217.984 321.295,218.652ZM222.22,212.824C223.83,213.491 224.593,215.335 223.927,216.944C223.261,218.553 221.416,219.318 219.807,218.652C218.198,217.985 212.272,212.118 212.272,212.118C212.272,212.118 220.612,212.156 222.22,212.824ZM227.72,203.845C229.169,204.813 229.558,206.772 228.59,208.22C227.623,209.669 225.664,210.058 224.215,209.09C222.766,208.122 218.1,201.211 218.1,201.211C218.1,201.211 226.273,202.878 227.72,203.845ZM316.885,209.09C315.436,210.057 313.478,209.668 312.51,208.22C311.543,206.772 311.932,204.813 313.379,203.845C314.827,202.878 322.999,201.21 322.999,201.21C322.999,201.21 318.334,208.123 316.885,209.09ZM234.867,196.112C236.098,197.344 236.098,199.34 234.867,200.573C233.635,201.805 231.638,201.804 230.406,200.573C229.174,199.341 225.945,191.652 225.945,191.652C225.945,191.652 233.634,194.881 234.867,196.112ZM310.694,200.573C309.462,201.804 307.466,201.804 306.233,200.573C305,199.341 305.002,197.344 306.233,196.112C307.464,194.88 315.154,191.651 315.154,191.651C315.154,191.651 311.926,199.341 310.694,200.573ZM302.962,193.427C301.994,194.875 300.035,195.264 298.587,194.296C297.139,193.328 296.75,191.369 297.717,189.921C298.684,188.472 305.596,183.806 305.596,183.806C305.596,183.806 303.929,191.978 302.962,193.427ZM243.384,189.921C244.351,191.369 243.962,193.328 242.514,194.296C241.066,195.264 239.107,194.874 238.139,193.427C237.172,191.978 235.505,183.807 235.505,183.807C235.505,183.807 242.416,188.474 243.384,189.921ZM293.983,187.927C293.315,189.537 291.471,190.3 289.862,189.634C288.252,188.967 287.489,187.123 288.155,185.513C288.821,183.903 294.69,177.978 294.69,177.978C294.69,177.978 294.649,186.317 293.983,187.927ZM252.946,185.512C253.613,187.122 252.848,188.966 251.238,189.633C249.628,190.3 247.784,189.535 247.117,187.925C246.45,186.315 246.41,177.976 246.41,177.976C246.41,177.976 252.279,183.902 252.946,185.512ZM284.104,184.283C283.763,185.992 282.103,187.102 280.395,186.761C278.687,186.421 277.577,184.761 277.916,183.053C278.257,181.345 282.855,174.388 282.855,174.388C282.855,174.388 284.443,182.575 284.104,184.283ZM263.184,183.053C263.525,184.761 262.415,186.422 260.705,186.761C258.997,187.102 257.337,185.992 256.997,184.283C256.657,182.575 258.244,174.388 258.244,174.388C258.244,174.388 262.844,181.345 263.184,183.053ZM273.703,182.638C273.703,184.38 272.29,185.793 270.55,185.793C268.808,185.793 267.396,184.38 267.396,182.638C267.396,180.897 270.55,173.176 270.55,173.176C270.55,173.176 273.703,180.897 273.703,182.638Z" style="fill:rgb(255,225,90);"/>
</svg>
