<svg width="100%" height="100%" viewBox="0 0 26 19" fill="none" xmlns="http://www.w3.org/2000/svg">
<path opacity="0.7" d="M7.71429 9.08206C10.2013 9.08206 12.2143 7.0619 12.2143 4.56593C12.2143 2.06997 10.2013 0.0498047 7.71429 0.0498047C5.22723 0.0498047 3.21429 2.06997 3.21429 4.56593C3.21429 7.0619 5.22723 9.08206 7.71429 9.08206ZM10.8 10.3724H10.4665C9.6308 10.7756 8.70268 11.0175 7.71429 11.0175C6.72589 11.0175 5.80179 10.7756 4.96205 10.3724H4.62857C2.07321 10.3724 0 12.453 0 15.0175V16.1788C0 17.2474 0.863839 18.1143 1.92857 18.1143H13.5C14.5647 18.1143 15.4286 17.2474 15.4286 16.1788V15.0175C15.4286 12.453 13.3554 10.3724 10.8 10.3724ZM19.2857 9.08206C21.4152 9.08206 23.1429 7.34819 23.1429 5.2111C23.1429 3.074 21.4152 1.34013 19.2857 1.34013C17.1563 1.34013 15.4286 3.074 15.4286 5.2111C15.4286 7.34819 17.1563 9.08206 19.2857 9.08206ZM21.2143 10.3724H21.0616C20.5031 10.5659 19.9125 10.695 19.2857 10.695C18.6589 10.695 18.0683 10.5659 17.5098 10.3724H17.3571C16.5375 10.3724 15.7821 10.6103 15.1192 10.9934C16.0996 12.0538 16.7143 13.4611 16.7143 15.0175V16.5659C16.7143 16.6546 16.6942 16.7393 16.6902 16.824H23.7857C24.8504 16.824 25.7143 15.9571 25.7143 14.8885C25.7143 12.3925 23.7013 10.3724 21.2143 10.3724Z" fill="#0B3B83"/>
</svg>
