<?xml version="1.0" encoding="utf-8"?>
<!-- Generator: Adobe Illustrator 15.1.0, SVG Export Plug-In . SVG Version: 6.00 Build 0)  -->
<!DOCTYPE svg PUBLIC "-//W3C//DTD SVG 1.1//EN" "http://www.w3.org/Graphics/SVG/1.1/DTD/svg11.dtd">
<svg version="1.1" id="Слой_1" xmlns:serif="http://www.serif.com/"
	 xmlns="http://www.w3.org/2000/svg" xmlns:xlink="http://www.w3.org/1999/xlink" x="0px" y="0px" width="100%" height="100%"
	 viewBox="0 0 512 512" enable-background="new 0 0 512 512" xml:space="preserve">
<g>
	<path fill="#FF4B55" d="M482.855,410.08H29.136c-4.475,0-8.103-3.629-8.103-8.103V110.301c0-4.475,3.628-8.103,8.103-8.103h453.72
		c4.474,0,8.103,3.628,8.103,8.103v291.677C490.958,406.453,487.33,410.08,482.855,410.08z"/>
	<g>
		<path fill="#FFE15A" d="M341.695,280.303c0,0-16.14-2.689-28.098-12.606c-3.526-2.924-8.646-5.16-13.631-6.812
			c4.008-0.179,8.26-0.065,12.276,0.746c16.643,3.365,32.779-4.712,32.779-4.712s-16.281,1.643-30.423-4.786
			c-3.825-1.737-8.783-2.556-13.625-2.902c3.481-1.001,7.178-1.785,10.826-1.987c16.954-0.939,30.531-12.825,30.531-12.825
			s-15.341,5.694-30.646,3.039c-4.456-0.773-9.926-0.194-15.019,0.829c3.35-2.104,7.038-4.069,10.864-5.335
			c16.118-5.334,26.122-20.352,26.122-20.352s-13.322,9.503-28.788,10.935c-4.592,0.425-9.823,2.487-14.544,4.862
			c2.724-2.986,5.832-5.941,9.272-8.225c14.147-9.389,19.847-26.51,19.847-26.51s-10.351,12.674-24.895,18.128
			c-3.966,1.487-8.074,4.464-11.766,7.672c1.765-3.207,3.838-6.415,6.302-9.17c11.315-12.657,12.502-30.663,12.502-30.663
			s-6.813,14.878-19.507,23.829c-3.7,2.61-7.158,6.895-10.034,11.225c0.878-3.86,2.093-7.864,3.903-11.472
			c7.617-15.175,4.062-32.866,4.062-32.866s-2.691,16.141-12.606,28.098c-2.926,3.527-5.16,8.646-6.813,13.633
			c-0.178-4.008-0.065-8.259,0.748-12.277c3.363-16.642-4.713-32.778-4.713-32.778s1.641,16.281-4.787,30.421
			c-1.738,3.825-2.558,8.785-2.902,13.627c-1.001-3.483-1.785-7.177-1.987-10.826c-0.94-16.954-12.825-30.532-12.825-30.532
			s5.694,15.341,3.039,30.645c-0.773,4.457-0.194,9.928,0.829,15.02c-2.104-3.349-4.07-7.038-5.335-10.864
			c-5.333-16.119-20.353-26.123-20.353-26.123s9.503,13.322,10.936,28.788c0.425,4.594,2.487,9.825,4.862,14.545
			c-2.985-2.723-5.941-5.832-8.226-9.275c-9.388-14.146-26.51-19.844-26.51-19.844s12.674,10.35,18.127,24.895
			c1.487,3.965,4.465,8.075,7.673,11.764c-3.207-1.763-6.415-3.837-9.17-6.3c-12.658-11.316-30.663-12.503-30.663-12.503
			s14.877,6.813,23.83,19.507c2.607,3.7,6.893,7.159,11.222,10.035c-3.86-0.879-7.863-2.093-11.471-3.904
			c-15.174-7.617-32.865-4.061-32.865-4.061s16.14,2.691,28.097,12.606c3.527,2.925,8.646,5.161,13.633,6.813
			c-4.008,0.178-8.259,0.066-12.277-0.747c-16.642-3.364-32.778,4.714-32.778,4.714s16.281-1.644,30.42,4.784
			c3.825,1.739,8.785,2.558,13.626,2.901c-3.482,1.003-7.177,1.786-10.825,1.989c-16.954,0.938-30.532,12.824-30.532,12.824
			s15.34-5.696,30.645-3.04c4.457,0.773,9.928,0.195,15.02-0.829c-3.349,2.105-7.037,4.071-10.864,5.336
			c-16.119,5.334-26.123,20.353-26.123,20.353s13.322-9.502,28.789-10.935c4.592-0.425,9.825-2.488,14.544-4.862
			c-2.723,2.984-5.832,5.94-9.275,8.225c-14.146,9.389-19.845,26.51-19.845,26.51s10.351-12.673,24.896-18.128
			c3.964-1.487,8.074-4.465,11.764-7.674c-1.764,3.207-3.837,6.417-6.298,9.169c-11.316,12.659-12.503,30.665-12.503,30.665
			s6.813-14.879,19.507-23.829c3.7-2.61,7.159-6.896,10.034-11.225c-0.878,3.86-2.092,7.864-3.904,11.473
			c-7.616,15.174-4.061,32.864-4.061,32.864s2.691-16.141,12.606-28.096c2.926-3.527,5.161-8.648,6.812-13.634
			c0.178,4.009,0.066,8.259-0.746,12.276c-3.364,16.644,4.714,32.778,4.714,32.778s-1.643-16.281,4.785-30.422
			c1.738-3.823,2.559-8.784,2.902-13.625c1.003,3.482,1.785,7.178,1.987,10.825c0.94,16.953,12.825,30.532,12.825,30.532
			s-5.694-15.341-3.04-30.645c0.774-4.456,0.194-9.929-0.829-15.019c2.105,3.349,4.07,7.036,5.337,10.862
			c5.334,16.119,20.351,26.124,20.351,26.124s-9.502-13.322-10.936-28.79c-0.425-4.594-2.486-9.826-4.862-14.544
			c2.986,2.723,5.94,5.831,8.226,9.274c9.389,14.146,26.511,19.845,26.511,19.845s-12.674-10.351-18.127-24.896
			c-1.487-3.965-4.465-8.072-7.673-11.764c3.205,1.764,6.413,3.838,9.168,6.299c12.657,11.316,30.663,12.503,30.663,12.503
			s-14.876-6.813-23.829-19.506c-2.611-3.702-6.894-7.161-11.224-10.037c3.859,0.879,7.861,2.094,11.47,3.904
			C324.004,283.86,341.695,280.303,341.695,280.303z M255.977,297.28c-22.718,0-41.135-18.417-41.135-41.136
			c0-22.719,18.417-41.136,41.135-41.136c22.72,0,41.137,18.417,41.137,41.136C297.113,278.863,278.696,297.28,255.977,297.28z"/>
		<path fill="#FFE15A" d="M242.934,239.497c0.878-0.685,1.75-1.373,2.637-1.983c-5.828-2.651-11.074-3.924-14.755-4.494
			c-0.585,0.637-1.114,1.32-1.65,2C232.779,235.722,237.636,237.062,242.934,239.497z"/>
		<path fill="#FFE15A" d="M232.586,231.204c3.955,0.447,9.681,1.625,16.032,4.357c1.065-0.635,2.124-1.197,3.186-1.74
			c-6.86-2.816-13.051-3.864-17.313-4.189C233.851,230.153,233.186,230.641,232.586,231.204z"/>
		<path fill="#FFE15A" d="M253.18,250.271c-0.821-0.775-1.651-1.508-2.489-2.202c-7.702,7.331-14.439,18.02-17.481,33.53
			c1.106,0.989,2.205,1.991,3.432,2.832C238.876,268.657,245.426,257.768,253.18,250.271z"/>
		<path fill="#FFE15A" d="M250.194,243.458c0.873-0.702,1.744-1.407,2.629-2.035c-1.078-0.687-2.151-1.291-3.221-1.879
			c-0.917,0.628-1.834,1.236-2.741,1.941C247.969,242.096,249.078,242.745,250.194,243.458z"/>
		<path fill="#FFE15A" d="M271.476,241.472c6.604,5.8,12.638,13.968,16.933,25.289c1.102-3.361,1.849-6.886,1.849-10.616
			c0-7.082-2.153-13.66-5.831-19.123C281.02,237.699,276.448,239.022,271.476,241.472z"/>
		<path fill="#FFE15A" d="M253.428,245.662c0.86,0.64,1.703,1.36,2.549,2.07c0.846-0.711,1.688-1.43,2.549-2.07
			c-0.846-0.705-1.691-1.398-2.549-2.032C255.118,244.264,254.275,244.957,253.428,245.662z"/>
		<path fill="#FFE15A" d="M255.977,235.736c-1.076,0.546-2.154,1.162-3.237,1.802c1.077,0.566,2.153,1.174,3.237,1.839
			c1.084-0.664,2.161-1.272,3.237-1.839C258.131,236.897,257.053,236.282,255.977,235.736z"/>
		<path fill="#FFE15A" d="M229.475,277.641c3.626-14.81,10.462-24.954,18.112-31.934c-1.069-0.755-2.134-1.448-3.203-2.089
			c-7.362,6.474-14.024,15.829-18.127,29.306C227.202,274.596,228.271,276.161,229.475,277.641z"/>
		<path fill="#FFE15A" d="M240.478,241.472c-4.973-2.45-9.544-3.771-12.95-4.451c-3.679,5.463-5.832,12.041-5.832,19.123
			c0,3.729,0.746,7.255,1.848,10.617C227.839,255.438,233.874,247.271,240.478,241.472z"/>
		<path fill="#FFE15A" d="M255.977,231.889c7.293-3.013,14.021-4.084,18.805-4.366c-5.402-3.558-11.852-5.659-18.805-5.659
			c-6.953,0-13.402,2.102-18.805,5.659C241.956,227.805,248.684,228.875,255.977,231.889z"/>
		<path fill="#FFE15A" d="M255.977,253.17c-6.837,7.579-12.479,18.455-14.31,34.036c4.366,2.016,9.184,3.218,14.31,3.218
			s9.942-1.202,14.31-3.218C268.455,271.626,262.813,260.749,255.977,253.17z"/>
		<path fill="#FFE15A" d="M267.569,243.618c-1.067,0.643-2.132,1.334-3.203,2.089c7.649,6.979,14.485,17.124,18.112,31.934
			c1.203-1.481,2.272-3.045,3.219-4.717C281.595,259.446,274.932,250.091,267.569,243.618z"/>
		<path fill="#FFE15A" d="M278.742,281.6c-3.041-15.51-9.778-26.199-17.48-33.53c-0.839,0.693-1.669,1.427-2.49,2.202
			c7.754,7.496,14.304,18.386,16.539,34.159C276.539,283.591,277.637,282.589,278.742,281.6z"/>
		<path fill="#FFE15A" d="M260.149,233.821c1.061,0.542,2.122,1.105,3.186,1.739c6.352-2.733,12.077-3.91,16.032-4.357
			c-0.6-0.563-1.264-1.051-1.904-1.572C273.199,229.958,267.009,231.006,260.149,233.821z"/>
		<path fill="#FFE15A" d="M261.76,243.458c1.115-0.713,2.224-1.362,3.333-1.973c-0.904-0.705-1.824-1.313-2.741-1.941
			c-1.069,0.589-2.144,1.192-3.223,1.879C260.014,242.051,260.888,242.757,261.76,243.458z"/>
		<path fill="#FFE15A" d="M269.021,239.497c5.297-2.435,10.152-3.775,13.766-4.477c-0.537-0.679-1.064-1.363-1.651-2
			c-3.681,0.569-8.927,1.842-14.755,4.494C267.27,238.124,268.143,238.812,269.021,239.497z"/>
	</g>
</g>
</svg>
