<?xml version="1.0" encoding="utf-8"?>
<!-- Generator: Adobe Illustrator 15.1.0, SVG Export Plug-In . SVG Version: 6.00 Build 0)  -->
<!DOCTYPE svg PUBLIC "-//W3C//DTD SVG 1.1//EN" "http://www.w3.org/Graphics/SVG/1.1/DTD/svg11.dtd">
<svg version="1.1" id="Слой_1" xmlns="http://www.w3.org/2000/svg" xmlns:xlink="http://www.w3.org/1999/xlink" x="0px" y="0px"
	 width="100%" height="100%" viewBox="0 0 1024 1024" style="enable-background:new 0 0 1024 1024;" xml:space="preserve">
<path  d="M215.955,454.967h24.727c45.241,103.486,148.178,175.836,268.333,175.836
	c120.155,0,223.091-72.35,268.333-175.836h24.727c16.117,0,29.307-13.188,29.307-29.306V249.825
	c0-16.118-13.189-29.306-29.307-29.306h-24.727C732.105,117.032,629.17,44.683,509.015,44.683
	c-120.155,0-223.092,72.349-268.333,175.836h-24.727c-16.118,0-29.306,13.188-29.306,29.306v175.836
	C186.649,441.778,199.836,454.967,215.955,454.967z M289.22,293.784c0-40.479,39.38-73.265,87.918-73.265h263.755
	c48.537,0,87.916,32.786,87.916,73.265v43.959c0,97.076-78.76,175.836-175.836,175.836h-87.917
	c-97.076,0-175.836-78.76-175.836-175.836V293.784z M421.097,425.661l21.979-65.938l65.938-21.979l-65.938-21.979l-21.979-65.938
	l-21.979,65.938l-65.938,21.979l65.938,21.979L421.097,425.661z M698.771,633.367c-54.766,35.351-119.789,56.048-189.757,56.048
	c-69.968,0-134.991-20.697-189.756-56.048C195.624,646.371,98.731,749.857,98.731,876.973v17.584
	c0,48.538,39.38,87.918,87.918,87.918h146.53V865.25c0-32.42,26.192-58.611,58.612-58.611h234.448
	c32.42,0,58.611,26.191,58.611,58.611v117.225h146.531c48.537,0,87.918-39.38,87.918-87.918v-17.584
	C919.299,749.857,822.404,646.371,698.771,633.367z M596.932,865.25c-16.117,0-29.305,13.188-29.305,29.307
	c0,16.117,13.188,29.306,29.305,29.306c16.119,0,29.307-13.188,29.307-29.306C626.238,878.438,613.051,865.25,596.932,865.25z
	 M421.097,865.25c-16.118,0-29.306,13.188-29.306,29.307v87.918h58.612v-87.918C450.402,878.438,437.215,865.25,421.097,865.25z"/>
</svg>
