<?xml version="1.0" encoding="utf-8"?>
<!-- Generator: Adobe Illustrator 15.1.0, SVG Export Plug-In . SVG Version: 6.00 Build 0)  -->
<!DOCTYPE svg PUBLIC "-//W3C//DTD SVG 1.1//EN" "http://www.w3.org/Graphics/SVG/1.1/DTD/svg11.dtd">
<svg version="1.1" id="Слой_1" xmlns:serif="http://www.serif.com/"
	 xmlns="http://www.w3.org/2000/svg" xmlns:xlink="http://www.w3.org/1999/xlink" x="0px" y="0px" width="100%" height="100%"
	 viewBox="0 0 512 512" enable-background="new 0 0 512 512" xml:space="preserve">
<g>
	<path fill="#73AF00" d="M483.146,409.787H29.143c-4.477,0-8.107-3.629-8.107-8.107v-72.965h470.218v72.965
		C491.253,406.158,487.624,409.787,483.146,409.787z"/>
	<path fill="#FF4B55" d="M483.146,101.713H29.143c-4.477,0-8.107,3.63-8.107,8.108v218.894h470.218V109.821
		C491.253,105.343,487.624,101.713,483.146,101.713z"/>
	<path fill="#F5F5F5" d="M85.893,409.787h-56.75c-4.477,0-8.107-3.629-8.107-8.107V109.821c0-4.478,3.63-8.108,8.107-8.108h56.75
		V409.787z"/>
	<path fill="#FF4B55" d="M29.147,396.322h2.867v-8.035h-2.867V396.322z M52.032,396.322h2.868v-8.035h-2.868V396.322z
		 M74.931,396.322h2.854v-8.035h-2.854V396.322z M40.604,374.777h2.839v-6.697h-2.839V374.777z M63.502,374.777h2.854v-6.697h-2.854
		V374.777z M29.147,357.309h2.867v-8.037h-2.867V357.309z M52.032,357.309h2.868v-8.037h-2.868V357.309z M74.931,357.309h2.854
		v-8.037h-2.854V357.309z M34.897,368.08h2.838v-6.756h2.869v-6.697h2.839v6.697h2.882v6.756h2.839v6.697h-2.839v6.752h-2.882v6.756
		h-2.839v-6.756h-2.869v-6.752h-2.838V368.08z M57.783,368.08h2.867v-6.756h2.854v-6.697h2.854v6.697h2.854v6.756h2.868v6.697
		h-2.868v6.752h-2.854v6.756h-2.854v-6.756H60.65v-6.752h-2.867V368.08z M63.502,341.176v6.697h-2.881v6.754h-2.838v6.697h-2.884
		v6.758h-2.868v-6.758h-2.868v-6.697h-2.839v-6.754h-2.882v-6.697h-2.839v6.697h-2.868v6.754h-2.839v6.697h-2.882v6.758h-2.867
		v6.695h2.867v6.754h2.883v6.756h2.838v6.693h2.869v6.699h2.868v-6.699h2.853v-6.693h2.839v-6.756h2.869v-6.754h2.868v6.754h2.883
		v6.756h2.867v6.693h2.854v6.699h2.854v-6.699h2.854v-6.693h2.868v-6.756h2.868v-6.754h2.839v-6.695h-2.854v-6.758H72.08v-6.697
		h-2.868v-6.754h-2.854v-6.697H63.502L63.502,341.176z M70.593,334.482h1.427v-2.68h1.44v2.68h1.441v2.676H73.46v2.736h-1.44v-2.736
		h-1.427V334.482z M70.593,325.105v3.961h-1.412v4.074H67.74v5.359h1.441v4.018h1.412v4.016h4.31v-4.016h1.427V338.5h1.411v-5.359
		H76.33v-4.074h-1.427v-3.961H70.593z M32.015,334.422h1.441v-2.676h1.44v2.676h1.396v2.736h-1.396v2.678h-1.44v-2.678h-1.441
		V334.422z M32.015,325.047v4.018h-1.428v4.018h-1.439v5.416h1.439v4.016h1.428v4.018h4.28v-4.018h1.441v-4.016h1.398v-5.416h-1.398
		v-4.018h-1.441v-4.018H32.015z M47.751,334.422h1.412v-2.676h1.456v2.676h1.412v2.736h-1.412v2.678h-1.456v-2.678h-1.412V334.422z
		 M54.899,334.422h1.441v-2.676h1.442v2.676h1.41v2.736h-1.41v2.678H56.34v-2.678h-1.441V334.422z M54.899,325.047v4.018h-2.868
		v-4.018h-4.28v4.018h-1.427v4.018h-1.441v5.416h1.441v4.016h1.427v4.018h4.28v-4.018h2.868v4.018h4.294v-4.018h1.456v-4.016h1.399
		v-5.416H60.65v-4.018h-1.456v-4.018H54.899z M29.147,322.309h2.867v-8.035h-2.867V322.309z M52.032,322.309h2.868v-8.035h-2.868
		V322.309z M74.931,322.309h2.854v-8.035h-2.854V322.309z M29.147,288.708h2.867v-5.356h-2.867V288.708z M74.931,288.708h2.854
		v-5.356h-2.854V288.708z M52.032,269.9h2.868v-6.697h-2.868V269.9z M29.147,251.733v4.017v0.059v4.017h2.867v-4.017v-0.059v-4.017
		H29.147z M44.883,251.733v4.017v0.059v4.017h2.868v-4.017v-0.059v-4.017H44.883z M59.194,251.733v4.017v0.059v4.017h2.854v-4.017
		v-0.059v-4.017H59.194z M74.931,251.733v4.017v0.059v4.017h2.854v-4.017v-0.059v-4.017H74.931z M56.34,247.018v2.678h-1.441v2.037
		h-2.868v-2.037H50.62v-2.678h-2.868v4.016h1.412v2.038h1.457v2.678v0.059v2.621h-1.457v2.037h-1.412v4.018h2.868v-2.678h1.412
		v-1.981h2.868v1.981h1.441v2.678h2.854v-4.018h-1.411v-2.037h-1.442v-2.621v-0.059v-2.678h1.442v-2.038h1.411v-4.016H56.34
		L56.34,247.018z M52.032,248.354h2.868v-6.698h-2.868V248.354z M29.147,228.205h2.867v-5.356h-2.867V228.205z M74.931,228.205
		h2.854v-5.356h-2.854V228.205z M29.147,197.284h2.867v-8.093h-2.867V197.284z M52.032,197.284h2.868v-8.093h-2.868V197.284z
		 M74.931,197.284h2.854v-8.093h-2.854V197.284z M40.604,255.867v-0.176l0,0v-2.621h2.839v-4.66h2.882v-5.416h4.295v-6.346h1.412
		v-3.086h1.441h1.426v3.027h1.441v6.406h4.309v2.678v2.736h2.854v4.66h2.854v2.679v2.678h-2.854v4.775h-2.854v2.678v2.678H56.34
		v6.35h-1.441v3.027h-1.426h-1.441v-3.027H50.62v-6.35h-4.295v-5.357h-2.882v-4.775h-2.839V255.867z M63.502,181.096v6.754h-2.881
		v6.697h-2.838v6.757h-2.884v5.356V208h-2.868v-6.697h-2.868v-6.757h-2.839v-6.697h-2.882v-6.754h-2.839v6.754h-2.868v6.697h-2.868
		v6.757h-2.853v5.356V208h-2.867v6.754h2.867v6.753h2.854v6.698h2.868v6.698h2.869v-6.698h2.839v-6.698h2.882v-6.753h-2.882v-8.095
		h2.882v1.34v4.076h2.839v10.773h1.457v6.638l-4.294,0.058v5.358h-2.883v4.017h-2.838v6.754h-2.868v-6.754h-2.869v-4.017h-2.854
		v-4.019h-2.868v12.112h2.867v5.415h2.854v4.66h2.868v2.68v0.059v2.621h-2.868v4.774h-2.854v5.357h-2.867v12.112h2.867v-4.078h2.854
		v-4.016h2.868v-6.697h2.869v6.697h2.839v4.016h2.882v5.416l4.295,0.059v6.638h-1.457v10.772h-2.839v4.02v1.398h-2.882v-8.151h2.882
		v-6.699h-2.882v-6.696h-2.839v-6.756h-2.868v6.756h-2.868v6.696h-2.853v6.699h-2.867v6.753h2.867v1.398v5.297h2.883v6.756h2.838
		v6.756h2.869v6.697l0,0l0,0h2.839v-6.697h2.882v-6.756h2.839v-6.756h2.869V303.5h2.868v1.398v5.297h2.883v6.756h2.867v6.756h2.854
		v6.697h2.854v-6.697h2.854v-6.756h2.868v-6.756h2.852V303.5h2.853v-6.753h-2.854v-6.699h-2.852v-6.696h-2.868v-6.756h-2.854v6.756
		h-2.854v6.696h-2.881v6.699h2.881v6.753v1.398h-2.881V303.5v-4.02h-2.838v-10.772h-0.409h-1.033v-6.696h1.033h0.773h1.047h1.456
		v-5.416h2.854v-4.017h2.854v-6.696h2.854v6.696h2.868v4.017h2.868v4.076h2.839v-12.111h-2.84v-5.357h-2.868v-4.775h-2.868v-2.619
		v-0.059v-2.678h2.868v-4.66h2.868v-5.415h2.84v-12.112h-2.84v4.019h-2.868v4.018h-2.868v6.754h-2.854v-6.754h-2.854v-4.018H60.65
		v-5.357h-1.456h-1.047h-0.772h-1.033v-6.697h1.033h0.409v-10.773h2.838V208v-1.34h2.881V208v6.754h-2.881v6.753h2.881v6.698h2.854
		v6.698h2.854v-6.698h2.866v-6.698h2.854v-6.753h2.856V208h-2.854v-6.698H72.08v-6.757h-2.868v-6.697h-2.854v-6.753L63.502,181.096
		L63.502,181.096z M32.015,174.4h1.414v-2.678h1.469v2.678h1.397v2.679h-1.397v2.737h-1.469v-2.737h-1.414V174.4z M32.015,168.984
		h-1.428v4.076h-1.439v5.358h1.439v4.076h1.428v4.019h4.28v-4.019h1.441v-4.076h1.398v-5.358h-1.398v-4.076h-1.441v-3.96h-4.28
		V168.984z M47.751,174.4h1.412v-2.678h1.456v2.678h1.412v2.679h-1.412v2.737h-1.456v-2.737h-1.412V174.4z M54.899,174.4h1.441
		v-2.678h1.442v2.678h1.41v2.679h-1.41v2.737H56.34v-2.737h-1.441V174.4z M47.751,168.984h-1.427v4.076h-1.441v5.358h1.441v4.076
		h1.427v4.019h4.28v-4.019h2.868v4.019h4.294v-4.019h1.456v-4.076h1.399v-5.358h-1.399v-4.076h-1.456v-3.96h-4.294v3.96h-2.868
		v-3.96h-4.28V168.984z M70.593,174.342h1.427v-2.62h1.44v2.62h1.441v2.737H73.46v2.677h-1.44v-2.677h-1.427V174.342z
		 M70.593,164.967v4.017h-1.412v4.076H67.74v5.358h1.441v4.017h1.412v4.019h4.31v-4.019h1.427v-4.017h1.411v-5.358H76.33v-4.076
		h-1.427v-4.017H70.593z M29.147,162.289h2.867v-8.036h-2.867V162.289z M52.032,162.289h2.868v-8.036h-2.868V162.289z
		 M74.931,162.289h2.854v-8.036h-2.854V162.289z M40.604,143.48h2.839v-6.757h-2.839V143.48z M63.502,143.48h2.854v-6.757h-2.854
		V143.48z M29.147,123.272h2.867v-8.036h-2.867V123.272z M52.032,123.272h2.868v-8.036h-2.868V123.272z M74.931,123.272h2.854
		v-8.036h-2.854V123.272z M34.897,136.724h2.838v-6.697h2.869v-6.755h2.839v6.755h2.882v6.697h2.839v6.756h-2.839v6.697h-2.882
		v6.753h-2.839v-6.753h-2.869v-6.697h-2.838V136.724z M57.783,136.724h2.867v-6.697h2.854v-6.755h2.854v6.755h2.854v6.697h2.868
		v6.756h-2.868v6.697h-2.854v6.753h-2.854v-6.753H60.65v-6.697h-2.867V136.724z M63.502,109.821v6.756h-2.854v6.697h-2.866v6.754
		h-2.884v6.696h-2.868v-6.696h-2.868v-6.754h-2.839v-6.697h-2.853v-6.756h-2.868v6.756h-2.868v6.697h-2.839v6.754h-2.882v6.696
		h-2.867v6.757h2.867v6.697h2.883v6.754h2.838v6.754h2.869v6.697h2.839v-6.697h2.882v-6.754h2.839v-6.754h2.869v-6.697h2.868v6.697
		h2.883v6.754h2.838v6.754h2.881v6.697h2.854v-6.697h2.854v-6.754h2.868v-6.754h2.852v-6.697h2.854v-6.757h-2.839v-6.696h-2.869
		v-6.754h-2.866v-6.697h-2.854v-6.756H63.502z"/>
</g>
</svg>
