<?xml version="1.0" encoding="utf-8"?>
<!-- Generator: Adobe Illustrator 15.1.0, SVG Export Plug-In . SVG Version: 6.00 Build 0)  -->
<!DOCTYPE svg PUBLIC "-//W3C//DTD SVG 1.1//EN" "http://www.w3.org/Graphics/SVG/1.1/DTD/svg11.dtd">
<svg version="1.1" id="Слой_1" xmlns="http://www.w3.org/2000/svg" xmlns:xlink="http://www.w3.org/1999/xlink" x="0px" y="0px"
	 width="100%" height="100%" viewBox="0 0 1024 1024" style="enable-background:new 0 0 1024 1024;" xml:space="preserve">
<path d="M980.972,513.77c0,259.464-210.308,469.695-469.695,469.695
	c-259.388,0-469.696-210.231-469.696-469.695c0-259.312,210.308-469.696,469.696-469.696
	C770.664,44.074,980.972,254.458,980.972,513.77z M511.277,608.466c-48.115,0-87.121,39.006-87.121,87.12
	c0,48.116,39.006,87.122,87.121,87.122c48.115,0,87.122-39.006,87.122-87.122C598.398,647.472,559.392,608.466,511.277,608.466z
	 M428.563,295.312l14.049,257.575c0.657,12.054,10.623,21.487,22.693,21.487h91.943c12.068,0,22.035-9.434,22.691-21.487
	l14.05-257.575c0.71-13.019-9.654-23.965-22.693-23.965H451.254C438.216,271.346,427.853,282.292,428.563,295.312L428.563,295.312z"
	/>
</svg>
