<?xml version="1.0" encoding="utf-8"?>
<!-- Generator: Adobe Illustrator 15.1.0, SVG Export Plug-In . SVG Version: 6.00 Build 0)  -->
<!DOCTYPE svg PUBLIC "-//W3C//DTD SVG 1.1//EN" "http://www.w3.org/Graphics/SVG/1.1/DTD/svg11.dtd">
<svg version="1.1" id="Слой_1" xmlns="http://www.w3.org/2000/svg" xmlns:xlink="http://www.w3.org/1999/xlink" x="0px" y="0px"
	 width="100%" height="100%" viewBox="0 0 1024 1024" style="enable-background:new 0 0 1024 1024;" xml:space="preserve">
<path d="M940.243,201.141H223.307c-33.986,0-62.964,21.797-73.727,52.141h-69.66
	c-21.598,0-39.105,17.508-39.105,39.105v443.196c0,50.395,40.852,91.248,91.247,91.248h808.183
	c21.597,0,39.105-17.508,39.105-39.105V240.248C979.349,218.65,961.84,201.141,940.243,201.141z M119.025,735.584V331.493h26.07
	v404.091c0,7.188-5.848,13.035-13.035,13.035C124.873,748.619,119.025,742.771,119.025,735.584z M901.138,748.619H222.365
	c0.609-4.258,0.942-8.605,0.942-13.035V279.353h677.831V748.619z M321.071,553.092h221.598c10.798,0,19.553-8.754,19.553-19.553
	V377.117c0-10.798-8.755-19.553-19.553-19.553H321.071c-10.798,0-19.553,8.754-19.553,19.553v156.422
	C301.518,544.338,310.273,553.092,321.071,553.092z M366.694,422.74h130.352v65.176H366.694V422.74z M301.518,650.855V611.75
	c0-10.797,8.755-19.553,19.553-19.553h221.598c10.798,0,19.553,8.756,19.553,19.553v39.105c0,10.799-8.755,19.555-19.553,19.555
	H321.071C310.273,670.41,301.518,661.654,301.518,650.855z M614.362,650.855V611.75c0-10.797,8.755-19.553,19.554-19.553h169.458
	c10.797,0,19.552,8.756,19.552,19.553v39.105c0,10.799-8.755,19.555-19.552,19.555H633.916
	C623.117,670.41,614.362,661.654,614.362,650.855z M614.362,416.222v-39.105c0-10.798,8.755-19.553,19.554-19.553h169.458
	c10.797,0,19.552,8.754,19.552,19.553v39.105c0,10.798-8.755,19.553-19.552,19.553H633.916
	C623.117,435.775,614.362,427.021,614.362,416.222z M614.362,533.539v-39.105c0-10.798,8.755-19.554,19.554-19.554h169.458
	c10.797,0,19.552,8.755,19.552,19.554v39.105c0,10.799-8.755,19.553-19.552,19.553H633.916
	C623.117,553.092,614.362,544.338,614.362,533.539z"/>
</svg>
