<svg height="100%" viewBox="0 0 64 64" width="100%" xmlns="http://www.w3.org/2000/svg"><g id="Action_camera-2" data-name="Action camera"><path d="m10 41h19v16h-7v4h20v-4h-7v-16h19a2.006 2.006 0 0 0 2-2v-26a2.006 2.006 0 0 0 -2-2h-2v-6a2.006 2.006 0 0 0 -2-2h-36a2.006 2.006 0 0 0 -2 2v6h-2a2.006 2.006 0 0 0 -2 2v26a2.006 2.006 0 0 0 2 2zm39-24a7 7 0 1 1 -7-7 6.995 6.995 0 0 1 7 7zm-37 16v-18h20v12h20v10h-40z" /><circle cx="42" cy="17"  r="2"/><path d="m16 19h12v8h-12z" /><path d="m11 45v8h4v-2h10v-4h-10v-2z"/><g ><path d="m54 10h-1v-5a3 3 0 0 0 -3-3h-36a3 3 0 0 0 -3 3v5h-1a3 3 0 0 0 -3 3v26a3 3 0 0 0 3 3h18v2h-3a1 1 0 0 0 -1 1v1h-8v-1a1 1 0 0 0 -1-1h-4a1 1 0 0 0 -1 1v8a1 1 0 0 0 1 1h4a1 1 0 0 0 1-1v-1h8v1a1 1 0 0 0 1 1h3v2h-6a1 1 0 0 0 -1 1v4a1 1 0 0 0 1 1h20a1 1 0 0 0 1-1v-4a1 1 0 0 0 -1-1h-6v-4h3a1 1 0 0 0 1-1v-4a1 1 0 0 0 -1-1h-3v-4h18a3 3 0 0 0 3-3v-26a3 3 0 0 0 -3-3zm-22 18h19v8h-38v-20h18v11a1 1 0 0 0 1 1zm1-2v-18h18v18zm-20-21a1 1 0 0 1 1-1h36a1 1 0 0 1 1 1v1h-19a1 1 0 0 0 -1 1v3h-18zm1 47h-2v-6h2zm2-2v-2h8v2zm10 2v-6h2v6zm15 8h-18v-2h18zm-3-12v2h-2v-2zm-4 8h-4v-14h4zm21-17a1 1 0 0 1 -1 1h-44a1 1 0 0 1 -1-1v-26a1 1 0 0 1 1-1h21v2h-19a1 1 0 0 0 -1 1v22a1 1 0 0 0 1 1h40a1 1 0 0 0 1-1v-25h1a1 1 0 0 1 1 1z"/><path d="m42 9a8 8 0 1 0 8 8 8.009 8.009 0 0 0 -8-8zm0 14a6 6 0 1 1 6-6 6.006 6.006 0 0 1 -6 6z"/><path d="m42 14a3 3 0 1 0 3 3 3 3 0 0 0 -3-3zm0 4a1 1 0 1 1 1-1 1 1 0 0 1 -1 1z"/><path d="m33 32h4v2h-4z"/><path d="m15 32h4v2h-4z"/><path d="m27 32h4v2h-4z"/><path d="m21 32h4v2h-4z"/><path d="m39 32h4v2h-4z"/><path d="m45 32h4v2h-4z"/><path d="m16 28h12a1 1 0 0 0 1-1v-8a1 1 0 0 0 -1-1h-12a1 1 0 0 0 -1 1v8a1 1 0 0 0 1 1zm1-8h10v6h-10z"/></g></g></svg>