<?xml version="1.0" encoding="UTF-8" standalone="no"?>
<!DOCTYPE svg PUBLIC "-//W3C//DTD SVG 1.1//EN" "http://www.w3.org/Graphics/SVG/1.1/DTD/svg11.dtd">
<svg width="100%" height="100%" viewBox="0 0 128 128" version="1.1" xmlns="http://www.w3.org/2000/svg" xmlns:xlink="http://www.w3.org/1999/xlink" xml:space="preserve" xmlns:serif="http://www.serif.com/" style="fill-rule:evenodd;clip-rule:evenodd;stroke-linejoin:round;stroke-miterlimit:2;">
    <path d="M14.211,72.829L8.364,66.983C5.889,64.507 5.889,60.504 8.364,58.055L59.536,6.857C62.012,4.381 66.015,4.381 68.464,6.857L119.636,58.028C122.111,60.504 122.111,64.507 119.636,66.956L113.789,72.803C111.287,75.305 107.205,75.252 104.755,72.698L74.548,40.989L74.548,116.679C74.548,120.182 71.73,123 68.227,123L59.799,123C56.297,123 53.479,120.182 53.479,116.679L53.479,40.989L23.245,72.724C20.795,75.305 16.713,75.358 14.211,72.829Z" style="fill-rule:nonzero;"/>
</svg>
