<?xml version="1.0" encoding="utf-8"?>
<!-- Generator: Adobe Illustrator 15.1.0, SVG Export Plug-In . SVG Version: 6.00 Build 0)  -->
<!DOCTYPE svg PUBLIC "-//W3C//DTD SVG 1.1//EN" "http://www.w3.org/Graphics/SVG/1.1/DTD/svg11.dtd">
<svg version="1.1" id="Слой_1" xmlns:serif="http://www.serif.com/"
	 xmlns="http://www.w3.org/2000/svg" xmlns:xlink="http://www.w3.org/1999/xlink" x="0px" y="0px" width="100%" height="100%"
	 viewBox="0 0 512 512" style="enable-background:new 0 0 512 512;" xml:space="preserve">
<path d="M283.521,30.56L174.625,139.442H49.708c-16.229,0-29.375,13.146-29.375,29.375v176.25c0,16.218,13.146,29.375,29.375,29.375
	h124.917l108.895,108.871c18.397,18.396,50.146,5.471,50.146-20.771V51.342C333.667,25.063,301.893,12.2,283.521,30.56z
	 M434.313,162.845c-14.173-7.748-32.057-2.644-39.915,11.566c-7.819,14.21-2.644,32.068,11.568,39.914
	c15.802,8.69,25.617,25.018,25.617,42.618c0,17.601-9.815,33.929-25.605,42.606c-14.212,7.846-19.387,25.703-11.567,39.913
	c7.869,14.271,25.765,19.338,39.915,11.566c34.55-19.032,56.02-55.078,56.02-94.098C490.346,217.91,468.876,181.877,434.313,162.845
	z"/>
</svg>
