<?xml version="1.0" encoding="utf-8"?>
<!-- Generator: Adobe Illustrator 15.1.0, SVG Export Plug-In . SVG Version: 6.00 Build 0)  -->
<!DOCTYPE svg PUBLIC "-//W3C//DTD SVG 1.1//EN" "http://www.w3.org/Graphics/SVG/1.1/DTD/svg11.dtd">
<svg version="1.1" id="Слой_1" xmlns:serif="http://www.serif.com/"
	 xmlns="http://www.w3.org/2000/svg" xmlns:xlink="http://www.w3.org/1999/xlink" x="0px" y="0px" width="100%" height="100%"
	 viewBox="0 0 512 512" enable-background="new 0 0 512 512" xml:space="preserve">
<g>
	<path fill="#73AF00" d="M21.605,307.32h468.562v94.251c0,4.461-3.618,8.077-8.078,8.077H29.685c-4.461,0-8.079-3.616-8.079-8.077
		V307.32z"/>
	<path fill="#82AFFF" d="M29.685,102.661H482.09c4.46,0,8.078,3.618,8.078,8.079v94.25H21.605v-94.25
		C21.605,106.278,25.223,102.661,29.685,102.661z"/>
	<rect x="21.605" y="204.988" fill="#FF4B55" width="468.562" height="102.325"/>
	<g>
		<path fill="#F5F5F5" d="M266.904,289.656c-18.128,0-32.836-14.707-32.836-32.852c0-18.113,14.708-32.852,32.836-32.852
			c6.746,0,12.967,2.073,18.15,5.585c0.794,0.538,1.699-0.507,1.035-1.198c-7.748-8.054-18.715-12.97-30.871-12.554
			c-20.887,0.712-38.179,17.458-39.513,38.316c-1.53,23.89,17.386,43.741,40.938,43.741c11.602,0,22.028-4.849,29.475-12.603
			c0.657-0.685-0.25-1.713-1.037-1.181C279.894,287.581,273.663,289.656,266.904,289.656z"/>
		<path fill="#F5F5F5" d="M295.651,236.581l3.408,9.58l9.182-4.365c0.692-0.33,1.414,0.392,1.085,1.084l-4.364,9.183l9.579,3.407
			c0.722,0.256,0.722,1.276,0,1.533l-9.579,3.408l4.364,9.182c0.329,0.69-0.393,1.414-1.085,1.084l-9.182-4.364l-3.408,9.58
			c-0.256,0.722-1.278,0.722-1.533,0l-3.408-9.58l-9.181,4.364c-0.692,0.33-1.414-0.394-1.086-1.084l4.364-9.182l-9.578-3.408
			c-0.723-0.257-0.723-1.277,0-1.533l9.578-3.407l-4.364-9.183c-0.328-0.692,0.394-1.414,1.086-1.084l9.181,4.365l3.408-9.58
			C294.375,235.86,295.396,235.86,295.651,236.581z"/>
	</g>
</g>
</svg>
