<?xml version="1.0" encoding="utf-8"?>
<!-- Generator: Adobe Illustrator 15.1.0, SVG Export Plug-In . SVG Version: 6.00 Build 0)  -->
<!DOCTYPE svg PUBLIC "-//W3C//DTD SVG 1.1//EN" "http://www.w3.org/Graphics/SVG/1.1/DTD/svg11.dtd">
<svg version="1.1" id="Слой_1" xmlns="http://www.w3.org/2000/svg" xmlns:xlink="http://www.w3.org/1999/xlink" x="0px" y="0px"
	 width="100%" height="100%" viewBox="0 0 1024 1024" style="enable-background:new 0 0 1024 1024;" xml:space="preserve">
<path d="M595.65,806.396H478.577c-16.165,0-29.269,13.106-29.269,29.271v58.536
	c0,16.164,13.104,29.269,29.269,29.269H595.65c16.165,0,29.269-13.104,29.269-29.269v-58.536
	C624.919,819.502,611.815,806.396,595.65,806.396z M361.502,689.321h-87.806V133.22c0-16.164-13.104-29.269-29.269-29.269h-58.537
	c-16.165,0-29.269,13.104-29.269,29.269v556.102H68.816c-25.958,0-39.092,31.538-20.652,49.959l146.343,175.611
	c11.428,11.42,29.95,11.42,41.378,0L382.228,739.28C400.558,720.896,387.515,689.321,361.502,689.321z M829.799,338.1H478.577
	c-16.165,0-29.269,13.104-29.269,29.269v58.537c0,16.164,13.104,29.268,29.269,29.268h351.222c16.166,0,29.27-13.104,29.27-29.268
	v-58.537C859.068,351.204,845.965,338.1,829.799,338.1z M712.725,572.247H478.577c-16.165,0-29.269,13.105-29.269,29.271v58.536
	c0,16.164,13.104,29.268,29.269,29.268h234.148c16.165,0,29.27-13.104,29.27-29.268v-58.536
	C741.994,585.353,728.89,572.247,712.725,572.247z M946.873,103.951H478.577c-16.165,0-29.269,13.104-29.269,29.269v58.537
	c0,16.165,13.104,29.269,29.269,29.269h468.296c16.166,0,29.27-13.104,29.27-29.269V133.22
	C976.143,117.056,963.039,103.951,946.873,103.951z"/>
</svg>
