<svg width="100%" height="100%" viewBox="0 0 15 14" fill="none" 
    xmlns="http://www.w3.org/2000/svg">
    <path d="M0.9375 13C0.9375 13.5531 1.35645 14 1.875 14H13.125C13.6436 14 14.0625 13.5531 14.0625 13V4H0.9375V13ZM5.625 6.375C5.625 6.16875 5.7832 6 5.97656 6H9.02344C9.2168 6 9.375 6.16875 9.375 6.375V6.625C9.375 6.83125 9.2168 7 9.02344 7H5.97656C5.7832 7 5.625 6.83125 5.625 6.625V6.375ZM14.0625 0H0.9375C0.418945 0 0 0.446875 0 1V2.5C0 2.775 0.210938 3 0.46875 3H14.5312C14.7891 3 15 2.775 15 2.5V1C15 0.446875 14.5811 0 14.0625 0Z" fill="#6C7377"/>
</svg>
