<svg width="100%" height="100%" viewBox="0 0 18 14" fill="none" 
    xmlns="http://www.w3.org/2000/svg">
    <path d="M5.76336 9.625C5.69714 9.625 5.63092 9.63457 5.56774 9.6548C5.20864 9.76992 4.83098 9.84375 4.43337 9.84375C4.03575 9.84375 3.65809 9.76992 3.29871 9.6548C3.23554 9.63457 3.16959 9.625 3.10337 9.625C1.3838 9.625 -0.00909897 11.0053 4.47621e-05 12.7045C0.00392392 13.4225 0.602145 14 1.33004 14H7.53669C8.26459 14 8.86281 13.4225 8.86669 12.7045C8.87583 11.0053 7.48294 9.625 5.76336 9.625ZM4.43337 8.75C5.90246 8.75 7.09336 7.57477 7.09336 6.125C7.09336 4.67523 5.90246 3.5 4.43337 3.5C2.96428 3.5 1.77337 4.67523 1.77337 6.125C1.77337 7.57477 2.96428 8.75 4.43337 8.75ZM16.4033 0H5.76336C5.02993 0 4.43337 0.608398 4.43337 1.35598V2.625C5.08229 2.625 5.68301 2.81039 6.2067 3.11172V1.75H15.96V9.625H14.1867V7.875H10.64V9.625H8.52754C9.05677 10.0814 9.44524 10.684 9.62728 11.375H16.4033C17.1368 11.375 17.7333 10.7666 17.7333 10.019V1.35598C17.7333 0.608398 17.1368 0 16.4033 0Z" fill="#778F9B"/>
</svg>
