<?xml version="1.0" encoding="utf-8"?>
<!-- Generator: Adobe Illustrator 15.1.0, SVG Export Plug-In . SVG Version: 6.00 Build 0)  -->
<!DOCTYPE svg PUBLIC "-//W3C//DTD SVG 1.1//EN" "http://www.w3.org/Graphics/SVG/1.1/DTD/svg11.dtd">
<svg version="1.1" id="Слой_1" xmlns="http://www.w3.org/2000/svg" xmlns:xlink="http://www.w3.org/1999/xlink" x="0px" y="0px"
	 width="100%" height="100%" viewBox="0 0 1024 1024" style="enable-background:new 0 0 1024 1024;" xml:space="preserve">
<path d="M979.354,513.817c0,259.138-210.045,469.106-469.106,469.106
	c-259.063,0-469.107-209.969-469.107-469.106c0-258.987,210.044-469.107,469.107-469.107
	C769.309,44.71,979.354,254.831,979.354,513.817z M522.834,199.818c-103.083,0-168.831,43.425-220.458,120.603
	c-6.688,9.999-4.451,23.483,5.135,30.753l65.636,49.767c9.846,7.466,23.874,5.69,31.523-4.014
	c33.791-42.859,56.96-67.712,108.391-67.712c38.644,0,86.441,24.87,86.441,62.342c0,28.328-23.385,42.875-61.541,64.268
	c-44.496,24.943-103.376,55.991-103.376,133.656v7.566c0,12.535,10.163,22.698,22.699,22.698h105.928
	c12.535,0,22.698-10.163,22.698-22.698v-2.522c0-53.836,157.352-56.078,157.352-201.766
	C743.261,283.043,629.455,199.818,522.834,199.818z M510.247,668.925c-47.98,0-87.012,39.033-87.012,87.012
	c0,47.978,39.032,87.013,87.012,87.013c47.979,0,87.011-39.035,87.011-87.013C597.258,707.958,558.227,668.925,510.247,668.925z"/>
</svg>
