<?xml version="1.0" encoding="utf-8"?>
<!-- Generator: Adobe Illustrator 15.1.0, SVG Export Plug-In . SVG Version: 6.00 Build 0)  -->
<!DOCTYPE svg PUBLIC "-//W3C//DTD SVG 1.1//EN" "http://www.w3.org/Graphics/SVG/1.1/DTD/svg11.dtd">
<svg version="1.1" id="Слой_1" xmlns="http://www.w3.org/2000/svg" xmlns:xlink="http://www.w3.org/1999/xlink" x="0px" y="0px"
	 width="100%" height="100%" viewBox="0 0 1024 1024" style="enable-background:new 0 0 1024 1024;" xml:space="preserve">
<path d="M901.885,148.93H118.618c-43.243,0-78.326,35.083-78.326,78.326v26.11h939.919v-26.11
	C980.211,184.014,945.127,148.93,901.885,148.93z M40.292,801.651c0,43.244,35.083,78.329,78.326,78.329h783.267
	c43.242,0,78.326-35.085,78.326-78.329V305.583H40.292V801.651z M614.686,423.074c0-7.18,5.874-13.055,13.054-13.055h234.98
	c7.181,0,13.056,5.875,13.056,13.055v26.108c0,7.18-5.875,13.055-13.056,13.055h-234.98c-7.18,0-13.054-5.875-13.054-13.055V423.074
	z M614.686,527.51c0-7.18,5.874-13.056,13.054-13.056h234.98c7.181,0,13.056,5.876,13.056,13.056v26.109
	c0,7.182-5.875,13.054-13.056,13.054h-234.98c-7.18,0-13.054-5.872-13.054-13.054V527.51z M614.686,631.947
	c0-7.182,5.874-13.058,13.054-13.058h234.98c7.181,0,13.056,5.876,13.056,13.058v26.106c0,7.179-5.875,13.054-13.056,13.054h-234.98
	c-7.18,0-13.054-5.875-13.054-13.054V631.947z M327.488,410.019c57.603,0,104.437,46.833,104.437,104.436
	c0,57.604-46.834,104.436-104.437,104.436c-57.603,0-104.435-46.831-104.435-104.436
	C223.054,456.852,269.886,410.019,327.488,410.019z M149.786,743.234c13.706-41.937,53.032-72.127,99.377-72.127h13.38
	c20.071,8.324,41.938,13.055,64.945,13.055c23.009,0,45.038-4.73,64.947-13.055h13.379c46.343,0,85.671,30.19,99.377,72.127
	c5.222,16.154-8.486,32.31-25.455,32.31H175.242C158.271,775.544,144.564,759.228,149.786,743.234z"/>
</svg>
