<?xml version="1.0" encoding="utf-8"?>
<!-- Generator: Adobe Illustrator 15.1.0, SVG Export Plug-In . SVG Version: 6.00 Build 0)  -->
<!DOCTYPE svg PUBLIC "-//W3C//DTD SVG 1.1//EN" "http://www.w3.org/Graphics/SVG/1.1/DTD/svg11.dtd">
<svg version="1.1" id="Слой_1" xmlns="http://www.w3.org/2000/svg" xmlns:xlink="http://www.w3.org/1999/xlink" x="0px" y="0px"
	 width="100%" height="100%" viewBox="0 0 1024 1024" style="enable-background:new 0 0 1024 1024;" xml:space="preserve">
<path d="M370.751,572.991h-73.289c-12.092,0-21.986-9.893-21.986-21.986v-73.289
	c0-12.093,9.894-21.987,21.986-21.987h73.289c12.093,0,21.986,9.894,21.986,21.987v73.289
	C392.737,563.099,382.844,572.991,370.751,572.991z M568.631,551.005v-73.289c0-12.093-9.895-21.987-21.986-21.987h-73.289
	c-12.093,0-21.986,9.894-21.986,21.987v73.289c0,12.094,9.894,21.986,21.986,21.986h73.289
	C558.736,572.991,568.631,563.099,568.631,551.005z M744.524,551.005v-73.289c0-12.093-9.894-21.987-21.986-21.987h-73.289
	c-12.093,0-21.986,9.894-21.986,21.987v73.289c0,12.094,9.894,21.986,21.986,21.986h73.289
	C734.631,572.991,744.524,563.099,744.524,551.005z M568.631,726.897v-73.288c0-12.093-9.895-21.987-21.986-21.987h-73.289
	c-12.093,0-21.986,9.895-21.986,21.987v73.288c0,12.094,9.894,21.986,21.986,21.986h73.289
	C558.736,748.884,568.631,738.991,568.631,726.897z M392.737,726.897v-73.288c0-12.093-9.894-21.987-21.986-21.987h-73.289
	c-12.092,0-21.986,9.895-21.986,21.987v73.288c0,12.094,9.894,21.986,21.986,21.986h73.289
	C382.844,748.884,392.737,738.991,392.737,726.897z M744.524,726.897v-73.288c0-12.093-9.894-21.987-21.986-21.987h-73.289
	c-12.093,0-21.986,9.895-21.986,21.987v73.288c0,12.094,9.894,21.986,21.986,21.986h73.289
	C734.631,748.884,744.524,738.991,744.524,726.897z M920.418,250.521v644.942c0,48.553-39.394,87.946-87.946,87.946H187.529
	c-48.554,0-87.947-39.394-87.947-87.946V250.521c0-48.554,39.393-87.946,87.947-87.946h87.947V67.298
	c0-12.093,9.894-21.987,21.986-21.987h73.289c12.093,0,21.986,9.894,21.986,21.987v95.276h234.525V67.298
	c0-12.093,9.894-21.987,21.986-21.987h73.289c12.093,0,21.986,9.894,21.986,21.987v95.276h87.947
	C881.024,162.574,920.418,201.967,920.418,250.521z M832.472,884.469V338.467H187.529v546.002c0,6.046,4.946,10.994,10.993,10.994
	h622.956C827.522,895.463,832.472,890.515,832.472,884.469z"/>
</svg>
