<?xml version="1.0" encoding="utf-8"?>
<!-- Generator: Adobe Illustrator 15.1.0, SVG Export Plug-In . SVG Version: 6.00 Build 0)  -->
<!DOCTYPE svg PUBLIC "-//W3C//DTD SVG 1.1//EN" "http://www.w3.org/Graphics/SVG/1.1/DTD/svg11.dtd">
<svg version="1.1" id="Слой_1" xmlns="http://www.w3.org/2000/svg" xmlns:xlink="http://www.w3.org/1999/xlink" x="0px" y="0px"
	 width="100%" height="100%" viewBox="0 0 1024 1024" style="enable-background:new 0 0 1024 1024;" xml:space="preserve">
<path style="fill:none;stroke:#575757;stroke-width:0.5;stroke-miterlimit:100;" d="M1231.372,140.93"/>
<path d="M415.683,489.663c9.143,9.143,23.962,9.143,33.105,0l16.545-16.545
	c9.143-9.143,9.143-23.962,0-33.105l-52.254-52.24l52.239-52.254c9.143-9.143,9.143-23.962,0-33.105l-16.545-16.546
	c-9.143-9.143-23.961-9.143-33.104,0l-85.345,85.345c-9.143,9.143-9.143,23.962,0,33.105L415.683,489.663z M556.135,473.132
	l16.545,16.545c9.143,9.143,23.962,9.143,33.104,0l85.345-85.344c9.144-9.143,9.144-23.962,0-33.105l-85.345-85.344
	c-9.143-9.143-23.962-9.143-33.104,0l-16.545,16.545c-9.144,9.143-9.144,23.962,0,33.105l52.239,52.24l-52.239,52.254
	C546.991,449.17,546.991,463.989,556.135,473.132L556.135,473.132z M955.442,715.459h-354.69
	c-1.082,28.98-21.519,46.813-47.895,46.813h-88.943c-27.34,0-48.305-25.557-47.938-46.813H66.011
	c-12.874,0-23.406,10.533-23.406,23.405v23.407c0,51.493,42.131,93.624,93.624,93.624h748.995c51.494,0,93.625-42.131,93.625-93.624
	v-23.407C978.849,725.992,968.316,715.459,955.442,715.459z M885.224,177.119c0-38.62-31.598-70.219-70.218-70.219H206.447
	c-38.621,0-70.219,31.599-70.219,70.219v491.528h748.995V177.119z M791.601,575.022H229.853V200.524h561.748V575.022z"/>
</svg>
