<?xml version="1.0" encoding="utf-8"?>
<!-- Generator: Adobe Illustrator 15.1.0, SVG Export Plug-In . SVG Version: 6.00 Build 0)  -->
<!DOCTYPE svg PUBLIC "-//W3C//DTD SVG 1.1//EN" "http://www.w3.org/Graphics/SVG/1.1/DTD/svg11.dtd">
<svg version="1.1" id="Слой_1" xmlns="http://www.w3.org/2000/svg" xmlns:xlink="http://www.w3.org/1999/xlink" x="0px" y="0px"
	 width="100%" height="100%" viewBox="0 0 1024 1024" style="enable-background:new 0 0 1024 1024;" xml:space="preserve">
<path d="M891.201,101.919H671.162l-17.236-34.29c-7.448-14.952-22.72-24.399-39.424-24.387H404.915
	c-16.673-0.064-31.915,9.409-39.24,24.387l-17.236,34.29H128.399c-16.204,0-29.338,13.135-29.338,29.338v58.677
	c0,16.203,13.135,29.338,29.338,29.338h762.802c16.202,0,29.338-13.135,29.338-29.338v-58.677
	C920.539,115.055,907.403,101.919,891.201,101.919z M196.611,899.56c2.905,46.379,41.363,82.509,87.833,82.515h450.713
	c46.468-0.006,84.929-36.136,87.832-82.515l38.873-621.609H157.738L196.611,899.56z"/>
</svg>
