<?xml version="1.0" encoding="utf-8"?>
<!-- Generator: Adobe Illustrator 15.1.0, SVG Export Plug-In . SVG Version: 6.00 Build 0)  -->
<!DOCTYPE svg PUBLIC "-//W3C//DTD SVG 1.1//EN" "http://www.w3.org/Graphics/SVG/1.1/DTD/svg11.dtd">
<svg version="1.1" id="Слой_1" xmlns:serif="http://www.serif.com/"
	 xmlns="http://www.w3.org/2000/svg" xmlns:xlink="http://www.w3.org/1999/xlink" x="0px" y="0px" width="100%" height="100%"
	 viewBox="0 0 512 512" style="enable-background:new 0 0 512 512;" xml:space="preserve">
<path d="M38.129,155.634h50.373v319.031c0,9.274,7.518,16.792,16.792,16.792h33.582c9.273,0,16.791-7.518,16.791-16.792V155.634
	h50.374c14.913,0,22.437-18.093,11.87-28.66L133.954,26.227c-6.556-6.552-17.182-6.552-23.738,0L26.26,126.974
	C15.724,137.521,23.206,155.634,38.129,155.634z M457.907,289.963H323.578c-9.273,0-16.791,7.519-16.791,16.791v33.582
	c0,9.273,7.518,16.792,16.791,16.792h58.77l-64.289,73.934c-7.17,6.373-11.272,15.509-11.271,25.103v18.501
	c0,9.274,7.518,16.792,16.791,16.792h134.329c9.274,0,16.792-7.518,16.792-16.792v-33.582c0-9.273-7.518-16.791-16.792-16.791
	h-58.769l64.289-73.934c7.17-6.374,11.272-15.509,11.271-25.103v-18.502C474.699,297.481,467.182,289.963,457.907,289.963z
	 M490.503,200.361l-62.2-167.911c-2.387-6.685-8.717-11.146-15.815-11.146h-43.488c-7.099,0-13.429,4.461-15.815,11.146
	l-62.201,167.911c-3.118,8.733,1.435,18.341,10.167,21.459c1.811,0.646,3.717,0.977,5.638,0.978h26.059
	c7.286,0.002,13.742-4.695,15.982-11.628l4.64-13.559h74.51l4.628,13.559c2.245,6.948,8.724,11.648,16.025,11.628h26.068
	c9.273-0.005,16.787-7.526,16.781-16.8C491.479,204.078,491.149,202.171,490.503,200.361z M373.543,138.843l17.2-50.374l17.2,50.374
	H373.543z"/>
</svg>
