<?xml version="1.0" encoding="utf-8"?>
<!-- Generator: Adobe Illustrator 15.1.0, SVG Export Plug-In . SVG Version: 6.00 Build 0)  -->
<!DOCTYPE svg PUBLIC "-//W3C//DTD SVG 1.1//EN" "http://www.w3.org/Graphics/SVG/1.1/DTD/svg11.dtd">
<svg version="1.1" id="Слой_1" xmlns="http://www.w3.org/2000/svg" xmlns:xlink="http://www.w3.org/1999/xlink" x="0px" y="0px"
	 width="100%" height="100%" viewBox="0 0 1024 1024" style="enable-background:new 0 0 1024 1024;" xml:space="preserve">
<g>
	<path d="M868.084,581.1c8.119-44.028,8.119-88.994,0-133.024l80.564-46.527
		c9.367-5.308,13.427-16.236,10.305-26.542c-20.923-67.449-56.831-128.652-103.671-179.238c-7.184-7.806-18.737-9.68-28.104-4.372
		l-80.563,46.527c-34.036-29.041-73.069-51.522-115.226-66.513V78.358c0-10.618-7.493-19.985-17.797-22.171
		c-69.636-15.613-140.518-14.988-206.719,0c-10.304,2.186-17.8,11.553-17.8,22.171v93.053
		c-42.154,14.991-81.187,37.472-115.222,66.513l-80.564-46.527c-9.056-5.308-20.921-3.434-28.105,4.372
		c-46.839,50.586-82.749,111.789-103.671,179.238c-3.122,10.305,1.25,21.233,10.305,26.542l80.564,46.527
		c-8.119,44.03-8.119,88.996,0,133.024l-80.564,46.526c-9.367,5.311-13.427,16.239-10.305,26.544
		c20.922,67.446,56.832,128.339,103.671,179.237c7.184,7.807,18.737,9.68,28.105,4.372l80.564-46.527
		c34.035,29.041,73.068,51.522,115.222,66.513v93.054c0,10.615,7.496,19.985,17.8,22.169c69.636,15.614,140.518,14.99,206.719,0
		c10.304-2.184,17.797-11.554,17.797-22.169v-93.054c42.156-14.99,81.189-37.472,115.226-66.513l80.563,46.527
		c9.057,5.308,20.921,3.435,28.104-4.372c46.84-50.586,82.748-111.791,103.671-179.237c3.122-10.305-1.25-21.233-10.305-26.544
		L868.084,581.1z M510.544,666.035c-83.687,0-151.447-68.072-151.447-151.447c0-83.374,68.073-151.447,151.447-151.447
		c83.375,0,151.448,68.073,151.448,151.447C661.992,597.963,594.232,666.035,510.544,666.035z"/>
</g>
</svg>
