<?xml version="1.0" encoding="utf-8"?>
<!-- Generator: Adobe Illustrator 15.1.0, SVG Export Plug-In . SVG Version: 6.00 Build 0)  -->
<!DOCTYPE svg PUBLIC "-//W3C//DTD SVG 1.1//EN" "http://www.w3.org/Graphics/SVG/1.1/DTD/svg11.dtd">
<svg version="1.1" id="Слой_1" xmlns:serif="http://www.serif.com/"
	 xmlns="http://www.w3.org/2000/svg" xmlns:xlink="http://www.w3.org/1999/xlink" x="0px" y="0px" width="100%" height="100%"
	 viewBox="0 0 512 512" enable-background="new 0 0 512 512" xml:space="preserve">
<g>
	<path fill="#82AFFF" d="M491.854,205.007H21.482v-94.616c0-4.479,3.632-8.11,8.11-8.11h454.152c4.479,0,8.11,3.632,8.11,8.11
		V205.007L491.854,205.007z"/>
	<path fill="#73AF00" d="M483.743,410.456H29.592c-4.479,0-8.11-3.632-8.11-8.109v-94.614h470.373v94.614
		C491.854,406.826,488.222,410.456,483.743,410.456z"/>
	<rect x="21.482" y="205.005" fill="#F5F5F5" width="470.373" height="102.718"/>
	<g>
		<rect x="21.482" y="195.883" fill="#FF4B55" width="470.373" height="12.808"/>
		<rect x="21.482" y="304.041" fill="#FF4B55" width="470.373" height="12.808"/>
	</g>
	<g>
		<path fill="#F5F5F5" d="M125.746,179.265c-16.603,0-30.061-13.426-30.061-29.969c0-16.604,13.458-30.09,30.061-30.09
			c0.064,0,0.127,0,0.189,0.001c0.977,0.013,1.319-1.286,0.458-1.748c-5.113-2.74-10.947-4.291-17.15-4.246
			c-19.866,0.142-36.002,16.603-35.792,36.47c0.208,19.661,16.281,35.575,36.052,35.575c6.118,0,11.87-1.548,16.919-4.251
			c0.86-0.46,0.513-1.758-0.462-1.744C125.887,179.265,125.816,179.265,125.746,179.265z"/>
		<path fill="#F5F5F5" d="M149.284,170.977l-1.342,4.026l-4.243,0.032c-0.55,0.004-0.778,0.706-0.335,1.031l3.413,2.522l-1.28,4.046
			c-0.166,0.523,0.43,0.958,0.877,0.637l3.454-2.467l3.452,2.467c0.448,0.32,1.043-0.114,0.878-0.637l-1.28-4.046l3.413-2.522
			c0.442-0.326,0.214-1.027-0.335-1.031l-4.244-0.032l-1.342-4.026C150.195,170.456,149.46,170.456,149.284,170.977z"/>
		<path fill="#F5F5F5" d="M179.182,170.977l-1.343,4.026l-4.243,0.032c-0.549,0.004-0.778,0.706-0.336,1.031l3.413,2.522
			l-1.28,4.046c-0.165,0.523,0.43,0.958,0.878,0.637l3.452-2.467l3.453,2.467c0.447,0.32,1.043-0.114,0.877-0.637l-1.28-4.046
			l3.413-2.522c0.442-0.326,0.214-1.027-0.335-1.031l-4.244-0.032l-1.342-4.026C180.092,170.456,179.354,170.456,179.182,170.977z"
			/>
		<path fill="#F5F5F5" d="M209.078,170.977l-1.342,4.026l-4.243,0.032c-0.55,0.004-0.778,0.706-0.336,1.031l3.414,2.522l-1.28,4.046
			c-0.166,0.523,0.431,0.958,0.877,0.637l3.453-2.467l3.452,2.467c0.448,0.32,1.043-0.114,0.879-0.637l-1.281-4.046l3.413-2.522
			c0.441-0.326,0.213-1.027-0.335-1.031l-4.244-0.032l-1.342-4.026C209.989,170.456,209.251,170.456,209.078,170.977z"/>
		<path fill="#F5F5F5" d="M238.974,170.977l-1.342,4.026l-4.243,0.032c-0.55,0.004-0.778,0.706-0.336,1.031l3.413,2.522
			l-1.281,4.046c-0.165,0.523,0.431,0.958,0.878,0.637l3.452-2.467l3.453,2.467c0.448,0.32,1.043-0.114,0.878-0.637l-1.28-4.046
			l3.412-2.522c0.443-0.326,0.215-1.027-0.335-1.031l-4.243-0.032l-1.343-4.026C239.885,170.456,239.147,170.456,238.974,170.977z"
			/>
		<path fill="#F5F5F5" d="M268.87,170.977l-1.342,4.026l-4.243,0.032c-0.548,0.004-0.776,0.706-0.335,1.031l3.414,2.522l-1.28,4.046
			c-0.166,0.523,0.429,0.958,0.878,0.637l3.453-2.467l3.451,2.467c0.447,0.32,1.044-0.114,0.879-0.637l-1.281-4.046l3.415-2.522
			c0.442-0.326,0.212-1.027-0.338-1.031l-4.243-0.032l-1.342-4.026C269.78,170.456,269.046,170.456,268.87,170.977z"/>
		<path fill="#F5F5F5" d="M179.182,143.075l-1.343,4.025l-4.243,0.033c-0.549,0.003-0.778,0.705-0.336,1.031l3.413,2.521
			l-1.28,4.046c-0.165,0.523,0.43,0.957,0.878,0.638l3.452-2.468l3.453,2.468c0.447,0.319,1.043-0.115,0.877-0.638l-1.28-4.046
			l3.413-2.521c0.442-0.326,0.214-1.027-0.335-1.031l-4.244-0.033l-1.342-4.025C180.092,142.552,179.354,142.552,179.182,143.075z"
			/>
		<path fill="#F5F5F5" d="M209.078,143.075l-1.342,4.025l-4.243,0.033c-0.55,0.003-0.778,0.705-0.336,1.031l3.414,2.521l-1.28,4.046
			c-0.166,0.523,0.431,0.957,0.877,0.638l3.453-2.468l3.452,2.468c0.448,0.319,1.043-0.115,0.879-0.638l-1.281-4.046l3.413-2.521
			c0.441-0.326,0.213-1.027-0.335-1.031l-4.244-0.033l-1.342-4.025C209.989,142.552,209.251,142.552,209.078,143.075z"/>
		<path fill="#F5F5F5" d="M238.974,143.075l-1.342,4.025l-4.243,0.033c-0.55,0.003-0.778,0.705-0.336,1.031l3.413,2.521
			l-1.281,4.046c-0.165,0.523,0.431,0.957,0.878,0.638l3.452-2.468l3.453,2.468c0.448,0.319,1.043-0.115,0.878-0.638l-1.28-4.046
			l3.412-2.521c0.443-0.326,0.215-1.027-0.335-1.031L241.4,147.1l-1.343-4.025C239.885,142.552,239.147,142.552,238.974,143.075z"/>
		<path fill="#F5F5F5" d="M268.87,143.075l-1.342,4.025l-4.243,0.033c-0.548,0.003-0.776,0.705-0.335,1.031l3.414,2.521l-1.28,4.046
			c-0.166,0.523,0.429,0.957,0.878,0.638l3.453-2.468l3.451,2.468c0.447,0.319,1.044-0.115,0.879-0.638l-1.281-4.046l3.415-2.521
			c0.442-0.326,0.212-1.027-0.338-1.031l-4.243-0.033l-1.342-4.025C269.78,142.552,269.046,142.552,268.87,143.075z"/>
		<path fill="#F5F5F5" d="M209.078,170.977l-1.342,4.026l-4.243,0.032c-0.55,0.004-0.778,0.706-0.336,1.031l3.414,2.522l-1.28,4.046
			c-0.166,0.523,0.431,0.958,0.877,0.637l3.453-2.467l3.452,2.467c0.448,0.32,1.043-0.114,0.879-0.637l-1.281-4.046l3.413-2.522
			c0.441-0.326,0.213-1.027-0.335-1.031l-4.244-0.032l-1.342-4.026C209.989,170.456,209.251,170.456,209.078,170.977z"/>
		<path fill="#F5F5F5" d="M209.078,115.17l-1.342,4.025l-4.243,0.033c-0.55,0.003-0.778,0.706-0.336,1.031l3.414,2.521l-1.28,4.046
			c-0.166,0.524,0.431,0.958,0.877,0.639l3.453-2.468l3.452,2.468c0.448,0.319,1.043-0.115,0.879-0.639l-1.281-4.046l3.413-2.521
			c0.441-0.326,0.213-1.028-0.335-1.031l-4.244-0.033l-1.342-4.025C209.989,114.649,209.251,114.649,209.078,115.17z"/>
		<path fill="#F5F5F5" d="M238.974,170.977l-1.342,4.026l-4.243,0.032c-0.55,0.004-0.778,0.706-0.336,1.031l3.413,2.522
			l-1.281,4.046c-0.165,0.523,0.431,0.958,0.878,0.637l3.452-2.467l3.453,2.467c0.448,0.32,1.043-0.114,0.878-0.637l-1.28-4.046
			l3.412-2.522c0.443-0.326,0.215-1.027-0.335-1.031l-4.243-0.032l-1.343-4.026C239.885,170.456,239.147,170.456,238.974,170.977z"
			/>
		<path fill="#F5F5F5" d="M268.87,170.977l-1.342,4.026l-4.243,0.032c-0.548,0.004-0.776,0.706-0.335,1.031l3.414,2.522l-1.28,4.046
			c-0.166,0.523,0.429,0.958,0.878,0.637l3.453-2.467l3.451,2.467c0.447,0.32,1.044-0.114,0.879-0.637l-1.281-4.046l3.415-2.522
			c0.442-0.326,0.212-1.027-0.338-1.031l-4.243-0.032l-1.342-4.026C269.78,170.456,269.046,170.456,268.87,170.977z"/>
		<path fill="#F5F5F5" d="M238.974,115.17l-1.342,4.025l-4.243,0.033c-0.55,0.003-0.778,0.706-0.336,1.031l3.413,2.521l-1.281,4.046
			c-0.165,0.524,0.431,0.958,0.878,0.639l3.452-2.468l3.453,2.468c0.448,0.319,1.043-0.115,0.878-0.639l-1.28-4.046l3.412-2.521
			c0.443-0.326,0.215-1.028-0.335-1.031l-4.243-0.033l-1.343-4.025C239.885,114.649,239.147,114.649,238.974,115.17z"/>
		<path fill="#F5F5F5" d="M268.87,115.17l-1.342,4.025l-4.243,0.033c-0.548,0.003-0.776,0.706-0.335,1.031l3.414,2.521l-1.28,4.046
			c-0.166,0.524,0.429,0.958,0.878,0.639l3.453-2.468l3.451,2.468c0.447,0.319,1.044-0.115,0.879-0.639l-1.281-4.046l3.415-2.521
			c0.442-0.326,0.212-1.028-0.338-1.031l-4.243-0.033l-1.342-4.025C269.78,114.649,269.046,114.649,268.87,115.17z"/>
	</g>
</g>
</svg>
