<?xml version="1.0" encoding="utf-8"?>
<!-- Generator: Adobe Illustrator 15.1.0, SVG Export Plug-In . SVG Version: 6.00 Build 0)  -->
<!DOCTYPE svg PUBLIC "-//W3C//DTD SVG 1.1//EN" "http://www.w3.org/Graphics/SVG/1.1/DTD/svg11.dtd">
<svg version="1.1" id="Слой_1" xmlns:serif="http://www.serif.com/"
	 xmlns="http://www.w3.org/2000/svg" xmlns:xlink="http://www.w3.org/1999/xlink" x="0px" y="0px" width="100%" height="100%"
	 viewBox="0 0 512 512" style="enable-background:new 0 0 512 512;" xml:space="preserve">
<path d="M206.571,355.89h-50.337V37.084c0-9.267-7.512-16.779-16.779-16.779h-33.559c-9.267,0-16.779,7.512-16.779,16.779V355.89
	H38.779c-14.881,0-22.4,18.079-11.84,28.641l83.896,100.676c6.552,6.548,17.17,6.548,23.722,0l83.896-100.676
	C228.961,373.989,221.484,355.89,206.571,355.89z M458.261,288.772H324.026c-9.268,0-16.779,7.514-16.779,16.779v33.559
	c0,9.267,7.512,16.779,16.779,16.779h58.728l-64.243,73.883c-7.165,6.368-11.266,15.496-11.264,25.084v18.487
	c0,9.27,7.512,16.78,16.779,16.78h134.234c9.267,0,16.778-7.511,16.778-16.78v-33.559c0-9.266-7.512-16.778-16.778-16.778h-58.728
	l64.243-73.88c7.164-6.371,11.264-15.5,11.263-25.086v-18.489C475.039,296.286,467.527,288.772,458.261,288.772z M490.832,199.235
	L428.676,31.442c-2.385-6.68-8.711-11.138-15.804-11.137h-43.457c-7.094,0-13.42,4.458-15.806,11.137l-62.156,167.792
	c-3.115,8.728,1.434,18.329,10.16,21.444c1.809,0.646,3.714,0.976,5.634,0.977h26.04c7.28,0.002,13.731-4.692,15.97-11.62
	l4.637-13.549h74.458l4.624,13.549c2.244,6.943,8.718,11.641,16.014,11.62h26.05c9.268-0.005,16.776-7.521,16.771-16.788
	C491.809,202.948,491.479,201.043,490.832,199.235z M373.955,137.76l17.188-50.337l17.188,50.337H373.955z"/>
</svg>
