<?xml version="1.0" encoding="utf-8"?>
<!-- Generator: Adobe Illustrator 15.1.0, SVG Export Plug-In . SVG Version: 6.00 Build 0)  -->
<!DOCTYPE svg PUBLIC "-//W3C//DTD SVG 1.1//EN" "http://www.w3.org/Graphics/SVG/1.1/DTD/svg11.dtd">
<svg version="1.1" id="Слой_1" xmlns="http://www.w3.org/2000/svg" xmlns:xlink="http://www.w3.org/1999/xlink" x="0px" y="0px"
	 width="100%" height="100%" viewBox="0 0 1024 1024" style="enable-background:new 0 0 1024 1024;" xml:space="preserve">
<path d="M509.409,474.081l320.274-320.275c22.137-22.136,57.933-22.136,79.834,0l53.223,53.223
	c22.137,22.136,22.137,57.932,0,79.833L735.955,514.116l227.019,227.019c22.14,22.137,22.14,57.933,0,79.833l-53.221,53.457
	c-22.137,22.137-57.933,22.137-79.833,0L509.644,554.149C487.271,532.013,487.271,496.217,509.409,474.081z M57.255,554.149
	l320.276,320.275c22.136,22.137,57.931,22.137,79.833,0l53.222-53.221c22.136-22.137,22.136-57.933,0-79.834L283.802,514.116
	l227.019-227.02c22.138-22.137,22.138-57.933,0-79.833L457.6,153.805c-22.138-22.136-57.933-22.136-79.835,0L57.491,474.081
	C35.118,496.217,35.118,532.013,57.255,554.149L57.255,554.149z"/>
</svg>
