<?xml version="1.0" encoding="utf-8"?>
<!-- Generator: Adobe Illustrator 15.1.0, SVG Export Plug-In . SVG Version: 6.00 Build 0)  -->
<!DOCTYPE svg PUBLIC "-//W3C//DTD SVG 1.1//EN" "http://www.w3.org/Graphics/SVG/1.1/DTD/svg11.dtd">
<svg version="1.1" id="Слой_1" xmlns:serif="http://www.serif.com/"
	 xmlns="http://www.w3.org/2000/svg" xmlns:xlink="http://www.w3.org/1999/xlink" x="0px" y="0px" width="100%" height="100%"
	 viewBox="0 0 512 512" enable-background="new 0 0 512 512" xml:space="preserve">
<g>
	<path fill="#FF4B55" d="M334.063,110.462h147.962c4.456,0,8.07,3.438,8.07,7.677v276.368c0,4.24-3.614,7.676-8.07,7.676H334.063
		V110.462z"/>
	<rect x="178.033" y="110.466" fill="#FFE15A" width="156.036" height="291.723"/>
	<path fill="#41479B" d="M30.068,110.462H178.03v291.72H30.068c-4.457,0-8.071-3.437-8.071-7.677V118.139
		C21.998,113.9,25.611,110.462,30.068,110.462z"/>
	<polygon fill="#FFCD5A" points="288.658,305.821 284.646,308.937 266.352,287.593 270.365,284.479 	"/>
	<polygon fill="#FFBE5A" points="280.408,292.326 272.38,298.549 264.331,289.152 272.362,282.93 	"/>
	<polygon fill="#FFCD5A" points="243.973,284.481 247.988,287.594 229.693,308.938 225.679,305.823 	"/>
	<polygon fill="#FFBE5A" points="241.96,282.931 249.99,289.153 241.942,298.551 233.911,292.328 	"/>
	<polygon fill="#FFE15A" points="250.689,292.488 237.74,317.124 255.868,329.44 255.868,294.952 	"/>
	<polygon fill="#FFCD5A" points="261.047,292.488 273.998,317.124 255.868,329.44 255.868,294.952 	"/>
	<path fill="#FFBE5A" d="M219.611,292.488v-64.049h7.77c0,0,0,41.879,0,49.269C227.381,285.097,219.611,292.488,219.611,292.488z"/>
	<path fill="#FFCD5A" d="M214.431,304.806v-76.366h7.769c0,0,0,54.195,0,61.585C222.199,297.415,214.431,304.806,214.431,304.806z"
		/>
	<path fill="#FFE15A" d="M209.251,314.661V228.44h7.77c0,0,0,64.049,0,71.439S209.251,314.661,209.251,314.661z"/>
	<path fill="#FF4B55" d="M227.381,230.903c0,0,0,35.103,0,46.805c0,12.317,18.776,10.674,28.487,19.707
		c9.712-9.033,28.487-7.391,28.487-19.707c0-11.701,0-46.805,0-46.805H227.381L227.381,230.903z"/>
	<path fill="#41479B" d="M227.381,258c0,7.8,0,15.365,0,19.708c0,12.318,18.776,10.676,28.487,19.707
		c9.712-9.033,28.487-7.39,28.487-19.707c0-4.343,0-11.91,0-19.709L227.381,258L227.381,258z"/>
	<g>
		<polygon fill="#FFE15A" points="255.868,290.024 248.099,285.097 248.099,282.635 250.689,280.171 250.689,265.39 242.92,260.464 
			250.689,250.61 253.278,250.61 255.868,253.074 258.459,250.61 261.047,250.61 268.817,260.464 261.047,265.39 261.047,280.171 
			263.637,282.635 263.637,285.097 		"/>
		<path fill="#FFE15A" d="M245.509,233.366c0,0-10.358,2.464-10.358,12.318c0,9.853,10.358,14.78,10.358,14.78l5.18-7.391
			C235.149,248.147,245.509,233.366,245.509,233.366z"/>
		<path fill="#FFE15A" d="M266.228,233.366c0,0,10.358,2.464,10.358,12.318c0,9.853-10.358,14.78-10.358,14.78l-5.181-7.391
			C276.586,248.147,266.228,233.366,266.228,233.366z"/>
		<polygon fill="#FFE15A" points="229.97,258 235.149,260.464 240.329,258 235.149,255.538 		"/>
		<polygon fill="#FFE15A" points="271.406,258 276.586,260.464 281.765,258 276.586,255.538 		"/>
		<polygon fill="#FFE15A" points="255.868,234.598 257.752,236.433 260.447,236.401 260.414,238.966 262.342,240.756 
			260.414,242.547 260.447,245.111 257.752,245.081 255.868,246.916 253.986,245.081 251.289,245.111 251.322,242.547 
			249.394,240.756 251.322,238.966 251.289,236.401 253.986,236.433 		"/>
		<path fill="#FFE15A" d="M238.28,268.759l1.867,1.977l2.597-0.979c1.345-0.509,2.606,0.882,1.882,2.073l-1.397,2.302l1.782,2.047
			c0.922,1.059-0.079,2.631-1.493,2.344l-2.732-0.554l-1.496,2.244c-0.773,1.161-2.655,0.741-2.806-0.627l-0.291-2.645l-2.705-0.658
			c-1.402-0.342-1.563-2.173-0.241-2.731l2.552-1.077l-0.177-2.651C235.534,268.446,237.314,267.736,238.28,268.759z"/>
		<path fill="#FFE15A" d="M272.773,274.375c0.572-2.802,3.003-4.786,5.836-5.085c-0.582-0.297-1.2-0.543-1.88-0.668
			c-3.627-0.669-7.14,1.587-7.843,5.035c-0.702,3.451,1.666,6.791,5.295,7.46c0.681,0.126,1.352,0.118,2.007,0.049
			C273.679,279.881,272.203,277.178,272.773,274.375z"/>
		<path fill="#FFE15A" d="M245.509,230.903l5.18-24.635l-10.359-7.39l2.591-2.464h5.179c0,0,2.591-2.463,7.77-2.463
			s10.359,2.463,10.359,9.852c0,7.39,2.588,27.098,2.588,27.098h-23.307V230.903L245.509,230.903z"/>
	</g>
	<path fill="#FFAA5A" d="M227.381,221.049c-5.721,0-10.359,4.412-10.359,9.853h20.719
		C237.74,225.46,233.101,221.049,227.381,221.049z"/>
	<g>
		<path fill="#FFBE5A" d="M224.791,230.903h-15.539v-16.397c0-3.189,2.719-5.774,6.07-5.774h3.399c3.353,0,6.07,2.586,6.07,5.774
			V230.903L224.791,230.903z"/>
		<path fill="#FFBE5A" d="M292.126,292.488v-64.049h-7.771c0,0,0,41.879,0,49.269C284.355,285.097,292.126,292.488,292.126,292.488z
			"/>
	</g>
	<path fill="#FFCD5A" d="M297.306,304.806v-76.366h-7.771c0,0,0,54.195,0,61.585C289.535,297.415,297.306,304.806,297.306,304.806z"
		/>
	<path fill="#FFE15A" d="M302.485,314.661V228.44h-7.771c0,0,0,64.049,0,71.439S302.485,314.661,302.485,314.661z"/>
	<path fill="#FFAA5A" d="M284.355,221.049c5.722,0,10.359,4.412,10.359,9.853h-20.719
		C273.998,225.46,278.636,221.049,284.355,221.049z"/>
	<path fill="#FFBE5A" d="M286.947,230.903h15.538v-16.397c0-3.189-2.718-5.774-6.07-5.774h-3.398c-3.353,0-6.069,2.586-6.069,5.774
		V230.903L286.947,230.903z"/>
	<polygon fill="#FFAA5A" points="313.617,257.04 316.936,258.962 280.668,315.613 277.351,313.689 	"/>
	<polygon fill="#FFE15A" points="291.772,304.655 285.306,312.353 278.979,307.54 285.446,299.843 	"/>
	<polygon fill="#FFCD5A" points="312.47,256.397 318.001,259.601 310.233,271.741 304.702,268.54 	"/>
	<g>
		<polygon fill="#73AF00" points="199.594,259.85 236.15,313.638 233.975,314.977 197.419,261.186 		"/>
		<path fill="#73AF00" d="M222.596,285.358c-0.929,1.001-1.544,2.521-1.7,4.271c-1.278-1.227-2.745-2.007-4.11-2.217
			c-0.361,1.271-0.214,2.863,0.438,4.476c-1.744-0.586-3.451-0.675-4.792-0.281c0.378,1.817,1.933,3.787,4.316,5.14
			c2.382,1.353,4.945,1.719,6.803,1.172l0.533-0.327c1.286-1.388,1.987-3.759,1.669-6.381
			C225.433,288.589,224.181,286.431,222.596,285.358z"/>
	</g>
	<ellipse fill="#FF4B55" cx="223.819" cy="297.762" rx="2.59" ry="2.464"/>
	<path fill="#73AF00" d="M212.754,270.876c-0.929,1.002-1.545,2.521-1.7,4.273c-1.277-1.228-2.744-2.009-4.11-2.217
		c-0.36,1.27-0.214,2.863,0.438,4.474c-1.744-0.584-3.451-0.675-4.793-0.279c0.378,1.815,1.933,3.786,4.316,5.138
		c2.382,1.354,4.945,1.72,6.804,1.174l0.532-0.328c1.286-1.388,1.987-3.76,1.669-6.382
		C215.591,274.105,214.34,271.948,212.754,270.876z"/>
	<ellipse fill="#FF4B55" cx="213.982" cy="283.283" rx="2.59" ry="2.463"/>
	<path fill="#73AF00" d="M202.914,256.394c-0.929,1.002-1.545,2.521-1.701,4.273c-1.277-1.227-2.744-2.006-4.11-2.216
		c-0.36,1.271-0.213,2.863,0.438,4.474c-1.743-0.584-3.451-0.675-4.792-0.279c0.377,1.816,1.933,3.787,4.316,5.14
		c2.382,1.352,4.946,1.718,6.804,1.171l0.532-0.326c1.286-1.39,1.988-3.761,1.669-6.384
		C205.749,259.624,204.498,257.468,202.914,256.394z"/>
	<ellipse fill="#FF4B55" cx="204.135" cy="268.802" rx="2.59" ry="2.464"/>
	<g>
		<polygon fill="#FFE15A" points="228.887,299.854 235.354,307.549 229.026,312.363 222.558,304.665 		"/>
		<rect x="240.33" y="189.03" fill="#FFE15A" width="2.591" height="17.244"/>
		<rect x="237.734" y="191.492" fill="#FFE15A" width="7.77" height="2.463"/>
	</g>
	<polygon fill="#FF875A" points="240.329,198.878 248.099,204.421 248.099,196.415 242.92,196.415 	"/>
	<path fill="#FFAA5A" d="M242.92,189.023v2.464h2.59v2.464h-2.59v2.463h5.179c0,0,2.591-2.463,7.77-2.463s10.359,2.463,10.359,9.853
		c0,7.391,2.588,27.098,2.588,27.098h5.181c0-5.442,4.64-9.853,10.358-9.853c0.9,0,1.756,0.142,2.591,0.349v-5.275
		c0-4.082,3.477-7.391,7.768-7.391c4.292,0,7.771,3.309,7.771,7.391v12.318v2.463v43.505l3.345-5.226l-1.107-0.641l7.771-12.142
		l1.105,0.642l0,0l1.658,0.96l2.768,1.603l-7.77,12.141l-1.106-0.64l-6.663,10.413v33.146c0,0-6.185-5.899-7.508-12.425
		c-0.947-1.156-2.035-2.632-2.995-4.307l-2.965,4.632l2.755,2.096l-6.466,7.697l-1.72-1.308l-2.929,4.575l-3.315-1.922l3.186-4.979
		l-1.546-1.177l2.2-2.622l-6.794-7.928l-2.009,1.558l-6.043-7.054c-1.608,0.613-3.197,1.291-4.727,2.064l12.386,23.563
		l-18.13,12.317l-18.128-12.317l12.385-23.563c-0.914-0.463-1.842-0.9-2.792-1.298l-5.387,6.287l-2.008-1.558l-6.796,7.928
		l2.204,2.622l-2.201,1.673l3.007,4.423l-2.175,1.337l-2.865-4.215l-2.091,1.591l-6.469-7.696l2.907-2.211l-1.541-2.266
		c-0.037,0-0.072,0.001-0.109,0.001c-0.846,0-1.675-0.36-2.168-1.085c-0.211-0.309-0.324-0.647-0.375-0.988
		c-0.487-0.028-0.981-0.096-1.495-0.21c-0.962,1.688-2.06,3.175-3.012,4.339c-1.323,6.525-7.508,12.425-7.508,12.425V283.24
		c-0.782-0.235-1.572-0.532-2.348-0.975c-2.382-1.353-3.938-3.323-4.316-5.138c0.545-0.161,1.149-0.24,1.792-0.24
		c0.941,0,1.966,0.173,3.001,0.52c-0.337-0.835-0.534-1.661-0.6-2.443l-2.547-3.748c-0.037,0.001-0.072,0.001-0.108,0.001
		c-0.847,0-1.676-0.359-2.169-1.084c-0.211-0.31-0.323-0.646-0.375-0.989c-1.434-0.081-3.004-0.499-4.519-1.356
		c-2.383-1.354-3.938-3.325-4.317-5.14c0.545-0.161,1.15-0.24,1.794-0.24c0.941,0,1.965,0.173,3,0.52
		c-0.652-1.612-0.798-3.203-0.438-4.474c1.366,0.208,2.833,0.989,4.11,2.216c0.155-1.752,0.771-3.271,1.699-4.273
		c1.586,1.074,2.837,3.232,3.155,5.854c0.203,1.668-0.043,3.2-0.553,4.479c0.307,0.186,0.583,0.42,0.792,0.731
		c0.515,0.756,0.496,1.667,0.104,2.42l2.547,3.748c0.099,0.052,0.196,0.113,0.294,0.173v-42.895v-2.464v-12.318
		c0-4.082,3.479-7.39,7.77-7.39c4.291,0,7.769,3.309,7.769,7.39v5.275c0.832-0.205,1.689-0.348,2.59-0.348
		c5.722,0,10.359,4.411,10.359,9.853h7.77l5.179-24.635l-2.591-1.846l-5.179-3.696v5.543h-2.59v-12.317h-2.59v-2.464h2.59v-2.464
		h2.601 M284.492,300.986l0.956-1.141l0.509,0.389l4.176-6.523c-0.365-1.207-0.598-2.444-0.598-3.686c0-0.121,0-0.287,0-0.433
		c-2.261-2.829-5.18-7.354-5.18-11.885c0,5.188-3.348,7.891-7.929,9.968l3.983,4.653l-2.007,1.556L284.492,300.986 M227.493,300.897
		l1.384-1.052l0.957,1.139l6.087-7.102l-2.007-1.557l3.295-3.846c-5.532-2.198-9.83-4.892-9.83-10.772
		c0,3.297-1.548,6.589-3.261,9.231c0.813,1.137,1.427,2.588,1.631,4.271c0.203,1.667-0.042,3.2-0.553,4.477
		c0.306,0.187,0.583,0.423,0.792,0.732c0.514,0.757,0.496,1.667,0.103,2.42L227.493,300.897 M242.92,187.177h-2.591
		c-1.072,0-1.942,0.827-1.942,1.847v0.616h-0.647c-1.072,0-1.942,0.828-1.942,1.848v2.464c0,1.02,0.87,1.847,1.942,1.847h0.647
		v10.469c0,1.02,0.87,1.847,1.942,1.847h2.591c1.072,0,1.941-0.827,1.941-1.847v-1.847l2.071,1.478l1.61,1.149l-4.628,22.006h-4.387
		c-0.934-5.577-6.026-9.853-12.149-9.853c-0.215,0-0.43,0.007-0.647,0.019v-3.099c0-5.093-4.358-9.238-9.712-9.238
		c-5.354,0-9.712,4.146-9.712,9.238v12.318v2.463v28.331c-0.702-1.839-1.842-3.378-3.271-4.347
		c-0.339-0.229-0.733-0.342-1.124-0.342c-0.541,0-1.076,0.214-1.458,0.626c-0.597,0.646-1.09,1.432-1.457,2.32
		c-0.85-0.438-1.725-0.734-2.587-0.867c-0.104-0.017-0.208-0.023-0.311-0.023c-0.864,0-1.641,0.548-1.873,1.365
		c-0.229,0.802-0.304,1.683-0.233,2.6c-0.152-0.007-0.304-0.012-0.455-0.012c-0.842,0-1.638,0.109-2.366,0.323
		c-0.95,0.28-1.525,1.196-1.333,2.124c0.503,2.415,2.456,4.797,5.226,6.367c1.278,0.726,2.666,1.223,4.074,1.466
		c0.058,0.101,0.119,0.201,0.184,0.298c0.638,0.938,1.638,1.582,2.782,1.824l1.416,2.082c-0.048,0-0.094,0-0.141,0
		c-0.841,0-1.638,0.108-2.366,0.321c-0.95,0.281-1.525,1.196-1.333,2.126c0.503,2.411,2.456,4.793,5.226,6.364
		c0.441,0.251,0.902,0.475,1.4,0.676v30.131c0,0.749,0.474,1.422,1.2,1.707c0.24,0.094,0.492,0.141,0.741,0.141
		c0.507,0,1.004-0.189,1.376-0.544c0.264-0.251,6.356-6.124,7.944-12.939c0.653-0.817,1.256-1.64,1.805-2.464
		c0.625,0.687,1.472,1.16,2.417,1.36l0.084,0.123l-1.534,1.166c-0.402,0.306-0.661,0.753-0.718,1.241
		c-0.057,0.484,0.092,0.975,0.414,1.356l6.468,7.698c0.322,0.383,0.791,0.629,1.303,0.684c0.072,0.009,0.144,0.011,0.215,0.011
		c0.439,0,0.867-0.143,1.212-0.404l0.414-0.314l1.698,2.497c0.28,0.412,0.719,0.702,1.223,0.805c0.135,0.028,0.271,0.04,0.408,0.04
		c0.371,0,0.739-0.101,1.054-0.295l1.256-0.772l-0.284,0.541c-0.428,0.813-0.17,1.801,0.608,2.329l18.129,12.319
		c0.336,0.229,0.731,0.344,1.127,0.344c0.396,0,0.791-0.114,1.13-0.344l18.128-12.319c0.777-0.528,1.037-1.516,0.608-2.329
		l-11.517-21.91c0.489-0.22,0.996-0.438,1.531-0.655l5.128,5.986c0.384,0.447,0.942,0.681,1.507,0.681
		c0.43,0,0.866-0.138,1.226-0.417l0.505-0.389l4.577,5.339l-1.225,1.457c-0.32,0.382-0.47,0.871-0.413,1.358
		c0.058,0.488,0.315,0.933,0.719,1.238l0.211,0.162l-2.299,3.59c-0.557,0.87-0.267,2.008,0.65,2.539l3.318,1.922
		c0.306,0.176,0.655,0.269,1.009,0.269c0.153,0,0.31-0.016,0.459-0.053c0.502-0.116,0.934-0.414,1.201-0.834l1.781-2.782
		c0.357,0.267,0.782,0.4,1.204,0.4c0.568,0,1.137-0.24,1.518-0.695l6.471-7.699c0.237-0.282,0.371-0.61,0.41-0.947
		c2.112,6.004,7.169,10.877,7.407,11.104c0.372,0.355,0.869,0.545,1.378,0.545c0.249,0,0.499-0.048,0.74-0.14
		c0.727-0.286,1.198-0.959,1.198-1.707v-32.627l5.43-8.48c0.132,0.026,0.264,0.039,0.397,0.039c0.657,0,1.296-0.316,1.66-0.888
		l7.771-12.143c0.27-0.418,0.35-0.919,0.227-1.396c-0.123-0.477-0.438-0.887-0.875-1.143l-2.768-1.601l-1.657-0.961l-1.107-0.641
		c-0.315-0.183-0.665-0.269-1.008-0.269c-0.656,0-1.295,0.316-1.66,0.888l-6.407,10.012v-34.547v-2.463v-12.314
		c0-5.093-4.357-9.238-9.711-9.238c-5.356,0-9.713,4.146-9.713,9.238v3.099c-0.216-0.012-0.433-0.019-0.646-0.019
		c-6.122,0-11.215,4.276-12.15,9.853h-1.669c-0.612-4.849-2.367-19.282-2.367-25.25c0-8.627-6.355-11.702-12.303-11.702
		c-4.404,0-7.245,1.597-8.464,2.463h-0.064c0.072-0.193,0.111-0.399,0.111-0.615v-2.464c0-1.021-0.87-1.847-1.941-1.847h-0.647
		v-0.616C244.861,188.004,243.992,187.177,242.92,187.177L242.92,187.177z M226.378,286.937c0.498-0.833,0.931-1.652,1.304-2.462
		c1.62,2.067,3.949,3.538,6.428,4.7l-1.7,1.985c-0.326,0.381-0.479,0.867-0.427,1.354c0.051,0.487,0.305,0.936,0.705,1.245
		l0.499,0.389l-3.46,4.036c-0.197-0.091-0.412-0.151-0.635-0.176c-0.072-0.009-0.145-0.013-0.215-0.013
		c-0.194,0-0.384,0.029-0.567,0.082c0.088-0.929-0.143-1.861-0.687-2.662c-0.066-0.098-0.137-0.192-0.211-0.282
		c0.346-1.321,0.438-2.73,0.269-4.136C227.505,289.553,227.06,288.171,226.378,286.937L226.378,286.937z M279.432,288.262
		c1.711-0.949,3.373-2.151,4.632-3.767c0.993,2.155,2.294,4.114,3.53,5.712c0.015,1.031,0.162,2.089,0.449,3.213l-2.949,4.608
		c-0.17,0.029-0.339,0.082-0.497,0.156l-3.46-4.036l0.5-0.389c0.399-0.31,0.653-0.759,0.705-1.246
		c0.052-0.484-0.103-0.973-0.427-1.354L279.432,288.262L279.432,288.262z M241.945,300.397c0.564,0,1.123-0.232,1.508-0.68
		l3.276-3.822l-8.866,16.865c-0.023-0.043-0.05-0.084-0.079-0.126l-2.052-3.021l0.828-0.629c0.402-0.306,0.662-0.752,0.718-1.239
		c0.058-0.487-0.092-0.977-0.414-1.356l-1.223-1.457l4.577-5.34l0.503,0.389C241.079,300.264,241.513,300.397,241.945,300.397
		L241.945,300.397z M291.564,302.131l0.424-0.66c0.369,0.52,0.764,1.038,1.176,1.554c0.037,0.156,0.075,0.311,0.115,0.465
		c-0.084-0.101-0.184-0.193-0.293-0.278L291.564,302.131L291.564,302.131z"/>
</g>
</svg>
