<svg width="100%" height="100%" viewBox="0 0 21 15" fill="none" 
    xmlns="http://www.w3.org/2000/svg">
    <path d="M20.125 0.759766H4.08333C3.32289 0.759766 2.67447 1.24922 2.43367 1.93061H0.875C0.391745 1.93061 0 2.32376 0 2.80875V12.761C0 13.8926 0.914083 14.81 2.04167 14.81H20.125C20.6083 14.81 21 14.4168 21 13.9318V1.6379C21 1.15291 20.6083 0.759766 20.125 0.759766ZM1.75 12.761V3.68689H2.33333V12.761C2.33333 12.9224 2.20248 13.0537 2.04167 13.0537C1.88085 13.0537 1.75 12.9224 1.75 12.761ZM19.25 13.0537H4.06226C4.0759 12.958 4.08333 12.8604 4.08333 12.761V2.51604H19.25V13.0537ZM6.27083 8.663H11.2292C11.4708 8.663 11.6667 8.4664 11.6667 8.22393V4.71138C11.6667 4.4689 11.4708 4.27231 11.2292 4.27231H6.27083C6.02922 4.27231 5.83333 4.4689 5.83333 4.71138V8.22393C5.83333 8.4664 6.02922 8.663 6.27083 8.663ZM7.29167 5.73587H10.2083V7.19943H7.29167V5.73587ZM5.83333 10.8583V9.9802C5.83333 9.73773 6.02922 9.54113 6.27083 9.54113H11.2292C11.4708 9.54113 11.6667 9.73773 11.6667 9.9802V10.8583C11.6667 11.1008 11.4708 11.2974 11.2292 11.2974H6.27083C6.02922 11.2974 5.83333 11.1008 5.83333 10.8583ZM12.8333 10.8583V9.9802C12.8333 9.73773 13.0292 9.54113 13.2708 9.54113H17.0625C17.3041 9.54113 17.5 9.73773 17.5 9.9802V10.8583C17.5 11.1008 17.3041 11.2974 17.0625 11.2974H13.2708C13.0292 11.2974 12.8333 11.1008 12.8333 10.8583ZM12.8333 5.58952V4.71138C12.8333 4.4689 13.0292 4.27231 13.2708 4.27231H17.0625C17.3041 4.27231 17.5 4.4689 17.5 4.71138V5.58952C17.5 5.83199 17.3041 6.02859 17.0625 6.02859H13.2708C13.0292 6.02859 12.8333 5.83199 12.8333 5.58952ZM12.8333 8.22393V7.34579C12.8333 7.10331 13.0292 6.90672 13.2708 6.90672H17.0625C17.3041 6.90672 17.5 7.10331 17.5 7.34579V8.22393C17.5 8.4664 17.3041 8.663 17.0625 8.663H13.2708C13.0292 8.663 12.8333 8.4664 12.8333 8.22393Z" fill="#778F9B"/>
</svg>
