<svg width="100%" height="100%" viewBox="0 0 16 16" fill="none" 
    xmlns="http://www.w3.org/2000/svg">
    <path d="M15.7288 3.27465L11.0052 8L15.7288 12.7253C16.0827 13.0794 16.0827 13.6566 15.7288 14.0183L14.0132 15.7345C13.6593 16.0885 13.0823 16.0885 12.7208 15.7345L7.99712 11.0091L3.27347 15.7345C2.91958 16.0885 2.34259 16.0885 1.98101 15.7345L0.265417 14.0183C-0.0884722 13.6643 -0.0884722 13.0871 0.265417 12.7253L4.98906 8L0.265417 3.27465C-0.0884722 2.92064 -0.0884722 2.34343 0.265417 1.98172L1.98101 0.265512C2.3349 -0.0885041 2.91189 -0.0885041 3.27347 0.265512L7.99712 4.99086L12.7208 0.265512C13.0746 -0.0885041 13.6516 -0.0885041 14.0132 0.265512L15.7288 1.98172C16.0904 2.33574 16.0904 2.91294 15.7288 3.27465Z" fill="#778F9B"/>
</svg>
