<svg width="100%" height="100%" viewBox="0 0 16 16" fill="none" xmlns="http://www.w3.org/2000/svg">
<path d="M0 16L1.10344 12C0.386219 10.7586 0 9.37931 0 7.94481C0 3.58622 3.58622 0 7.97241 0C12.3586 0 16 3.58622 16 7.94481C16 12.3034 12.3586 16 7.97241 16C6.59309 16 5.26897 15.5586 4.08275 14.8966L0 16Z" fill="#EDEDED"/>
<path d="M4.30303 13.4624L4.55131 13.6003C5.572 14.2348 6.75822 14.621 7.99959 14.621C11.6134 14.621 14.6203 11.6141 14.6203 7.94514C14.6203 4.27617 11.6134 1.37964 7.972 1.37964C4.33062 1.37964 1.37891 4.30376 1.37891 7.94514C1.37891 9.21411 1.73753 10.4555 2.39959 11.5038L2.56512 11.752L1.93066 14.0693L4.30303 13.4624Z" fill="#55CD6C"/>
<path d="M5.84758 4.24854L5.32346 4.22095C5.15793 4.22095 4.99243 4.27613 4.88208 4.38648C4.6338 4.60717 4.22002 5.02095 4.10968 5.5727C3.91658 6.40029 4.22002 7.39338 4.93727 8.38648C5.65452 9.37957 7.03383 10.9796 9.46139 11.6692C10.2338 11.8899 10.8407 11.752 11.3373 11.4485C11.7235 11.2003 11.9717 10.8141 12.0545 10.4003L12.1373 10.014C12.1649 9.9037 12.1097 9.76576 11.9993 9.7106L10.2614 8.9106C10.1511 8.85542 10.0131 8.88301 9.93036 8.99335L9.24071 9.8761C9.18552 9.93129 9.10277 9.95885 9.02002 9.93129C8.55105 9.76576 6.97865 9.1037 6.12346 7.44854C6.09586 7.36579 6.09586 7.28301 6.15105 7.22785L6.81311 6.48304C6.8683 6.40029 6.89586 6.28995 6.8683 6.20717L6.0683 4.41407C6.04068 4.33129 5.95793 4.24854 5.84758 4.24854Z" fill="#FEFEFE"/>
</svg>
