<?xml version="1.0" encoding="utf-8"?>
<!-- Generator: Adobe Illustrator 15.1.0, SVG Export Plug-In . SVG Version: 6.00 Build 0)  -->
<!DOCTYPE svg PUBLIC "-//W3C//DTD SVG 1.1//EN" "http://www.w3.org/Graphics/SVG/1.1/DTD/svg11.dtd">
<svg version="1.1" id="Слой_1" 
	xmlns:serif="http://www.serif.com/" 
	xmlns="http://www.w3.org/2000/svg" 
	xmlns:xlink="http://www.w3.org/1999/xlink" x="0px" y="0px" width="100%" height="100%" viewBox="0 0 512 512" style="enable-background:new 0 0 512 512;" xml:space="preserve">
	<g>
		<path style="fill:#FFFFFF;" d="M479.518,244.855h-89.528c-12.359,0-22.381,10.021-22.381,22.382
		c0,12.36,10.021,22.382,22.381,22.382h89.528c12.359,0,22.382-10.021,22.382-22.382
		C501.899,254.876,491.88,244.855,479.518,244.855z"/>
		<path style="fill:#94B6DE;" d="M121.41,244.855H31.882c-12.36,0-22.382,10.021-22.382,22.382c0,12.36,10.022,22.382,22.382,22.382
		h89.528c12.361,0,22.382-10.021,22.382-22.382C143.792,254.876,133.771,244.855,121.41,244.855z"/>
		<path style="fill:#DDE5F0;" d="M398.137,93.146l-63.306,63.308c-8.741,8.738-8.741,22.91,0,31.65
		c4.369,4.372,10.097,6.558,15.824,6.558c5.729,0,11.457-2.184,15.826-6.558l63.31-63.307c8.739-8.739,8.739-22.91,0-31.651
		C421.051,84.406,406.879,84.406,398.137,93.146z"/>
		<g>
			<g>
				<g>
					<path style="fill:#6BA2E2;" d="M255.701,401.528c-12.36,0-22.382,10.021-22.382,22.382v44.763
					c0,12.361,10.022,22.384,22.382,22.384c12.36,0,22.381-10.022,22.381-22.384V423.91
					C278.082,411.55,268.062,401.528,255.701,401.528z"/>
				</g>
				<path style="fill:#84B2E7;" d="M144.916,346.368l-63.305,63.309c-8.741,8.74-8.741,22.909,0,31.651
				c4.369,4.368,10.098,6.554,15.827,6.554s11.457-2.186,15.824-6.554l63.305-63.308c8.741-8.742,8.741-22.911,0-31.652
				C167.829,337.628,153.657,337.628,144.916,346.368z"/>
			</g>
		</g>
		<path style="fill:#CDDFF4;" d="M255.701,21.036c-12.36,0-22.382,10.022-22.382,22.382v89.528c0,12.36,10.022,22.382,22.382,22.382
		c12.36,0,22.381-10.022,22.381-22.382V43.417C278.082,31.058,268.062,21.036,255.701,21.036z"/>
		<path style="fill:#B5D1F0;" d="M113.264,93.146c-8.738-8.741-22.91-8.741-31.651,0c-8.741,8.741-8.741,22.91,0,31.651
		l63.305,63.307c4.369,4.372,10.098,6.559,15.826,6.559c5.726,0,11.458-2.187,15.825-6.559c8.741-8.738,8.741-22.91,0-31.65
		L113.264,93.146z"/>
	</g>
</svg>
