<?xml version="1.0" encoding="UTF-8" standalone="no"?>
<!DOCTYPE svg PUBLIC "-//W3C//DTD SVG 1.1//EN" "http://www.w3.org/Graphics/SVG/1.1/DTD/svg11.dtd">
<svg width="100%" height="100%" viewBox="0 0 512 512" version="1.1" xmlns="http://www.w3.org/2000/svg" xmlns:xlink="http://www.w3.org/1999/xlink" xml:space="preserve" xmlns:serif="http://www.serif.com/" style="fill-rule:evenodd;clip-rule:evenodd;stroke-linejoin:round;stroke-miterlimit:2;">
    <path d="M29.984,494.762C27.321,494.762 24.731,493.711 22.809,491.768C20.277,489.205 19.301,485.488 20.252,482.01L51.08,369.434C31.888,334.729 21.768,295.467 21.783,255.612C21.837,126 127.314,20.555 256.916,20.555C319.776,20.58 378.843,45.066 423.238,89.495C467.627,133.927 492.061,192.989 492.044,255.799C491.986,385.415 386.509,490.865 256.916,490.865L256.814,490.865C218.959,490.851 181.43,481.626 148.015,464.15L32.542,494.434C31.695,494.655 30.834,494.762 29.984,494.762Z" style="fill:rgb(229,229,229);fill-rule:nonzero;"/>
    <path d="M37.81,476.818L68.631,364.268C49.616,331.33 39.619,293.96 39.63,255.687C39.677,135.934 137.133,38.507 256.876,38.507C314.994,38.532 369.541,61.152 410.549,102.204C451.57,143.256 474.147,197.826 474.125,255.856C474.074,375.614 376.614,473.052 256.888,473.052C256.876,473.052 256.891,473.052 256.888,473.052L256.788,473.052C220.432,473.036 184.705,463.912 152.975,446.617L37.81,476.818Z" style="fill:rgb(100,177,97);fill-rule:nonzero;"/>
    <path d="M256.916,480.776L256.817,480.776C219.154,480.762 182.15,471.315 149.281,453.389L29.984,484.673L61.909,368.093C42.216,333.972 31.858,295.267 31.873,255.615C31.923,131.568 132.871,30.645 256.915,30.645C317.11,30.67 373.612,54.101 416.1,96.625C458.586,139.15 481.977,195.676 481.955,255.796C481.899,379.84 380.937,480.775 256.916,480.776ZM154.807,412.662L161.641,416.709C190.353,433.75 223.273,442.761 256.843,442.781L256.916,442.781C360.004,442.781 443.91,358.887 443.955,255.781C443.974,205.814 424.537,158.828 389.223,123.484C353.905,88.141 306.949,68.665 256.985,68.644C153.812,68.644 69.909,152.525 69.869,255.629C69.855,290.962 79.739,325.368 98.465,355.143L102.915,362.219L84.015,431.221L154.807,412.662ZM200.671,161.563C196.46,152.2 192.024,152.011 188.016,151.849C184.738,151.707 180.987,151.715 177.242,151.715C173.494,151.715 167.401,153.127 162.249,158.752C157.094,164.378 142.564,177.982 142.564,205.648C142.564,233.318 162.716,260.051 165.527,263.807C168.338,267.559 204.427,326.148 261.58,348.686C309.08,367.42 318.742,363.695 329.055,362.757C339.365,361.82 362.321,349.153 367.006,336.025C371.694,322.896 371.694,311.643 370.287,309.289C368.88,306.947 365.132,305.54 359.51,302.729C353.888,299.917 326.244,286.31 321.087,284.436C315.932,282.558 312.185,281.625 308.436,287.254C304.684,292.877 293.918,305.539 290.635,309.288C287.354,313.047 284.072,313.517 278.45,310.701C272.828,307.885 254.717,301.949 233.233,282.793C216.518,267.892 205.231,249.483 201.948,243.855C198.67,238.232 201.894,235.454 204.419,232.382C208.967,226.85 216.597,216.904 218.471,213.156C220.344,209.4 219.408,206.119 218.004,203.303C216.597,200.492 205.667,172.685 200.671,161.563Z" style="fill:white;fill-rule:nonzero;"/>
</svg>
